<svg width="40" height="40" viewBox="0 0 40 40" fill="none" xmlns="http://www.w3.org/2000/svg">
<path d="M35.965 11.4249C36.1983 10.6499 35.965 10.0815 34.8617 10.0815H31.2067C30.2767 10.0815 29.8517 10.5732 29.6183 11.1132C29.6183 11.1132 27.76 15.6449 25.1267 18.5832C24.2767 19.4382 23.8883 19.7082 23.425 19.7082C23.1933 19.7082 22.8567 19.4382 22.8567 18.6632V11.4249C22.8567 10.4949 22.5883 10.0815 21.8133 10.0815H16.07C15.49 10.0815 15.14 10.5115 15.14 10.9215C15.14 11.8015 16.4567 12.0049 16.5917 14.4849V19.8649C16.5917 21.0432 16.38 21.2582 15.9133 21.2582C14.675 21.2582 11.6617 16.7099 9.87334 11.5032C9.52501 10.4915 9.17334 10.0832 8.24001 10.0832H4.58668C3.54168 10.0832 3.33334 10.5749 3.33334 11.1149C3.33334 12.0849 4.57168 16.8849 9.10168 23.2332C12.1217 27.5682 16.3733 29.9182 20.2467 29.9182C22.5683 29.9182 22.855 29.3965 22.855 28.4965V25.2199C22.855 24.1765 23.0767 23.9665 23.8117 23.9665C24.3517 23.9665 25.2817 24.2399 27.45 26.3282C29.9267 28.8049 30.3367 29.9165 31.7283 29.9165H35.3817C36.425 29.9165 36.9467 29.3949 36.6467 28.3649C36.3183 27.3399 35.135 25.8482 33.565 24.0832C32.7117 23.0765 31.4367 21.9932 31.0483 21.4515C30.5067 20.7532 30.6633 20.4449 31.0483 19.8249C31.05 19.8265 35.5017 13.5565 35.965 11.4249Z" fill="white"/>
</svg>
