<svg width="30" height="29" viewBox="0 0 30 29" fill="none" xmlns="http://www.w3.org/2000/svg">
<path d="M8.5 16H9.5V17H8.5V16Z" fill="#0155B3"/>
<path d="M8.5 20H9.5V21H8.5V20Z" fill="#0155B3"/>
<path d="M8.5 12H9.5V13H8.5V12Z" fill="#0155B3"/>
<path d="M20.5 20H21.5V21H20.5V20Z" fill="#0155B3"/>
<path d="M8.5 4H9.5V5.00001H8.5V4Z" fill="#0155B3"/>
<path d="M16.5 8H17.5V9H16.5V8Z" fill="#0155B3"/>
<path d="M8.5 8H9.5V9H8.5V8Z" fill="#0155B3"/>
<path d="M16.5 4H17.5V5.00001H16.5V4Z" fill="#0155B3"/>
<path d="M20.5 16H21.5V17H20.5V16Z" fill="#0155B3"/>
<path d="M8.5 24H9.5V26H8.5V24Z" fill="#0155B3"/>
<path d="M20.5 12H21.5V13H20.5V12Z" fill="#0155B3"/>
<path d="M16.5 12H17.5V13H16.5V12Z" fill="#0155B3"/>
<path d="M24.1096 0.999996L24.3595 0H5.64014L5.89014 0.999996H24.1096Z" fill="#0155B3"/>
<path d="M12.5 27H17.5V28H12.5V27Z" fill="#0155B3"/>
<path d="M12.5 24H14.5V26H12.5V24Z" fill="#0155B3"/>
<path d="M20.5 8H21.5V9H20.5V8Z" fill="#0155B3"/>
<path d="M20.5 4H21.5V5.00001H20.5V4Z" fill="#0155B3"/>
<path d="M15.5 24H17.5V26H15.5V24Z" fill="#0155B3"/>
<path d="M8 27H5V28H11.5V27H8Z" fill="#0155B3"/>
<path d="M16.5 20H17.5V21H16.5V20Z" fill="#0155B3"/>
<path d="M18.5 26H19.5V23.5C19.5 23.2239 19.7239 23 20 23H22C22.1326 23 22.2598 23.0527 22.3535 23.1464C22.4473 23.2402 22.5 23.3674 22.5 23.5V26H24V2H6V26H7.5V23.5C7.5 23.2239 7.72388 23 8 23H9.99999C10.1326 23 10.2598 23.0527 10.3536 23.1464C10.4473 23.2402 10.5 23.3674 10.5 23.5V26H11.5V23.5C11.5 23.2239 11.7239 23 12 23H18C18.1326 23 18.2598 23.0527 18.3536 23.1464C18.4473 23.2402 18.5 23.3674 18.5 23.5V26ZM19.5 3.5C19.5 3.22389 19.7239 3 20 3H22C22.1326 3 22.2598 3.05268 22.3535 3.14643C22.4473 3.24018 22.5 3.36741 22.5 3.5V5.5C22.5 5.63259 22.4473 5.75982 22.3535 5.85357C22.2598 5.94732 22.1326 6 22 6H20C19.7239 6 19.5 5.77611 19.5 5.5V3.5ZM19.5 7.5C19.5 7.22389 19.7239 7 20 7H22C22.1326 7 22.2598 7.05268 22.3535 7.14643C22.4473 7.24018 22.5 7.36741 22.5 7.5V9.5C22.5 9.63259 22.4473 9.75982 22.3535 9.85357C22.2598 9.94732 22.1326 10 22 10H20C19.7239 10 19.5 9.77611 19.5 9.5V7.5ZM19.5 11.5C19.5 11.2239 19.7239 11 20 11H22C22.1326 11 22.2598 11.0527 22.3535 11.1464C22.4473 11.2402 22.5 11.3674 22.5 11.5V13.5C22.5 13.6326 22.4473 13.7598 22.3535 13.8536C22.2598 13.9473 22.1326 14 22 14H20C19.7239 14 19.5 13.7761 19.5 13.5V11.5ZM19.5 15.5C19.5 15.2239 19.7239 15 20 15H22C22.1326 15 22.2598 15.0527 22.3535 15.1464C22.4473 15.2402 22.5 15.3674 22.5 15.5V17.5C22.5 17.6326 22.4473 17.7598 22.3535 17.8536C22.2598 17.9473 22.1326 18 22 18H20C19.7239 18 19.5 17.7761 19.5 17.5V15.5ZM19.5 19.5C19.5 19.2239 19.7239 19 20 19H22C22.1326 19 22.2598 19.0527 22.3535 19.1464C22.4473 19.2402 22.5 19.3674 22.5 19.5V21.5C22.5 21.6326 22.4473 21.7598 22.3535 21.8536C22.2598 21.9473 22.1326 22 22 22H20C19.7239 22 19.5 21.7761 19.5 21.5V19.5ZM10.5 21.5C10.5 21.6326 10.4473 21.7598 10.3536 21.8536C10.2598 21.9473 10.1326 22 9.99999 22H8C7.72388 22 7.5 21.7761 7.5 21.5V19.5C7.5 19.2239 7.72388 19 8 19H9.99999C10.1326 19 10.2598 19.0527 10.3536 19.1464C10.4473 19.2402 10.5 19.3674 10.5 19.5V21.5ZM10.5 17.5C10.5 17.6326 10.4473 17.7598 10.3536 17.8536C10.2598 17.9473 10.1326 18 9.99999 18H8C7.72388 18 7.5 17.7761 7.5 17.5V15.5C7.5 15.2239 7.72388 15 8 15H9.99999C10.1326 15 10.2598 15.0527 10.3536 15.1464C10.4473 15.2402 10.5 15.3674 10.5 15.5V17.5ZM10.5 13.5C10.5 13.6326 10.4473 13.7598 10.3536 13.8536C10.2598 13.9473 10.1326 14 9.99999 14H8C7.72388 14 7.5 13.7761 7.5 13.5V11.5C7.5 11.2239 7.72388 11 8 11H9.99999C10.1326 11 10.2598 11.0527 10.3536 11.1464C10.4473 11.2402 10.5 11.3674 10.5 11.5V13.5ZM10.5 9.5C10.5 9.63259 10.4473 9.75982 10.3536 9.85357C10.2598 9.94732 10.1326 10 9.99999 10H8C7.72388 10 7.5 9.77611 7.5 9.5V7.5C7.5 7.22389 7.72388 7 8 7H9.99999C10.1326 7 10.2598 7.05268 10.3536 7.14643C10.4473 7.24018 10.5 7.36741 10.5 7.5V9.5ZM10.5 5.5C10.5 5.63259 10.4473 5.75982 10.3536 5.85357C10.2598 5.94732 10.1326 6 9.99999 6H8C7.72388 6 7.5 5.77611 7.5 5.5V3.5C7.5 3.22389 7.72388 3 8 3H9.99999C10.1326 3 10.2598 3.05268 10.3536 3.14643C10.4473 3.24018 10.5 3.36741 10.5 3.5V5.5ZM15.5 3.5C15.5 3.22389 15.7239 3 16 3H18C18.1326 3 18.2598 3.05268 18.3536 3.14643C18.4473 3.24018 18.5 3.36741 18.5 3.5V5.5C18.5 5.63259 18.4473 5.75982 18.3536 5.85357C18.2598 5.94732 18.1326 6 18 6H16C15.7239 6 15.5 5.77611 15.5 5.5V3.5ZM15.5 7.5C15.5 7.22389 15.7239 7 16 7H18C18.1326 7 18.2598 7.05268 18.3536 7.14643C18.4473 7.24018 18.5 7.36741 18.5 7.5V9.5C18.5 9.63259 18.4473 9.75982 18.3536 9.85357C18.2598 9.94732 18.1326 10 18 10H16C15.7239 10 15.5 9.77611 15.5 9.5V7.5ZM15.5 11.5C15.5 11.2239 15.7239 11 16 11H18C18.1326 11 18.2598 11.0527 18.3536 11.1464C18.4473 11.2402 18.5 11.3674 18.5 11.5V13.5C18.5 13.6326 18.4473 13.7598 18.3536 13.8536C18.2598 13.9473 18.1326 14 18 14H16C15.7239 14 15.5 13.7761 15.5 13.5V11.5ZM15.5 15.5C15.5 15.2239 15.7239 15 16 15H18C18.1326 15 18.2598 15.0527 18.3536 15.1464C18.4473 15.2402 18.5 15.3674 18.5 15.5V17.5C18.5 17.6326 18.4473 17.7598 18.3536 17.8536C18.2598 17.9473 18.1326 18 18 18H16C15.7239 18 15.5 17.7761 15.5 17.5V15.5ZM14.5 21.5C14.5 21.6326 14.4473 21.7598 14.3536 21.8536C14.2598 21.9473 14.1326 22 14 22H12C11.7239 22 11.5 21.7761 11.5 21.5V19.5C11.5 19.2239 11.7239 19 12 19H14C14.1326 19 14.2598 19.0527 14.3536 19.1464C14.4473 19.2402 14.5 19.3674 14.5 19.5V21.5ZM14.5 17.5C14.5 17.6326 14.4473 17.7598 14.3536 17.8536C14.2598 17.9473 14.1326 18 14 18H12C11.7239 18 11.5 17.7761 11.5 17.5V15.5C11.5 15.2239 11.7239 15 12 15H14C14.1326 15 14.2598 15.0527 14.3536 15.1464C14.4473 15.2402 14.5 15.3674 14.5 15.5V17.5ZM14.5 13.5C14.5 13.6326 14.4473 13.7598 14.3536 13.8536C14.2598 13.9473 14.1326 14 14 14H12C11.7239 14 11.5 13.7761 11.5 13.5V11.5C11.5 11.2239 11.7239 11 12 11H14C14.1326 11 14.2598 11.0527 14.3536 11.1464C14.4473 11.2402 14.5 11.3674 14.5 11.5V13.5ZM14.5 9.5C14.5 9.63259 14.4473 9.75982 14.3536 9.85357C14.2598 9.94732 14.1326 10 14 10H12C11.7239 10 11.5 9.77611 11.5 9.5V7.5C11.5 7.22389 11.7239 7 12 7H14C14.1326 7 14.2598 7.05268 14.3536 7.14643C14.4473 7.24018 14.5 7.36741 14.5 7.5V9.5ZM14.5 5.5C14.5 5.63259 14.4473 5.75982 14.3536 5.85357C14.2598 5.94732 14.1326 6 14 6H12C11.7239 6 11.5 5.77611 11.5 5.5V3.5C11.5 3.22389 11.7239 3 12 3H14C14.1326 3 14.2598 3.05268 14.3536 3.14643C14.4473 3.24018 14.5 3.36741 14.5 3.5V5.5ZM18 22H16C15.7239 22 15.5 21.7761 15.5 21.5V19.5C15.5 19.2239 15.7239 19 16 19H18C18.1326 19 18.2598 19.0527 18.3536 19.1464C18.4473 19.2402 18.5 19.3674 18.5 19.5V21.5C18.5 21.6326 18.4473 21.7598 18.3536 21.8536C18.2598 21.9473 18.1326 22 18 22Z" fill="#0155B3"/>
<path d="M12.5 8H13.5V9H12.5V8Z" fill="#0155B3"/>
<path d="M12.5 16H13.5V17H12.5V16Z" fill="#0155B3"/>
<path d="M12.5 12H13.5V13H12.5V12Z" fill="#0155B3"/>
<path d="M22 27H18.5V28H25V27H22Z" fill="#0155B3"/>
<path d="M20.5 24H21.5V26H20.5V24Z" fill="#0155B3"/>
<path d="M12.5 4H13.5V5.00001H12.5V4Z" fill="#0155B3"/>
<path d="M16.5 16H17.5V17H16.5V16Z" fill="#0155B3"/>
<path d="M12.5 20H13.5V21H12.5V20Z" fill="#0155B3"/>
<path d="M3.05015 22C3.08675 21.7915 3.07805 21.5779 3.02515 21.373C2.93809 20.9897 2.66131 20.6774 2.29121 20.5451C1.93965 20.4652 1.57109 20.5594 1.30104 20.7982C1.03098 21.0371 0.892337 21.3913 0.928719 21.75C0.928719 21.8129 0.93296 21.8757 0.941219 21.9379C1.02805 22.3928 0.963318 22.8636 0.75662 23.2779C0.517558 23.6989 0.441222 24.1928 0.541667 24.6665C0.590551 24.9607 0.719346 25.2359 0.91354 25.4623C1.10796 25.6886 1.36063 25.8571 1.64411 25.95C2.62713 26.2161 3.5001 25.35 3.5001 24.25C3.50211 23.9176 3.41774 23.5902 3.25568 23.3C3.03939 22.9033 2.96685 22.444 3.0501 22H3.05015Z" fill="#0155B3"/>
<path d="M1.5 27H2.49999V29H1.5V27Z" fill="#0155B3"/>
<path d="M29.0502 22C29.0868 21.7915 29.0781 21.5779 29.0252 21.373C28.9388 20.9893 28.6622 20.6765 28.2921 20.5435C27.9406 20.4636 27.572 20.5578 27.302 20.7966C27.0319 21.0355 26.8933 21.3897 26.9297 21.7484C26.9299 21.8113 26.9339 21.8741 26.9422 21.9366C27.0292 22.3913 26.9643 22.862 26.7578 23.2765C26.5187 23.6975 26.4422 24.1915 26.5426 24.6649C26.591 24.9593 26.7192 25.2348 26.9131 25.4614C27.1071 25.6879 27.3593 25.8571 27.6426 25.9504C28.6272 26.2161 29.5002 25.35 29.5002 24.25C29.5022 23.9176 29.4179 23.5901 29.2558 23.3C29.0395 22.9033 28.967 22.444 29.0502 22L29.0502 22Z" fill="#0155B3"/>
<path d="M27.5 27H28.5V29H27.5V27Z" fill="#0155B3"/>
</svg>
