<svg width="20" height="18" viewBox="0 0 20 18" fill="none" xmlns="http://www.w3.org/2000/svg">
<path d="M1.41715 0C0.645308 0 0 0.832092 0 1.86065V15.5046C0 16.5329 0.645308 17.3652 1.41715 17.3652H18.5828C19.3547 17.3652 20 16.5331 20 15.5046V1.86065C20 0.832369 19.3547 0 18.5828 0H1.41715ZM1.65691 1.24025H18.343L10.4069 10.698C10.209 10.9337 9.7908 10.9337 9.59287 10.698L1.65724 1.24025H1.65691ZM0.930332 2.03474L6.73681 8.95361L0.930332 15.3686V2.03474ZM19.0699 2.03474V15.3686L13.263 8.95361L19.0695 2.03474H19.0699ZM7.44196 9.79695L8.97543 11.6186C9.55699 12.3117 10.4434 12.3117 11.0249 11.6186L12.5584 9.79695L18.2922 16.1244H1.70791L7.44171 9.79695H7.44196Z" fill="#323232"/>
</svg>
