<svg width="20" height="20" viewBox="0 0 20 20" fill="none" xmlns="http://www.w3.org/2000/svg">
<g opacity="0.7">
<path d="M10 10.8039C11.3314 10.8039 12.4107 9.72454 12.4107 8.39314C12.4107 7.06174 11.3314 5.98242 10 5.98242C8.6686 5.98242 7.58928 7.06174 7.58928 8.39314C7.58928 9.72454 8.6686 10.8039 10 10.8039Z" stroke="white" stroke-linecap="round" stroke-linejoin="round"/>
<path d="M10 1.96436C8.29503 1.96436 6.6599 2.64165 5.45431 3.84724C4.24872 5.05283 3.57143 6.68796 3.57143 8.39293C3.57143 9.91328 3.89446 10.9081 4.77678 12.009L10 18.0358L15.2232 12.009C16.1055 10.9081 16.4286 9.91328 16.4286 8.39293C16.4286 6.68796 15.7513 5.05283 14.5457 3.84724C13.3401 2.64165 11.705 1.96436 10 1.96436V1.96436Z" stroke="white" stroke-linecap="round" stroke-linejoin="round"/>
</g>
</svg>
