<svg width="65" height="84" viewBox="0 0 65 84" fill="none" xmlns="http://www.w3.org/2000/svg">
<path d="M8.85805 68.04C8.50805 68.04 8.19138 67.9633 7.90805 67.81C7.62805 67.6533 7.40805 67.44 7.24805 67.17C7.08805 66.8967 7.00805 66.59 7.00805 66.25C7.00805 65.91 7.08805 65.605 7.24805 65.335C7.40805 65.0617 7.62971 64.8483 7.91305 64.695C8.19638 64.5383 8.51305 64.46 8.86305 64.46C9.13638 64.46 9.38638 64.5067 9.61305 64.6C9.83971 64.69 10.033 64.825 10.193 65.005L9.86805 65.32C9.60471 65.0433 9.27638 64.905 8.88305 64.905C8.62305 64.905 8.38805 64.9633 8.17805 65.08C7.96805 65.1967 7.80305 65.3583 7.68305 65.565C7.56638 65.7683 7.50805 65.9967 7.50805 66.25C7.50805 66.5033 7.56638 66.7333 7.68305 66.94C7.80305 67.1433 7.96805 67.3033 8.17805 67.42C8.38805 67.5367 8.62305 67.595 8.88305 67.595C9.27305 67.595 9.60138 67.455 9.86805 67.175L10.193 67.49C10.033 67.67 9.83805 67.8067 9.60805 67.9C9.38138 67.9933 9.13138 68.04 8.85805 68.04ZM12.3837 68.04C12.0303 68.04 11.712 67.9633 11.4287 67.81C11.1453 67.6533 10.922 67.4383 10.7587 67.165C10.5987 66.8917 10.5187 66.5867 10.5187 66.25C10.5187 65.9133 10.5987 65.6083 10.7587 65.335C10.922 65.0617 11.1453 64.8483 11.4287 64.695C11.712 64.5383 12.0303 64.46 12.3837 64.46C12.7337 64.46 13.0503 64.5383 13.3337 64.695C13.617 64.8483 13.8387 65.0617 13.9987 65.335C14.1587 65.605 14.2387 65.91 14.2387 66.25C14.2387 66.59 14.1587 66.8967 13.9987 67.17C13.8387 67.44 13.617 67.6533 13.3337 67.81C13.0503 67.9633 12.7337 68.04 12.3837 68.04ZM12.3837 67.595C12.6403 67.595 12.8703 67.5367 13.0737 67.42C13.2803 67.3033 13.442 67.1433 13.5587 66.94C13.6787 66.7333 13.7387 66.5033 13.7387 66.25C13.7387 65.9967 13.6787 65.7683 13.5587 65.565C13.442 65.3583 13.2803 65.1967 13.0737 65.08C12.8703 64.9633 12.6403 64.905 12.3837 64.905C12.127 64.905 11.8937 64.9633 11.6837 65.08C11.477 65.1967 11.3137 65.3583 11.1937 65.565C11.077 65.7683 11.0187 65.9967 11.0187 66.25C11.0187 66.5033 11.077 66.7333 11.1937 66.94C11.3137 67.1433 11.477 67.3033 11.6837 67.42C11.8937 67.5367 12.127 67.595 12.3837 67.595ZM18.062 64.5V68H17.572V64.935H15.542V68H15.047V64.5H18.062ZM20.5184 64.5C20.9717 64.5 21.3284 64.6083 21.5884 64.825C21.8484 65.0417 21.9784 65.34 21.9784 65.72C21.9784 66.1 21.8484 66.3983 21.5884 66.615C21.3284 66.8317 20.9717 66.94 20.5184 66.94H19.6534V68H19.1534V64.5H20.5184ZM20.5034 66.505C20.8201 66.505 21.0617 66.4383 21.2284 66.305C21.3951 66.1683 21.4784 65.9733 21.4784 65.72C21.4784 65.4667 21.3951 65.2733 21.2284 65.14C21.0617 65.0033 20.8201 64.935 20.5034 64.935H19.6534V66.505H20.5034ZM24.2977 68.04C23.9444 68.04 23.6261 67.9633 23.3427 67.81C23.0594 67.6533 22.8361 67.4383 22.6727 67.165C22.5127 66.8917 22.4327 66.5867 22.4327 66.25C22.4327 65.9133 22.5127 65.6083 22.6727 65.335C22.8361 65.0617 23.0594 64.8483 23.3427 64.695C23.6261 64.5383 23.9444 64.46 24.2977 64.46C24.6477 64.46 24.9644 64.5383 25.2477 64.695C25.5311 64.8483 25.7527 65.0617 25.9127 65.335C26.0727 65.605 26.1527 65.91 26.1527 66.25C26.1527 66.59 26.0727 66.8967 25.9127 67.17C25.7527 67.44 25.5311 67.6533 25.2477 67.81C24.9644 67.9633 24.6477 68.04 24.2977 68.04ZM24.2977 67.595C24.5544 67.595 24.7844 67.5367 24.9877 67.42C25.1944 67.3033 25.3561 67.1433 25.4727 66.94C25.5927 66.7333 25.6527 66.5033 25.6527 66.25C25.6527 65.9967 25.5927 65.7683 25.4727 65.565C25.3561 65.3583 25.1944 65.1967 24.9877 65.08C24.7844 64.9633 24.5544 64.905 24.2977 64.905C24.0411 64.905 23.8077 64.9633 23.5977 65.08C23.3911 65.1967 23.2277 65.3583 23.1077 65.565C22.9911 65.7683 22.9327 65.9967 22.9327 66.25C22.9327 66.5033 22.9911 66.7333 23.1077 66.94C23.2277 67.1433 23.3911 67.3033 23.5977 67.42C23.8077 67.5367 24.0411 67.595 24.2977 67.595ZM29.141 66.185C29.3777 66.2417 29.556 66.3433 29.676 66.49C29.7993 66.6333 29.861 66.8183 29.861 67.045C29.861 67.3483 29.7493 67.5833 29.526 67.75C29.306 67.9167 28.9843 68 28.561 68H26.961V64.5H28.466C28.8493 64.5 29.1477 64.5783 29.361 64.735C29.5777 64.8883 29.686 65.11 29.686 65.4C29.686 65.59 29.6377 65.7517 29.541 65.885C29.4477 66.0183 29.3143 66.1183 29.141 66.185ZM27.456 66.04H28.431C28.6743 66.04 28.8593 65.9917 28.986 65.895C29.116 65.7983 29.181 65.6567 29.181 65.47C29.181 65.2833 29.116 65.1417 28.986 65.045C28.856 64.945 28.671 64.895 28.431 64.895H27.456V66.04ZM28.551 67.605C29.0877 67.605 29.356 67.405 29.356 67.005C29.356 66.805 29.2877 66.6583 29.151 66.565C29.0177 66.4683 28.8177 66.42 28.551 66.42H27.456V67.605H28.551ZM32.2714 68.04C31.918 68.04 31.5997 67.9633 31.3164 67.81C31.033 67.6533 30.8097 67.4383 30.6464 67.165C30.4864 66.8917 30.4064 66.5867 30.4064 66.25C30.4064 65.9133 30.4864 65.6083 30.6464 65.335C30.8097 65.0617 31.033 64.8483 31.3164 64.695C31.5997 64.5383 31.918 64.46 32.2714 64.46C32.6214 64.46 32.938 64.5383 33.2214 64.695C33.5047 64.8483 33.7264 65.0617 33.8864 65.335C34.0464 65.605 34.1264 65.91 34.1264 66.25C34.1264 66.59 34.0464 66.8967 33.8864 67.17C33.7264 67.44 33.5047 67.6533 33.2214 67.81C32.938 67.9633 32.6214 68.04 32.2714 68.04ZM32.2714 67.595C32.528 67.595 32.758 67.5367 32.9614 67.42C33.168 67.3033 33.3297 67.1433 33.4464 66.94C33.5664 66.7333 33.6264 66.5033 33.6264 66.25C33.6264 65.9967 33.5664 65.7683 33.4464 65.565C33.3297 65.3583 33.168 65.1967 32.9614 65.08C32.758 64.9633 32.528 64.905 32.2714 64.905C32.0147 64.905 31.7814 64.9633 31.5714 65.08C31.3647 65.1967 31.2014 65.3583 31.0814 65.565C30.9647 65.7683 30.9064 65.9967 30.9064 66.25C30.9064 66.5033 30.9647 66.7333 31.0814 66.94C31.2014 67.1433 31.3647 67.3033 31.5714 67.42C31.7814 67.5367 32.0147 67.595 32.2714 67.595ZM37.7477 66.46H37.0827V68H36.5927V66.46H35.9227L34.9427 68H34.3577L35.5127 66.18L34.4427 64.5H34.9777L35.9127 66.02H36.5927V64.5H37.0827V66.02H37.7527L38.6927 64.5H39.2277L38.1577 66.19L39.3127 68H38.7277L37.7477 66.46ZM43.2452 67.565V68.765H42.7802V68H39.9002L39.8952 68.765H39.4302L39.4352 67.565H39.6052C39.8252 67.5517 39.9802 67.3783 40.0702 67.045C40.1602 66.7083 40.2152 66.235 40.2352 65.625L40.2702 64.5H42.7302V67.565H43.2452ZM40.6752 65.67C40.6586 66.1633 40.6186 66.5717 40.5552 66.895C40.4952 67.2183 40.3969 67.4417 40.2602 67.565H42.2352V64.935H40.7002L40.6752 65.67ZM46.4688 67.565V68H43.9288V64.5H46.3988V64.935H44.4288V66.01H46.1838V66.435H44.4288V67.565H46.4688ZM50.264 64.5V68H49.764V66.44H47.754V68H47.254V64.5H47.754V66.005H49.764V64.5H50.264ZM51.3555 64.5H51.8505V67.2L53.9205 64.5H54.3805V68H53.8905V65.305L51.8155 68H51.3555V64.5ZM58.0118 67.565V68H55.4718V64.5H57.9418V64.935H55.9718V66.01H57.7268V66.435H55.9718V67.565H58.0118ZM5.83064 70.5H6.32564V73.2L8.39564 70.5H8.85564V74H8.36564V71.305L6.29064 74H5.83064V70.5ZM11.5119 74.04C11.1619 74.04 10.8452 73.9633 10.5619 73.81C10.2819 73.6533 10.0619 73.44 9.90186 73.17C9.74186 72.8967 9.66186 72.59 9.66186 72.25C9.66186 71.91 9.74186 71.605 9.90186 71.335C10.0619 71.0617 10.2835 70.8483 10.5669 70.695C10.8502 70.5383 11.1669 70.46 11.5169 70.46C11.7902 70.46 12.0402 70.5067 12.2669 70.6C12.4935 70.69 12.6869 70.825 12.8469 71.005L12.5219 71.32C12.2585 71.0433 11.9302 70.905 11.5369 70.905C11.2769 70.905 11.0419 70.9633 10.8319 71.08C10.6219 71.1967 10.4569 71.3583 10.3369 71.565C10.2202 71.7683 10.1619 71.9967 10.1619 72.25C10.1619 72.5033 10.2202 72.7333 10.3369 72.94C10.4569 73.1433 10.6219 73.3033 10.8319 73.42C11.0419 73.5367 11.2769 73.595 11.5369 73.595C11.9269 73.595 12.2552 73.455 12.5219 73.175L12.8469 73.49C12.6869 73.67 12.4919 73.8067 12.2619 73.9C12.0352 73.9933 11.7852 74.04 11.5119 74.04ZM16.5507 70.5V74H16.0607V70.935H14.0307V74H13.5357V70.5H16.5507ZM19.2172 74.04C18.8638 74.04 18.5455 73.9633 18.2622 73.81C17.9788 73.6533 17.7555 73.4383 17.5922 73.165C17.4322 72.8917 17.3522 72.5867 17.3522 72.25C17.3522 71.9133 17.4322 71.6083 17.5922 71.335C17.7555 71.0617 17.9788 70.8483 18.2622 70.695C18.5455 70.5383 18.8638 70.46 19.2172 70.46C19.5672 70.46 19.8838 70.5383 20.1672 70.695C20.4505 70.8483 20.6722 71.0617 20.8322 71.335C20.9922 71.605 21.0722 71.91 21.0722 72.25C21.0722 72.59 20.9922 72.8967 20.8322 73.17C20.6722 73.44 20.4505 73.6533 20.1672 73.81C19.8838 73.9633 19.5672 74.04 19.2172 74.04ZM19.2172 73.595C19.4738 73.595 19.7038 73.5367 19.9072 73.42C20.1138 73.3033 20.2755 73.1433 20.3922 72.94C20.5122 72.7333 20.5722 72.5033 20.5722 72.25C20.5722 71.9967 20.5122 71.7683 20.3922 71.565C20.2755 71.3583 20.1138 71.1967 19.9072 71.08C19.7038 70.9633 19.4738 70.905 19.2172 70.905C18.9605 70.905 18.7272 70.9633 18.5172 71.08C18.3105 71.1967 18.1472 71.3583 18.0272 71.565C17.9105 71.7683 17.8522 71.9967 17.8522 72.25C17.8522 72.5033 17.9105 72.7333 18.0272 72.94C18.1472 73.1433 18.3105 73.3033 18.5172 73.42C18.7272 73.5367 18.9605 73.595 19.2172 73.595ZM24.6428 70.5V74H24.1528V70.935H22.6028L22.5678 71.96C22.5511 72.4433 22.5111 72.835 22.4478 73.135C22.3878 73.435 22.2911 73.6617 22.1578 73.815C22.0245 73.965 21.8445 74.04 21.6178 74.04C21.5145 74.04 21.4095 74.0267 21.3028 74L21.3378 73.555C21.3911 73.5683 21.4445 73.575 21.4978 73.575C21.6411 73.575 21.7561 73.5183 21.8428 73.405C21.9295 73.2883 21.9945 73.115 22.0378 72.885C22.0811 72.655 22.1095 72.3517 22.1228 71.975L22.1778 70.5H24.6428ZM28.743 70.5V74H28.243V72.44H26.233V74H25.733V70.5H26.233V72.005H28.243V70.5H28.743ZM29.8346 70.5H30.3296V73.2L32.3996 70.5H32.8596V74H32.3696V71.305L30.2946 74H29.8346V70.5ZM36.3558 70.935H35.1558V74H34.6658V70.935H33.4708V70.5H36.3558V70.935ZM39.5035 73.565V74H36.9635V70.5H39.4335V70.935H37.4635V72.01H39.2185V72.435H37.4635V73.565H39.5035ZM43.1487 70.5V74H42.6587V70.935H41.1087L41.0737 71.96C41.057 72.4433 41.017 72.835 40.9537 73.135C40.8937 73.435 40.797 73.6617 40.6637 73.815C40.5303 73.965 40.3503 74.04 40.1237 74.04C40.0203 74.04 39.9153 74.0267 39.8087 74L39.8437 73.555C39.897 73.5683 39.9503 73.575 40.0037 73.575C40.147 73.575 40.262 73.5183 40.3487 73.405C40.4353 73.2883 40.5003 73.115 40.5437 72.885C40.587 72.655 40.6153 72.3517 40.6287 71.975L40.6837 70.5H43.1487ZM45.7738 71.72C46.1905 71.72 46.5088 71.8133 46.7288 72C46.9522 72.1867 47.0638 72.4617 47.0638 72.825C47.0638 73.2083 46.9438 73.5 46.7038 73.7C46.4672 73.9 46.1272 74 45.6838 74H44.2388V70.5H44.7338V71.72H45.7738ZM45.6638 73.605C45.9538 73.605 46.1755 73.54 46.3288 73.41C46.4855 73.2767 46.5638 73.085 46.5638 72.835C46.5638 72.355 46.2638 72.115 45.6638 72.115H44.7338V73.605H45.6638ZM50.8133 70.5V74H50.3133V72.44H48.3033V74H47.8033V70.5H48.3033V72.005H50.3133V70.5H50.8133ZM53.4799 74.04C53.1265 74.04 52.8082 73.9633 52.5249 73.81C52.2415 73.6533 52.0182 73.4383 51.8549 73.165C51.6949 72.8917 51.6149 72.5867 51.6149 72.25C51.6149 71.9133 51.6949 71.6083 51.8549 71.335C52.0182 71.0617 52.2415 70.8483 52.5249 70.695C52.8082 70.5383 53.1265 70.46 53.4799 70.46C53.8299 70.46 54.1465 70.5383 54.4299 70.695C54.7132 70.8483 54.9349 71.0617 55.0949 71.335C55.2549 71.605 55.3349 71.91 55.3349 72.25C55.3349 72.59 55.2549 72.8967 55.0949 73.17C54.9349 73.44 54.7132 73.6533 54.4299 73.81C54.1465 73.9633 53.8299 74.04 53.4799 74.04ZM53.4799 73.595C53.7365 73.595 53.9665 73.5367 54.1699 73.42C54.3765 73.3033 54.5382 73.1433 54.6549 72.94C54.7749 72.7333 54.8349 72.5033 54.8349 72.25C54.8349 71.9967 54.7749 71.7683 54.6549 71.565C54.5382 71.3583 54.3765 71.1967 54.1699 71.08C53.9665 70.9633 53.7365 70.905 53.4799 70.905C53.2232 70.905 52.9899 70.9633 52.7799 71.08C52.5732 71.1967 52.4099 71.3583 52.2899 71.565C52.1732 71.7683 52.1149 71.9967 52.1149 72.25C52.1149 72.5033 52.1732 72.7333 52.2899 72.94C52.4099 73.1433 52.5732 73.3033 52.7799 73.42C52.9899 73.5367 53.2232 73.595 53.4799 73.595ZM56.1431 70.5H56.6381V73.2L58.7081 70.5H59.1681V74H58.6781V71.305L56.6031 74H56.1431V70.5ZM57.6481 70.255C57.3748 70.255 57.1631 70.1967 57.0131 70.08C56.8665 69.96 56.7915 69.79 56.7881 69.57H57.1431C57.1465 69.7 57.1915 69.8017 57.2781 69.875C57.3681 69.945 57.4915 69.98 57.6481 69.98C57.7981 69.98 57.9181 69.945 58.0081 69.875C58.1015 69.8017 58.1498 69.7 58.1531 69.57H58.5031C58.4998 69.7867 58.4231 69.955 58.2731 70.075C58.1265 70.195 57.9181 70.255 57.6481 70.255ZM13.2062 79.565V80.765H12.7412V80H9.86117L9.85617 80.765H9.39117L9.39617 79.565H9.56617C9.78617 79.5517 9.94117 79.3783 10.0312 79.045C10.1212 78.7083 10.1762 78.235 10.1962 77.625L10.2312 76.5H12.6912V79.565H13.2062ZM10.6362 77.67C10.6195 78.1633 10.5795 78.5717 10.5162 78.895C10.4562 79.2183 10.3578 79.4417 10.2212 79.565H12.1962V76.935H10.6612L10.6362 77.67ZM15.4647 80.04C15.1114 80.04 14.7931 79.9633 14.5097 79.81C14.2264 79.6533 14.0031 79.4383 13.8397 79.165C13.6797 78.8917 13.5997 78.5867 13.5997 78.25C13.5997 77.9133 13.6797 77.6083 13.8397 77.335C14.0031 77.0617 14.2264 76.8483 14.5097 76.695C14.7931 76.5383 15.1114 76.46 15.4647 76.46C15.8147 76.46 16.1314 76.5383 16.4147 76.695C16.6981 76.8483 16.9197 77.0617 17.0797 77.335C17.2397 77.605 17.3197 77.91 17.3197 78.25C17.3197 78.59 17.2397 78.8967 17.0797 79.17C16.9197 79.44 16.6981 79.6533 16.4147 79.81C16.1314 79.9633 15.8147 80.04 15.4647 80.04ZM15.4647 79.595C15.7214 79.595 15.9514 79.5367 16.1547 79.42C16.3614 79.3033 16.5231 79.1433 16.6397 78.94C16.7597 78.7333 16.8197 78.5033 16.8197 78.25C16.8197 77.9967 16.7597 77.7683 16.6397 77.565C16.5231 77.3583 16.3614 77.1967 16.1547 77.08C15.9514 76.9633 15.7214 76.905 15.4647 76.905C15.2081 76.905 14.9747 76.9633 14.7647 77.08C14.5581 77.1967 14.3947 77.3583 14.2747 77.565C14.1581 77.7683 14.0997 77.9967 14.0997 78.25C14.0997 78.5033 14.1581 78.7333 14.2747 78.94C14.3947 79.1433 14.5581 79.3033 14.7647 79.42C14.9747 79.5367 15.2081 79.595 15.4647 79.595ZM19.348 78.46H18.618V80H18.128V76.5H18.618V78.02H19.358L20.458 76.5H20.993L19.743 78.195L21.053 80H20.483L19.348 78.46ZM24.4549 76.5L22.8999 79.385C22.7766 79.615 22.6316 79.7867 22.4649 79.9C22.2983 80.0133 22.1166 80.07 21.9199 80.07C21.7666 80.07 21.6099 80.035 21.4499 79.965L21.5799 79.565C21.7033 79.6083 21.8133 79.63 21.9099 79.63C22.1299 79.63 22.3116 79.5133 22.4549 79.28L22.5349 79.155L21.1249 76.5H21.6599L22.7949 78.72L23.9599 76.5H24.4549ZM28.2187 80L28.2137 77.45L26.9487 79.575H26.7187L25.4537 77.465V80H24.9737V76.5H25.3837L26.8437 78.96L28.2837 76.5H28.6937L28.6987 80H28.2187ZM32.3282 79.565V80H29.7882V76.5H32.2582V76.935H30.2882V78.01H32.0432V78.435H30.2882V79.565H32.3282ZM36.1234 76.5V80H35.6234V78.44H33.6134V80H33.1134V76.5H33.6134V78.005H35.6234V76.5H36.1234ZM39.6199 76.935H38.4199V80H37.9299V76.935H36.7349V76.5H39.6199V76.935ZM42.3268 79.125H40.4668L40.0818 80H39.5668L41.1518 76.5H41.6468L43.2368 80H42.7118L42.3268 79.125ZM42.1518 78.725L41.3968 77.01L40.6418 78.725H42.1518ZM47.3209 79.565V80.795H46.8559V80H43.8409V76.5H44.3359V79.565H46.2859V76.5H46.7809V79.565H47.3209ZM47.9864 76.5H48.4814V79.2L50.5514 76.5H51.0114V80H50.5214V77.305L48.4464 80H47.9864V76.5ZM52.1026 76.5H52.5976V79.2L54.6676 76.5H55.1276V80H54.6376V77.305L52.5626 80H52.1026V76.5Z" fill="black"/>
<rect y="16" width="40" height="40" fill="#14213D"/>
<path d="M65 57.5C65 54.5453 64.418 51.6194 63.2873 48.8896C62.1566 46.1598 60.4992 43.6794 58.4099 41.5901C56.3206 39.5008 53.8402 37.8434 51.1104 36.7127C48.3806 35.582 45.4547 35 42.5 35C39.5453 35 36.6194 35.582 33.8896 36.7127C31.1598 37.8434 28.6794 39.5008 26.5901 41.5901C24.5008 43.6794 22.8434 46.1598 21.7127 48.8896C20.582 51.6194 20 54.5453 20 57.5L42.5 57.5H65Z" fill="#FCA311"/>
<path d="M57 57C57 53.287 55.525 49.726 52.8995 47.1005C50.274 44.475 46.713 43 43 43C39.287 43 35.726 44.475 33.1005 47.1005C30.475 49.726 29 53.287 29 57L43 57H57Z" fill="#C4C4C4"/>
<path d="M20 13.5C20 19.4674 22.3705 25.1903 26.5901 29.4099C30.8097 33.6295 36.5326 36 42.5 36C48.4674 36 54.1903 33.6295 58.4099 29.4099C62.6295 25.1903 65 19.4674 65 13.5L42.5 13.5L20 13.5Z" fill="#FCA311"/>
<path d="M28 21C28 22.9698 28.388 24.9204 29.1418 26.7403C29.8956 28.5601 31.0005 30.2137 32.3934 31.6066C33.7863 32.9995 35.4399 34.1044 37.2597 34.8582C39.0796 35.612 41.0302 36 43 36C44.9698 36 46.9204 35.612 48.7403 34.8582C50.5601 34.1044 52.2137 32.9995 53.6066 31.6066C54.9995 30.2137 56.1044 28.5601 56.8582 26.7403C57.612 24.9204 58 22.9698 58 21L43 21L28 21Z" fill="#59616D"/>
</svg>
