<svg width="184" height="81" viewBox="0 0 184 81" fill="none" xmlns="http://www.w3.org/2000/svg">
<path d="M6.68875 61.83C5.98875 61.83 5.35542 61.6767 4.78875 61.37C4.22875 61.0567 3.78875 60.63 3.46875 60.09C3.14875 59.5433 2.98875 58.93 2.98875 58.25C2.98875 57.57 3.14875 56.96 3.46875 56.42C3.78875 55.8733 4.23208 55.4467 4.79875 55.14C5.36542 54.8267 5.99875 54.67 6.69875 54.67C7.24542 54.67 7.74542 54.7633 8.19875 54.95C8.65208 55.13 9.03875 55.4 9.35875 55.76L8.70875 56.39C8.18208 55.8367 7.52542 55.56 6.73875 55.56C6.21875 55.56 5.74875 55.6767 5.32875 55.91C4.90875 56.1433 4.57875 56.4667 4.33875 56.88C4.10542 57.2867 3.98875 57.7433 3.98875 58.25C3.98875 58.7567 4.10542 59.2167 4.33875 59.63C4.57875 60.0367 4.90875 60.3567 5.32875 60.59C5.74875 60.8233 6.21875 60.94 6.73875 60.94C7.51875 60.94 8.17542 60.66 8.70875 60.1L9.35875 60.73C9.03875 61.09 8.64875 61.3633 8.18875 61.55C7.73542 61.7367 7.23542 61.83 6.68875 61.83ZM12.6219 61.81C12.0952 61.81 11.6219 61.6933 11.2019 61.46C10.7819 61.2267 10.4519 60.9067 10.2119 60.5C9.97854 60.0867 9.86188 59.62 9.86188 59.1C9.86188 58.58 9.97854 58.1167 10.2119 57.71C10.4519 57.2967 10.7819 56.9767 11.2019 56.75C11.6219 56.5167 12.0952 56.4 12.6219 56.4C13.1485 56.4 13.6185 56.5167 14.0319 56.75C14.4519 56.9767 14.7785 57.2967 15.0119 57.71C15.2519 58.1167 15.3719 58.58 15.3719 59.1C15.3719 59.62 15.2519 60.0867 15.0119 60.5C14.7785 60.9067 14.4519 61.2267 14.0319 61.46C13.6185 61.6933 13.1485 61.81 12.6219 61.81ZM12.6219 60.97C12.9619 60.97 13.2652 60.8933 13.5319 60.74C13.8052 60.58 14.0185 60.36 14.1719 60.08C14.3252 59.7933 14.4019 59.4667 14.4019 59.1C14.4019 58.7333 14.3252 58.41 14.1719 58.13C14.0185 57.8433 13.8052 57.6233 13.5319 57.47C13.2652 57.3167 12.9619 57.24 12.6219 57.24C12.2819 57.24 11.9752 57.3167 11.7019 57.47C11.4352 57.6233 11.2219 57.8433 11.0619 58.13C10.9085 58.41 10.8319 58.7333 10.8319 59.1C10.8319 59.4667 10.9085 59.7933 11.0619 60.08C11.2219 60.36 11.4352 60.58 11.7019 60.74C11.9752 60.8933 12.2819 60.97 12.6219 60.97ZM21.6681 56.45V61.75H20.7081V57.29H17.7181V61.75H16.7581V56.45H21.6681ZM26.3357 56.4C26.849 56.4 27.309 56.5133 27.7157 56.74C28.1224 56.9667 28.439 57.2833 28.6657 57.69C28.899 58.0967 29.0157 58.5667 29.0157 59.1C29.0157 59.6333 28.899 60.1067 28.6657 60.52C28.439 60.9267 28.1224 61.2433 27.7157 61.47C27.309 61.6967 26.849 61.81 26.3357 61.81C25.9557 61.81 25.6057 61.7367 25.2857 61.59C24.9724 61.4433 24.7057 61.23 24.4857 60.95V63.69H23.5257V56.45H24.4457V57.29C24.659 56.9967 24.929 56.7767 25.2557 56.63C25.5824 56.4767 25.9424 56.4 26.3357 56.4ZM26.2557 60.97C26.5957 60.97 26.899 60.8933 27.1657 60.74C27.439 60.58 27.6524 60.36 27.8057 60.08C27.9657 59.7933 28.0457 59.4667 28.0457 59.1C28.0457 58.7333 27.9657 58.41 27.8057 58.13C27.6524 57.8433 27.439 57.6233 27.1657 57.47C26.899 57.3167 26.5957 57.24 26.2557 57.24C25.9224 57.24 25.619 57.32 25.3457 57.48C25.079 57.6333 24.8657 57.85 24.7057 58.13C24.5524 58.41 24.4757 58.7333 24.4757 59.1C24.4757 59.4667 24.5524 59.7933 24.7057 60.08C24.859 60.36 25.0724 60.58 25.3457 60.74C25.619 60.8933 25.9224 60.97 26.2557 60.97ZM32.6805 61.81C32.1538 61.81 31.6805 61.6933 31.2605 61.46C30.8405 61.2267 30.5105 60.9067 30.2705 60.5C30.0371 60.0867 29.9205 59.62 29.9205 59.1C29.9205 58.58 30.0371 58.1167 30.2705 57.71C30.5105 57.2967 30.8405 56.9767 31.2605 56.75C31.6805 56.5167 32.1538 56.4 32.6805 56.4C33.2071 56.4 33.6771 56.5167 34.0905 56.75C34.5105 56.9767 34.8371 57.2967 35.0705 57.71C35.3105 58.1167 35.4305 58.58 35.4305 59.1C35.4305 59.62 35.3105 60.0867 35.0705 60.5C34.8371 60.9067 34.5105 61.2267 34.0905 61.46C33.6771 61.6933 33.2071 61.81 32.6805 61.81ZM32.6805 60.97C33.0205 60.97 33.3238 60.8933 33.5905 60.74C33.8638 60.58 34.0771 60.36 34.2305 60.08C34.3838 59.7933 34.4605 59.4667 34.4605 59.1C34.4605 58.7333 34.3838 58.41 34.2305 58.13C34.0771 57.8433 33.8638 57.6233 33.5905 57.47C33.3238 57.3167 33.0205 57.24 32.6805 57.24C32.3405 57.24 32.0338 57.3167 31.7605 57.47C31.4938 57.6233 31.2805 57.8433 31.1205 58.13C30.9671 58.41 30.8905 58.7333 30.8905 59.1C30.8905 59.4667 30.9671 59.7933 31.1205 60.08C31.2805 60.36 31.4938 60.58 31.7605 60.74C32.0338 60.8933 32.3405 60.97 32.6805 60.97ZM40.4267 59C41.1134 59.1733 41.4567 59.6033 41.4567 60.29C41.4567 60.7567 41.2801 61.1167 40.9267 61.37C40.5801 61.6233 40.0601 61.75 39.3667 61.75H36.8167V56.45H39.2767C39.9034 56.45 40.3934 56.57 40.7467 56.81C41.1001 57.0433 41.2767 57.3767 41.2767 57.81C41.2767 58.09 41.2001 58.3333 41.0467 58.54C40.9001 58.74 40.6934 58.8933 40.4267 59ZM37.7567 58.73H39.1967C39.5634 58.73 39.8401 58.6633 40.0267 58.53C40.2201 58.3967 40.3167 58.2033 40.3167 57.95C40.3167 57.4433 39.9434 57.19 39.1967 57.19H37.7567V58.73ZM39.2967 61.01C39.6967 61.01 39.9967 60.9467 40.1967 60.82C40.3967 60.6933 40.4967 60.4967 40.4967 60.23C40.4967 59.9567 40.4034 59.7533 40.2167 59.62C40.0367 59.4867 39.7501 59.42 39.3567 59.42H37.7567V61.01H39.2967ZM45.2293 61.81C44.7026 61.81 44.2293 61.6933 43.8093 61.46C43.3893 61.2267 43.0593 60.9067 42.8193 60.5C42.586 60.0867 42.4693 59.62 42.4693 59.1C42.4693 58.58 42.586 58.1167 42.8193 57.71C43.0593 57.2967 43.3893 56.9767 43.8093 56.75C44.2293 56.5167 44.7026 56.4 45.2293 56.4C45.756 56.4 46.226 56.5167 46.6393 56.75C47.0593 56.9767 47.386 57.2967 47.6193 57.71C47.8593 58.1167 47.9793 58.58 47.9793 59.1C47.9793 59.62 47.8593 60.0867 47.6193 60.5C47.386 60.9067 47.0593 61.2267 46.6393 61.46C46.226 61.6933 45.756 61.81 45.2293 61.81ZM45.2293 60.97C45.5693 60.97 45.8726 60.8933 46.1393 60.74C46.4126 60.58 46.626 60.36 46.7793 60.08C46.9326 59.7933 47.0093 59.4667 47.0093 59.1C47.0093 58.7333 46.9326 58.41 46.7793 58.13C46.626 57.8433 46.4126 57.6233 46.1393 57.47C45.8726 57.3167 45.5693 57.24 45.2293 57.24C44.8893 57.24 44.5826 57.3167 44.3093 57.47C44.0426 57.6233 43.8293 57.8433 43.6693 58.13C43.516 58.41 43.4393 58.7333 43.4393 59.1C43.4393 59.4667 43.516 59.7933 43.6693 60.08C43.8293 60.36 44.0426 60.58 44.3093 60.74C44.5826 60.8933 44.8893 60.97 45.2293 60.97ZM54.0098 59.51H52.9798V61.75H52.0198V59.51H50.9898L49.5298 61.75H48.3898L50.2098 59.01L48.5298 56.45H49.5498L50.9798 58.69H52.0198V56.45H52.9798V58.69H54.0198L55.4498 56.45H56.4798L54.7998 59.02L56.6198 61.75H55.4798L54.0098 59.51ZM63.0661 60.91V62.98H62.1661V61.75H57.7361V62.98H56.8261V60.91H57.1061C57.4461 60.89 57.6794 60.65 57.8061 60.19C57.9328 59.73 58.0194 59.08 58.0661 58.24L58.1461 56.45H62.2561V60.91H63.0661ZM58.9461 58.31C58.9194 58.9767 58.8628 59.53 58.7761 59.97C58.6961 60.4033 58.5461 60.7167 58.3261 60.91H61.2961V57.29H58.9961L58.9461 58.31ZM69.1067 59.13C69.1067 59.2033 69.1001 59.3 69.0867 59.42H64.7867C64.8467 59.8867 65.0501 60.2633 65.3967 60.55C65.7501 60.83 66.1867 60.97 66.7067 60.97C67.3401 60.97 67.8501 60.7567 68.2367 60.33L68.7667 60.95C68.5267 61.23 68.2267 61.4433 67.8667 61.59C67.5134 61.7367 67.1167 61.81 66.6767 61.81C66.1167 61.81 65.6201 61.6967 65.1867 61.47C64.7534 61.2367 64.4167 60.9133 64.1767 60.5C63.9434 60.0867 63.8267 59.62 63.8267 59.1C63.8267 58.5867 63.9401 58.1233 64.1667 57.71C64.4001 57.2967 64.7167 56.9767 65.1167 56.75C65.5234 56.5167 65.9801 56.4 66.4867 56.4C66.9934 56.4 67.4434 56.5167 67.8367 56.75C68.2367 56.9767 68.5467 57.2967 68.7667 57.71C68.9934 58.1233 69.1067 58.5967 69.1067 59.13ZM66.4867 57.21C66.0267 57.21 65.6401 57.35 65.3267 57.63C65.0201 57.91 64.8401 58.2767 64.7867 58.73H68.1867C68.1334 58.2833 67.9501 57.92 67.6367 57.64C67.3301 57.3533 66.9467 57.21 66.4867 57.21ZM70.596 56.45H71.556V58.7H74.576V56.45H75.536V61.75H74.576V59.53H71.556V61.75H70.596V56.45ZM77.4027 56.45H78.3627V60.31L81.6127 56.45H82.4827V61.75H81.5227V57.89L78.2827 61.75H77.4027V56.45ZM89.136 59.13C89.136 59.2033 89.1293 59.3 89.116 59.42H84.816C84.876 59.8867 85.0793 60.2633 85.426 60.55C85.7793 60.83 86.216 60.97 86.736 60.97C87.3693 60.97 87.8793 60.7567 88.266 60.33L88.796 60.95C88.556 61.23 88.256 61.4433 87.896 61.59C87.5427 61.7367 87.146 61.81 86.706 61.81C86.146 61.81 85.6493 61.6967 85.216 61.47C84.7827 61.2367 84.446 60.9133 84.206 60.5C83.9727 60.0867 83.856 59.62 83.856 59.1C83.856 58.5867 83.9693 58.1233 84.196 57.71C84.4293 57.2967 84.746 56.9767 85.146 56.75C85.5527 56.5167 86.0093 56.4 86.516 56.4C87.0227 56.4 87.4727 56.5167 87.866 56.75C88.266 56.9767 88.576 57.2967 88.796 57.71C89.0227 58.1233 89.136 58.5967 89.136 59.13ZM86.516 57.21C86.056 57.21 85.6693 57.35 85.356 57.63C85.0493 57.91 84.8693 58.2767 84.816 58.73H88.216C88.1627 58.2833 87.9793 57.92 87.666 57.64C87.3593 57.3533 86.976 57.21 86.516 57.21ZM93.3109 56.45H94.2709V60.31L97.5209 56.45H98.3909V61.75H97.4309V57.89L94.1909 61.75H93.3109V56.45ZM102.564 61.81C102.024 61.81 101.541 61.6933 101.114 61.46C100.694 61.2267 100.364 60.9067 100.124 60.5C99.8842 60.0867 99.7642 59.62 99.7642 59.1C99.7642 58.58 99.8842 58.1167 100.124 57.71C100.364 57.2967 100.694 56.9767 101.114 56.75C101.541 56.5167 102.024 56.4 102.564 56.4C103.044 56.4 103.471 56.4967 103.844 56.69C104.224 56.8833 104.518 57.1633 104.724 57.53L103.994 58C103.828 57.7467 103.621 57.5567 103.374 57.43C103.128 57.3033 102.854 57.24 102.554 57.24C102.208 57.24 101.894 57.3167 101.614 57.47C101.341 57.6233 101.124 57.8433 100.964 58.13C100.811 58.41 100.734 58.7333 100.734 59.1C100.734 59.4733 100.811 59.8033 100.964 60.09C101.124 60.37 101.341 60.5867 101.614 60.74C101.894 60.8933 102.208 60.97 102.554 60.97C102.854 60.97 103.128 60.9067 103.374 60.78C103.621 60.6533 103.828 60.4633 103.994 60.21L104.724 60.67C104.518 61.0367 104.224 61.32 103.844 61.52C103.471 61.7133 103.044 61.81 102.564 61.81ZM110.877 56.45V61.75H109.917V57.29H106.927V61.75H105.967V56.45H110.877ZM115.005 61.81C114.478 61.81 114.005 61.6933 113.585 61.46C113.165 61.2267 112.835 60.9067 112.595 60.5C112.361 60.0867 112.245 59.62 112.245 59.1C112.245 58.58 112.361 58.1167 112.595 57.71C112.835 57.2967 113.165 56.9767 113.585 56.75C114.005 56.5167 114.478 56.4 115.005 56.4C115.531 56.4 116.001 56.5167 116.415 56.75C116.835 56.9767 117.161 57.2967 117.395 57.71C117.635 58.1167 117.755 58.58 117.755 59.1C117.755 59.62 117.635 60.0867 117.395 60.5C117.161 60.9067 116.835 61.2267 116.415 61.46C116.001 61.6933 115.531 61.81 115.005 61.81ZM115.005 60.97C115.345 60.97 115.648 60.8933 115.915 60.74C116.188 60.58 116.401 60.36 116.555 60.08C116.708 59.7933 116.785 59.4667 116.785 59.1C116.785 58.7333 116.708 58.41 116.555 58.13C116.401 57.8433 116.188 57.6233 115.915 57.47C115.648 57.3167 115.345 57.24 115.005 57.24C114.665 57.24 114.358 57.3167 114.085 57.47C113.818 57.6233 113.605 57.8433 113.445 58.13C113.291 58.41 113.215 58.7333 113.215 59.1C113.215 59.4667 113.291 59.7933 113.445 60.08C113.605 60.36 113.818 60.58 114.085 60.74C114.358 60.8933 114.665 60.97 115.005 60.97ZM123.652 56.45V61.75H122.692V57.29H120.412L120.352 58.47C120.319 59.1833 120.255 59.78 120.162 60.26C120.069 60.7333 119.915 61.1133 119.702 61.4C119.489 61.6867 119.192 61.83 118.812 61.83C118.639 61.83 118.442 61.8 118.222 61.74L118.282 60.93C118.369 60.95 118.449 60.96 118.522 60.96C118.789 60.96 118.989 60.8433 119.122 60.61C119.255 60.3767 119.342 60.1 119.382 59.78C119.422 59.46 119.459 59.0033 119.492 58.41L119.582 56.45H123.652ZM125.508 56.45H126.468V58.7H129.488V56.45H130.448V61.75H129.488V59.53H126.468V61.75H125.508V56.45ZM132.315 56.45H133.275V60.31L136.525 56.45H137.395V61.75H136.435V57.89L133.195 61.75H132.315V56.45ZM143.208 57.29H141.268V61.75H140.308V57.29H138.368V56.45H143.208V57.29ZM148.745 59.13C148.745 59.2033 148.739 59.3 148.725 59.42H144.425C144.485 59.8867 144.689 60.2633 145.035 60.55C145.389 60.83 145.825 60.97 146.345 60.97C146.979 60.97 147.489 60.7567 147.875 60.33L148.405 60.95C148.165 61.23 147.865 61.4433 147.505 61.59C147.152 61.7367 146.755 61.81 146.315 61.81C145.755 61.81 145.259 61.6967 144.825 61.47C144.392 61.2367 144.055 60.9133 143.815 60.5C143.582 60.0867 143.465 59.62 143.465 59.1C143.465 58.5867 143.579 58.1233 143.805 57.71C144.039 57.2967 144.355 56.9767 144.755 56.75C145.162 56.5167 145.619 56.4 146.125 56.4C146.632 56.4 147.082 56.5167 147.475 56.75C147.875 56.9767 148.185 57.2967 148.405 57.71C148.632 58.1233 148.745 58.5967 148.745 59.13ZM146.125 57.21C145.665 57.21 145.279 57.35 144.965 57.63C144.659 57.91 144.479 58.2767 144.425 58.73H147.825C147.772 58.2833 147.589 57.92 147.275 57.64C146.969 57.3533 146.585 57.21 146.125 57.21ZM154.697 56.45V61.75H153.737V57.29H151.457L151.397 58.47C151.363 59.1833 151.3 59.78 151.207 60.26C151.113 60.7333 150.96 61.1133 150.747 61.4C150.533 61.6867 150.237 61.83 149.857 61.83C149.683 61.83 149.487 61.8 149.267 61.74L149.327 60.93C149.413 60.95 149.493 60.96 149.567 60.96C149.833 60.96 150.033 60.8433 150.167 60.61C150.3 60.3767 150.387 60.1 150.427 59.78C150.467 59.46 150.503 59.0033 150.537 58.41L150.627 56.45H154.697ZM159.003 58.25C159.676 58.2567 160.19 58.41 160.543 58.71C160.896 59.01 161.073 59.4333 161.073 59.98C161.073 60.5533 160.88 60.9967 160.493 61.31C160.113 61.6167 159.566 61.7667 158.853 61.76L156.553 61.75V56.45H157.513V58.24L159.003 58.25ZM158.773 61.03C159.206 61.0367 159.533 60.95 159.753 60.77C159.98 60.59 160.093 60.3233 160.093 59.97C160.093 59.6233 159.983 59.37 159.763 59.21C159.55 59.05 159.22 58.9667 158.773 58.96L157.513 58.94V61.02L158.773 61.03ZM162.305 56.45H163.265V58.7H166.285V56.45H167.245V61.75H166.285V59.53H163.265V61.75H162.305V56.45ZM171.382 61.81C170.855 61.81 170.382 61.6933 169.962 61.46C169.542 61.2267 169.212 60.9067 168.972 60.5C168.738 60.0867 168.622 59.62 168.622 59.1C168.622 58.58 168.738 58.1167 168.972 57.71C169.212 57.2967 169.542 56.9767 169.962 56.75C170.382 56.5167 170.855 56.4 171.382 56.4C171.908 56.4 172.378 56.5167 172.792 56.75C173.212 56.9767 173.538 57.2967 173.772 57.71C174.012 58.1167 174.132 58.58 174.132 59.1C174.132 59.62 174.012 60.0867 173.772 60.5C173.538 60.9067 173.212 61.2267 172.792 61.46C172.378 61.6933 171.908 61.81 171.382 61.81ZM171.382 60.97C171.722 60.97 172.025 60.8933 172.292 60.74C172.565 60.58 172.778 60.36 172.932 60.08C173.085 59.7933 173.162 59.4667 173.162 59.1C173.162 58.7333 173.085 58.41 172.932 58.13C172.778 57.8433 172.565 57.6233 172.292 57.47C172.025 57.3167 171.722 57.24 171.382 57.24C171.042 57.24 170.735 57.3167 170.462 57.47C170.195 57.6233 169.982 57.8433 169.822 58.13C169.668 58.41 169.592 58.7333 169.592 59.1C169.592 59.4667 169.668 59.7933 169.822 60.08C169.982 60.36 170.195 60.58 170.462 60.74C170.735 60.8933 171.042 60.97 171.382 60.97ZM175.518 56.45H176.478V60.31L179.728 56.45H180.598V61.75H179.638V57.89L176.398 61.75H175.518V56.45ZM177.998 55.76C177.505 55.76 177.121 55.6433 176.848 55.41C176.575 55.17 176.435 54.8267 176.428 54.38H177.078C177.085 54.6267 177.168 54.8267 177.328 54.98C177.495 55.1267 177.715 55.2 177.988 55.2C178.261 55.2 178.481 55.1267 178.648 54.98C178.815 54.8267 178.901 54.6267 178.908 54.38H179.578C179.571 54.8267 179.428 55.17 179.148 55.41C178.868 55.6433 178.485 55.76 177.998 55.76Z" fill="#0155B3"/>
<path d="M15.7653 73.285V75.355H14.8653V74.125H10.4353V75.355H9.52531V73.285H9.80531C10.1453 73.265 10.3786 73.025 10.5053 72.565C10.632 72.105 10.7186 71.455 10.7653 70.615L10.8453 68.825H14.9553V73.285H15.7653ZM11.6453 70.685C11.6186 71.3517 11.562 71.905 11.4753 72.345C11.3953 72.7783 11.2453 73.0917 11.0253 73.285H13.9953V69.665H11.6953L11.6453 70.685ZM27.2859 74.185C26.7593 74.185 26.2859 74.0683 25.8659 73.835C25.4459 73.6017 25.1159 73.2817 24.8759 72.875C24.6426 72.4617 24.5259 71.995 24.5259 71.475C24.5259 70.955 24.6426 70.4917 24.8759 70.085C25.1159 69.6717 25.4459 69.3517 25.8659 69.125C26.2859 68.8917 26.7593 68.775 27.2859 68.775C27.8126 68.775 28.2826 68.8917 28.6959 69.125C29.1159 69.3517 29.4426 69.6717 29.6759 70.085C29.9159 70.4917 30.0359 70.955 30.0359 71.475C30.0359 71.995 29.9159 72.4617 29.6759 72.875C29.4426 73.2817 29.1159 73.6017 28.6959 73.835C28.2826 74.0683 27.8126 74.185 27.2859 74.185ZM27.2859 73.345C27.6259 73.345 27.9293 73.2683 28.1959 73.115C28.4693 72.955 28.6826 72.735 28.8359 72.455C28.9893 72.1683 29.0659 71.8417 29.0659 71.475C29.0659 71.1083 28.9893 70.785 28.8359 70.505C28.6826 70.2183 28.4693 69.9983 28.1959 69.845C27.9293 69.6917 27.6259 69.615 27.2859 69.615C26.9459 69.615 26.6393 69.6917 26.3659 69.845C26.0993 69.9983 25.8859 70.2183 25.7259 70.505C25.5726 70.785 25.4959 71.1083 25.4959 71.475C25.4959 71.8417 25.5726 72.1683 25.7259 72.455C25.8859 72.735 26.0993 72.955 26.3659 73.115C26.6393 73.2683 26.9459 73.345 27.2859 73.345ZM41.4822 71.885H40.3822V74.125H39.4222V68.825H40.3822V71.065H41.5022L43.2222 68.825H44.2522L42.2422 71.375L44.3922 74.125H43.2622L41.4822 71.885ZM57.826 68.825L55.256 74.655C55.0293 75.195 54.7627 75.575 54.456 75.795C54.156 76.015 53.7927 76.125 53.366 76.125C53.106 76.125 52.8527 76.0817 52.606 75.995C52.366 75.915 52.166 75.795 52.006 75.635L52.416 74.915C52.6893 75.175 53.006 75.305 53.366 75.305C53.5993 75.305 53.7927 75.2417 53.946 75.115C54.106 74.995 54.2493 74.785 54.376 74.485L54.546 74.115L52.206 68.825H53.206L55.056 73.065L56.886 68.825H57.826ZM72.9189 68.825V74.125H72.0489V70.255L70.0689 73.525H69.6489L67.6889 70.245V74.125H66.8089V68.825H67.7989L69.8789 72.405L72.0189 68.825H72.9189ZM87.5774 71.505C87.5774 71.5783 87.5708 71.675 87.5574 71.795H83.2574C83.3174 72.2617 83.5208 72.6383 83.8674 72.925C84.2208 73.205 84.6574 73.345 85.1774 73.345C85.8108 73.345 86.3208 73.1317 86.7074 72.705L87.2374 73.325C86.9974 73.605 86.6974 73.8183 86.3374 73.965C85.9841 74.1117 85.5874 74.185 85.1474 74.185C84.5874 74.185 84.0908 74.0717 83.6574 73.845C83.2241 73.6117 82.8874 73.2883 82.6474 72.875C82.4141 72.4617 82.2974 71.995 82.2974 71.475C82.2974 70.9617 82.4108 70.4983 82.6374 70.085C82.8708 69.6717 83.1874 69.3517 83.5874 69.125C83.9941 68.8917 84.4508 68.775 84.9574 68.775C85.4641 68.775 85.9141 68.8917 86.3074 69.125C86.7074 69.3517 87.0174 69.6717 87.2374 70.085C87.4641 70.4983 87.5774 70.9717 87.5774 71.505ZM84.9574 69.585C84.4974 69.585 84.1108 69.725 83.7974 70.005C83.4908 70.285 83.3108 70.6517 83.2574 71.105H86.6574C86.6041 70.6583 86.4208 70.295 86.1074 70.015C85.8008 69.7283 85.4174 69.585 84.9574 69.585ZM97.0667 68.825H98.0267V71.075H101.047V68.825H102.007V74.125H101.047V71.905H98.0267V74.125H97.0667V68.825ZM115.823 69.665H113.883V74.125H112.923V69.665H110.983V68.825H115.823V69.665ZM126.695 68.775C127.428 68.775 127.988 68.955 128.375 69.315C128.768 69.675 128.965 70.2117 128.965 70.925V74.125H128.055V73.425C127.895 73.6717 127.665 73.8617 127.365 73.995C127.072 74.1217 126.722 74.185 126.315 74.185C125.722 74.185 125.245 74.0417 124.885 73.755C124.532 73.4683 124.355 73.0917 124.355 72.625C124.355 72.1583 124.525 71.785 124.865 71.505C125.205 71.2183 125.745 71.075 126.485 71.075H128.005V70.885C128.005 70.4717 127.885 70.155 127.645 69.935C127.405 69.715 127.052 69.605 126.585 69.605C126.272 69.605 125.965 69.6583 125.665 69.765C125.365 69.865 125.112 70.0017 124.905 70.175L124.505 69.455C124.778 69.235 125.105 69.0683 125.485 68.955C125.865 68.835 126.268 68.775 126.695 68.775ZM126.475 73.445C126.842 73.445 127.158 73.365 127.425 73.205C127.692 73.0383 127.885 72.805 128.005 72.505V71.765H126.525C125.712 71.765 125.305 72.0383 125.305 72.585C125.305 72.8517 125.408 73.0617 125.615 73.215C125.822 73.3683 126.108 73.445 126.475 73.445ZM144.354 73.285V75.395H143.444V74.125H138.694V68.825H139.654V73.285H142.554V68.825H143.514V73.285H144.354ZM153.598 68.825H154.558V72.685L157.808 68.825H158.678V74.125H157.718V70.265L154.478 74.125H153.598V68.825ZM168.541 68.825H169.501V72.685L172.751 68.825H173.621V74.125H172.661V70.265L169.421 74.125H168.541V68.825Z" fill="#0155B3"/>
<path d="M34.1613 39.32C31.3613 39.32 28.8279 38.7067 26.5613 37.48C24.3213 36.2267 22.5613 34.52 21.2813 32.36C20.0013 30.1733 19.3613 27.72 19.3613 25C19.3613 22.28 20.0013 19.84 21.2813 17.68C22.5613 15.4933 24.3346 13.7867 26.6013 12.56C28.8679 11.3067 31.4013 10.68 34.2013 10.68C36.3879 10.68 38.3879 11.0533 40.2013 11.8C42.0146 12.52 43.5613 13.6 44.8413 15.04L42.2413 17.56C40.1346 15.3467 37.5079 14.24 34.3613 14.24C32.2813 14.24 30.4013 14.7067 28.7213 15.64C27.0413 16.5733 25.7213 17.8667 24.7613 19.52C23.8279 21.1467 23.3613 22.9733 23.3613 25C23.3613 27.0267 23.8279 28.8667 24.7613 30.52C25.7213 32.1467 27.0413 33.4267 28.7213 34.36C30.4013 35.2933 32.2813 35.76 34.3613 35.76C37.4813 35.76 40.1079 34.64 42.2413 32.4L44.8413 34.92C43.5613 36.36 42.0013 37.4533 40.1613 38.2C38.3479 38.9467 36.3479 39.32 34.1613 39.32ZM78.3522 11H82.3122V32.6L98.8722 11H102.552V39H98.6322V17.44L82.0322 39H78.3522V11ZM165.61 35.52V45.12H161.89V39H138.85L138.81 45.12H135.09L135.13 35.52H136.49C138.25 35.4133 139.49 34.0267 140.21 31.36C140.93 28.6667 141.37 24.88 141.53 20L141.81 11H161.49V35.52H165.61ZM145.05 20.36C144.917 24.3067 144.597 27.5733 144.09 30.16C143.61 32.7467 142.824 34.5333 141.73 35.52H157.53V14.48H145.25L145.05 20.36Z" fill="#0155B3"/>
</svg>
