<svg width="28" height="42" viewBox="0 0 28 42" fill="none" xmlns="http://www.w3.org/2000/svg">
<path d="M14.0002 0.75C12.2895 0.752344 10.8386 2.06717 10.5536 3.87454C10.4968 4.23581 10.2049 4.49999 9.86332 4.49999H8.4002C7.61238 4.49999 7.0002 5.1559 7.0002 5.99999V7.49999C7.0002 8.34408 7.61238 8.99999 8.4002 8.99999H19.6002C20.388 8.99999 21.0002 8.34408 21.0002 7.49999V5.99999C21.0002 5.1559 20.388 4.49999 19.6002 4.49999H18.1399C17.798 4.49999 17.5061 4.23549 17.4496 3.87454C17.1642 2.0658 15.7124 0.750686 14.0002 0.75H14.0002ZM14.0002 2.25C15.1518 2.25 16.1002 3.26614 16.1002 4.5C16.1002 5.73386 15.1518 6.75 14.0002 6.75C12.8486 6.75 11.9002 5.73386 11.9002 4.5C11.9002 3.26614 12.8486 2.25 14.0002 2.25ZM14.0002 3.75C13.6052 3.75 13.3002 4.07679 13.3002 4.5C13.3002 4.92321 13.6052 5.25 14.0002 5.25C14.3952 5.25 14.7002 4.92321 14.7002 4.5C14.7002 4.07679 14.3952 3.75 14.0002 3.75ZM0.700195 6.75V41.25H27.3002V6.75H22.4002V8.25C22.4014 8.35748 22.3817 8.46362 22.3414 8.56205C22.3261 8.71272 22.2958 8.85736 22.2608 9H25.2002V39H2.80018V9H5.73954C5.70423 8.85636 5.67423 8.71071 5.65891 8.55904C5.61923 8.46161 5.59923 8.35647 5.60016 8.25V6.75H0.700195ZM4.20019 10.5V37.5H23.8002V10.5H4.20019ZM11.8864 13.4926C12.5246 13.4729 12.853 14.3032 12.3949 14.7803L8.89487 18.5303C8.62143 18.823 8.17831 18.823 7.90519 18.5303L5.80519 16.2803C5.11801 15.5735 6.13519 14.4833 6.79487 15.2196L8.39983 16.9392L11.4048 13.7196C11.5317 13.58 11.7042 13.4983 11.886 13.4926L11.8864 13.4926ZM14.7002 13.501H21.7002C22.6467 13.4869 22.6467 15.0154 21.7002 15.001H14.7002C13.7536 15.0151 13.7536 13.4866 14.7002 13.501ZM14.7002 16.501H18.9002C19.8467 16.4869 19.8467 18.0154 18.9002 18.001H14.7002C13.7536 18.0151 13.7536 16.4866 14.7002 16.501ZM7.34331 21.7436C7.53238 21.7436 7.71331 21.8257 7.84518 21.9706L9.10022 23.3153L10.3553 21.9706C10.4821 21.831 10.6546 21.7493 10.8365 21.7436C11.4746 21.7239 11.8031 22.5542 11.3449 23.0313L10.0899 24.376L11.3449 25.7207C12.0321 26.4275 11.0149 27.5177 10.3553 26.7811L9.10023 25.4351L7.84519 26.7798C7.1855 27.516 6.16799 26.4262 6.85551 25.7194L8.11055 24.3747L6.85551 23.03C6.4052 22.5606 6.71551 21.7426 7.34364 21.7423L7.34331 21.7436ZM14.7002 21.752H21.7002C22.6467 21.7379 22.6467 23.2664 21.7002 23.252L14.7002 23.2523C13.7536 23.2664 13.7536 21.7379 14.7002 21.7523V21.752ZM14.7002 24.752L18.9002 24.7523C19.8467 24.7383 19.8467 26.2667 18.9002 26.2523H14.7002C13.7536 26.2664 13.7536 24.7379 14.7002 24.7523V24.752ZM11.8864 29.9946C12.5246 29.9749 12.853 30.8052 12.3949 31.2823L8.89487 35.0323C8.62143 35.325 8.17831 35.325 7.90519 35.0323L5.80519 32.7823C5.11801 32.0755 6.13519 30.9853 6.79487 31.7216L8.39983 33.4412L11.4048 30.2216C11.5317 30.082 11.7042 30.0003 11.886 29.9946L11.8864 29.9946ZM14.7002 30.003H21.7002C22.6467 29.9889 22.6467 31.5174 21.7002 31.503L14.7002 31.5033C13.7536 31.5174 13.7536 29.9889 14.7002 30.0033V30.003ZM14.7002 33.003L18.9002 33.0033C19.8467 32.9893 19.8467 34.5177 18.9002 34.5033H14.7002C13.7536 34.5174 13.7536 32.9889 14.7002 33.0033V33.003Z" fill="#0155B3"/>
</svg>
