<svg width="45" height="46" viewBox="0 0 45 46" fill="none" xmlns="http://www.w3.org/2000/svg">
<path d="M15.2739 39.7073H14.8048C14.5233 39.7073 14.2418 39.5228 14.1478 39.338L1.10254 23.0917L5.8886 19.8611L18.6515 35.7379C18.9331 36.1993 18.9331 36.7535 18.5576 37.1224L18.4636 37.2148L15.2739 39.7073ZM3.82418 23.5536L14.9915 37.4925L16.587 36.2925L5.41967 22.4462L3.82418 23.5536Z" fill="#0155B3"/>
<path d="M2.32279 24.5693L0.727291 22.5387C0.351828 21.9849 0.0703125 21.4311 0.0703125 20.7849C0.0703125 19.8617 0.445776 19.1235 1.19637 18.5693C1.75939 18.1079 2.6039 17.9231 3.3549 18.0155C4.10583 18.1079 4.85637 18.4769 5.32581 19.1231L7.20278 21.4307L2.32279 24.5693ZM2.88581 19.7693C2.69825 19.7693 2.41674 19.8617 2.22883 19.9538C1.94732 20.1383 1.85337 20.4152 1.85337 20.7845C1.85337 20.969 1.94732 21.2459 2.04093 21.4307L2.69824 22.0769L4.38733 20.9693L3.7307 20.1386C3.54314 19.9542 3.35523 19.7693 3.07372 19.7693H2.88582L2.88581 19.7693Z" fill="#0155B3"/>
<path d="M20.2472 42.9387L19.6842 42.6615L14.4287 39.5233L15.3672 37.9539L18.3706 39.7077L17.0567 36.7539L18.8397 36.0156L21.2797 42.0156L20.2472 42.9387Z" fill="#0155B3"/>
<path d="M43.8968 10.9999H34.6997V1.76929H36.5767V9.15375H43.8967L43.8968 10.9999Z" fill="#0155B3"/>
<path d="M44.9285 45.1537H11.144V32.6925L14.9916 37.4925L16.5871 36.2925L11.144 29.4615V0.84668H36.9514L40.7989 5.00048L44.928 9.80048L44.9285 45.1537ZM13.0211 43.3075H43.0523V10.4463L39.3923 6.20014L36.1074 2.69254H13.0215V28.8157L18.6524 35.8312C18.934 36.2005 18.934 36.8468 18.5585 37.1236L18.4645 37.216L15.18 39.7084H14.711C14.4295 39.7084 14.148 39.524 14.054 39.3391L13.0215 38.0467L13.0211 43.3075Z" fill="#0155B3"/>
<path d="M17.7139 17.4612H38.3598V19.3074H17.7139V17.4612Z" fill="#0155B3"/>
<path d="M17.7139 22.0769H38.3598V23.9231H17.7139V22.0769Z" fill="#0155B3"/>
<path d="M17.7139 26.6926H38.3598V28.5388H17.7139V26.6926Z" fill="#0155B3"/>
<path d="M17.7139 31.3074H38.3598V33.1536H17.7139V31.3074Z" fill="#0155B3"/>
<path d="M20.5288 35.9231H38.36V37.7693H20.5288V35.9231Z" fill="#0155B3"/>
</svg>
