<svg width="41" height="46" viewBox="0 0 41 46" fill="none" xmlns="http://www.w3.org/2000/svg">
<path d="M5.99214 5.58397V38.416H14.8481C16.312 38.416 17.512 39.544 17.512 40.9358C17.512 42.3276 16.312 43.4556 14.8481 43.4556H5.96814C3.01605 43.4556 0.640137 41.1996 0.640137 38.4155L0.640472 5.51154C0.640472 2.77537 2.99256 0.543457 5.89647 0.543457H35.3205C38.2726 0.543457 40.6485 2.79946 40.6485 5.58354V19.2155C40.6485 20.6074 39.4485 21.7354 37.9847 21.7354C36.5208 21.7354 35.3208 20.6074 35.3208 19.2155L35.3202 5.58354L5.99214 5.58397Z" fill="#0155B3"/>
<path d="M19.336 33.376C19.336 27.7841 24.1119 23.272 29.992 23.272C35.8722 23.272 40.648 27.7841 40.648 33.376C40.648 35.6799 39.832 37.792 38.464 39.4958L40.336 41.704C41.2722 42.7841 41.08 44.3919 39.9279 45.2561C38.7758 46.1199 37.1438 45.9759 36.1838 44.872L34.264 42.616C32.8959 43.1919 31.4558 43.4798 29.9679 43.4798C24.1119 43.4802 19.3359 38.944 19.3359 33.3758L19.336 33.376ZM29.992 28.3121C27.0399 28.3121 24.664 30.5681 24.664 33.376C24.664 36.16 27.0399 38.4161 29.992 38.4161C32.9441 38.4161 35.32 36.1601 35.32 33.376C35.3441 30.5681 32.9441 28.3121 29.992 28.3121Z" fill="#0155B3"/>
<path d="M11.344 13.168C11.344 11.7762 12.544 10.6482 14.0078 10.6482H27.3518C28.8156 10.6482 30.0156 11.7762 30.0156 13.168C30.0156 14.5599 28.8156 15.6879 27.3518 15.6879H14.0078C12.5195 15.6879 11.3195 14.5599 11.3436 13.168H11.344ZM14.0081 20.7279C12.5443 20.7279 11.3443 21.8559 11.3443 23.2478C11.3443 24.6396 12.5443 25.7676 14.0081 25.7676H19.3361C20.8 25.7676 22 24.6396 22 23.2478C22 21.8559 20.8 20.7279 19.3361 20.7279H14.0081Z" fill="#0155B3"/>
</svg>
