<svg width="36" height="42" viewBox="0 0 36 42" fill="none" xmlns="http://www.w3.org/2000/svg">
<path d="M30.5633 31.0963C29.5229 30.7585 28.419 30.2911 27.4176 29.7571C26.4437 29.2692 25.4669 28.7302 24.4943 28.0876L24.4947 23.3857C25.8912 21.4501 27.0353 19.0019 27.5841 16.54H29.461C30.2894 16.54 30.961 15.869 30.961 15.04C30.961 14.211 30.2894 13.54 29.461 13.54H29.1423C29.2019 8.70452 26.1152 4.49029 21.7103 2.90972L21.7106 1.50049C21.7106 0.671468 21.0389 0.000488281 20.2106 0.000488281H15.7032C14.8749 0.000488281 14.2032 0.671468 14.2032 1.50049V2.90972C9.80334 4.50177 6.71129 8.70109 6.77223 13.54H6.53785C5.7095 13.54 5.03785 14.211 5.03785 15.04C5.03785 15.869 5.7095 16.54 6.53785 16.54H8.41551C8.94185 18.9651 10.0796 21.4106 11.5059 23.3851V28.086C10.7389 28.5916 9.97551 29.0382 9.21745 29.445C7.98831 30.0704 6.72977 30.6882 5.42897 31.0976C2.26559 32.1466 0.140137 35.0498 0.140137 38.3194V40.5004C0.140137 41.3294 0.811785 42.0004 1.64014 42.0004C2.46849 42.0004 3.14014 41.3294 3.14014 40.5004C3.14014 40.4515 3.13511 38.1366 3.15319 38.159C3.21346 36.492 4.1888 34.998 5.69111 34.2316C6.53051 33.8405 7.43617 33.6048 8.29031 33.2104V35.4738L6.38248 38.2093C6.20737 38.4614 6.11295 38.7614 6.11295 39.0678V40.5005C6.11295 41.3295 6.7846 42.0005 7.61295 42.0005C8.4413 42.0005 9.11295 41.3295 9.11295 40.5005V39.5395L10.5741 37.4449H25.4258L26.887 39.5395V40.5005C26.887 41.3295 27.5587 42.0005 28.387 42.0005C29.2154 42.0005 29.887 41.3295 29.887 40.5005V39.0678C29.887 38.7617 29.7926 38.4614 29.6175 38.2093L27.7097 35.4738V33.2047C28.5826 33.6108 29.4678 33.8425 30.3102 34.2329C31.8119 35.0003 32.7866 36.4933 32.8472 38.1587C32.8649 38.1346 32.8599 40.4535 32.8599 40.5004C32.8599 41.3294 33.5316 42.0004 34.3599 42.0004C35.1883 42.0004 35.8599 41.3294 35.8599 40.5004V38.3194C35.8599 35.0482 33.7324 32.1463 30.5633 31.0963ZM24.7099 34.4449H11.2905V31.7335C11.8202 31.4321 12.3515 31.104 12.8832 30.7608C14.418 31.6983 16.1581 32.2153 18.0003 32.2153C19.8414 32.2153 21.5806 31.699 23.115 30.7625C23.6454 31.1053 24.1771 31.4348 24.7101 31.7375L24.7099 34.4449ZM13.5002 9.76515C14.3286 9.76515 15.0002 9.09416 15.0002 8.26514V5.83437C15.3421 5.70279 15.6862 5.57489 16.0512 5.48783C16.7266 5.32645 17.2033 4.7231 17.2033 4.02872V3.00049H18.7107V4.02872C18.7107 4.72314 19.1875 5.32652 19.8628 5.48757C20.2575 5.582 20.6325 5.71659 21.0002 5.86291V8.26522C21.0002 9.09424 21.6718 9.76522 22.5002 9.76522C23.3286 9.76522 24.0002 9.09424 24.0002 8.26522V7.9525C25.3535 9.43545 26.1685 11.4078 26.1424 13.537H9.77266C9.74621 11.363 10.595 9.35333 12.0005 7.86036V8.26516C12.0005 9.09418 12.6718 9.76515 13.5002 9.76515ZM14.5056 26.32C15.6299 27.0305 16.8059 27.4092 18.0002 27.4092C19.1942 27.4092 20.3698 27.0308 21.4948 26.3193V28.2435C19.372 29.4811 16.6288 29.4811 14.5061 28.2435L14.5056 26.32ZM21.8315 21.976C20.9519 23.0863 19.5728 24.4092 18.0002 24.4092C16.4276 24.4092 15.0484 23.0863 14.1769 21.9864C13.0094 20.486 12.0511 18.4842 11.5217 16.5402H24.4749C23.9268 18.5139 22.9706 20.5135 21.8315 21.976Z" fill="#0155B3"/>
</svg>
