<svg width="41" height="46" viewBox="0 0 41 46" fill="none" xmlns="http://www.w3.org/2000/svg">
<path d="M37.346 45.1537H26.1155C24.2061 45.1537 22.7461 43.9537 22.7461 42.3844V3.61578C22.7461 2.04644 24.2061 0.846436 26.1155 0.846436H37.346C39.2554 0.846436 40.7154 2.04644 40.7154 3.61578V42.3852C40.7154 43.9542 39.2554 45.1542 37.346 45.1542V45.1537ZM26.1155 2.69255C25.4417 2.69255 24.9923 3.06186 24.9923 3.61569V42.3851C24.9923 42.9389 25.4416 43.3083 26.1155 43.3083H37.346C38.0198 43.3083 38.4692 42.939 38.4692 42.3851V3.61569C38.4692 3.0619 38.0198 2.69255 37.346 2.69255H26.1155Z" fill="#0155B3"/>
<path d="M14.8841 45.1537H3.65355C1.74418 45.1537 0.28418 43.9537 0.28418 42.3844V3.61578C0.28418 2.04644 1.74418 0.846436 3.65355 0.846436H14.8841C16.7934 0.846436 18.2534 2.04644 18.2534 3.61578V42.3852C18.2534 43.9542 16.7934 45.1542 14.8841 45.1542V45.1537ZM3.65355 2.69255C2.97977 2.69255 2.53039 3.06186 2.53039 3.61569V42.3851C2.53039 42.9389 2.97972 43.3083 3.65355 43.3083H14.8841C15.5579 43.3083 16.0072 42.939 16.0072 42.3851V3.61569C16.0072 3.0619 15.5579 2.69255 14.8841 2.69255H3.65355Z" fill="#0155B3"/>
<path d="M12.6387 35.9232H5.90002C5.22623 35.9232 4.77686 35.5539 4.77686 35.0001C4.77686 34.4462 5.22618 34.0769 5.90002 34.0769H12.6387C13.3124 34.0769 13.7618 34.4462 13.7618 35.0001C13.7614 35.5539 13.3125 35.9232 12.6387 35.9232Z" fill="#0155B3"/>
<path d="M11.5155 32.2306H7.02306C6.34928 32.2306 5.8999 31.8613 5.8999 31.3074C5.8999 30.7536 6.34923 30.3843 7.02306 30.3843H11.5155C12.1892 30.3843 12.6386 30.7536 12.6386 31.3074C12.6386 31.8613 12.1893 32.2306 11.5155 32.2306Z" fill="#0155B3"/>
<path d="M11.5155 39.6158H7.02306C6.34928 39.6158 5.8999 39.2465 5.8999 38.6927C5.8999 38.1388 6.34923 37.7695 7.02306 37.7695H11.5155C12.1892 37.7695 12.6386 38.1388 12.6386 38.6927C12.6386 39.2465 12.1893 39.6158 11.5155 39.6158Z" fill="#0155B3"/>
<path d="M35.1001 35.9232H28.3614C27.6877 35.9232 27.2383 35.5539 27.2383 35.0001C27.2383 34.4462 27.6876 34.0769 28.3614 34.0769H35.1001C35.7739 34.0769 36.2233 34.4462 36.2233 35.0001C36.2233 35.5539 35.7739 35.9232 35.1001 35.9232Z" fill="#0155B3"/>
<path d="M33.9769 32.2306H29.4845C28.8107 32.2306 28.3613 31.8613 28.3613 31.3074C28.3613 30.7536 28.8107 30.3843 29.4845 30.3843H33.9769C34.6507 30.3843 35.1001 30.7536 35.1001 31.3074C35.1001 31.8613 34.6507 32.2306 33.9769 32.2306Z" fill="#0155B3"/>
<path d="M33.9769 39.6158H29.4845C28.8107 39.6158 28.3613 39.2465 28.3613 38.6927C28.3613 38.1388 28.8107 37.7695 29.4845 37.7695H33.9769C34.6507 37.7695 35.1001 38.1388 35.1001 38.6927C35.1001 39.2465 34.6507 39.6158 33.9769 39.6158Z" fill="#0155B3"/>
<path d="M9.26928 12.8462C6.79864 12.8462 4.77686 11.1848 4.77686 9.15383C4.77686 7.12317 6.79823 5.46143 9.26928 5.46143C11.7399 5.46143 13.7617 7.12283 13.7617 9.15383C13.7613 11.1845 11.7399 12.8462 9.26928 12.8462ZM9.26928 7.30763C8.0337 7.30763 7.02307 8.13832 7.02307 9.15383C7.02307 10.1694 8.03374 11 9.26928 11C10.5048 11 11.5155 10.1693 11.5155 9.15383C11.5155 8.13863 10.5044 7.30763 9.26928 7.30763Z" fill="#0155B3"/>
<path d="M31.7302 12.8462C29.2596 12.8462 27.2378 11.1848 27.2378 9.15383C27.2378 7.12317 29.2592 5.46143 31.7302 5.46143C34.2008 5.46143 36.2226 7.12283 36.2226 9.15383C36.2226 11.1845 34.2008 12.8462 31.7302 12.8462ZM31.7302 7.30763C30.4946 7.30763 29.484 8.13832 29.484 9.15383C29.484 10.1694 30.4947 11 31.7302 11C32.9658 11 33.9764 10.1693 33.9764 9.15383C33.9764 8.13863 32.9658 7.30763 31.7302 7.30763Z" fill="#0155B3"/>
</svg>
