<svg width="48" height="56" viewBox="0 0 48 56" fill="none" xmlns="http://www.w3.org/2000/svg">
<path d="M44.1641 0.0078125H3.84761C2.83065 0.00867853 1.85553 0.351652 1.13652 0.961376C0.416977 1.57067 0.0127523 2.39689 0.0117188 3.25915V52.629C0.0127408 53.4912 0.416977 54.3174 1.13652 54.9268C1.85555 55.5365 2.83058 55.8795 3.84761 55.8804H44.1641C45.1811 55.8795 46.1562 55.5365 46.8752 54.9268C47.5947 54.3175 47.999 53.4913 48 52.629V3.25915C47.999 2.39697 47.5947 1.57077 46.8752 0.961376C46.1562 0.351652 45.1811 0.0086772 44.1641 0.0078125ZM23.2111 15.5713C20.9994 14.8368 18.7282 13.7573 18.7282 11.35H18.7277C18.7328 10.4692 19.0788 9.6144 19.7125 8.91588C20.3462 8.21781 21.2323 7.71505 22.2354 7.48469V6.80178C22.2354 5.97769 23.024 5.30995 23.9965 5.30995C24.969 5.30995 25.7575 5.97769 25.7575 6.80178V7.29848C26.3657 7.37339 26.9605 7.51413 27.5267 7.71636C28.3949 8.03075 28.8155 8.86952 28.4793 9.61737L28.4103 9.77067C28.1496 10.3492 27.4955 10.7329 26.7647 10.7355C26.5276 10.7355 26.2925 10.6943 26.0743 10.6147C25.4907 10.4038 24.8611 10.2981 24.2264 10.3046C23.3229 10.3046 22.8042 10.6008 22.8042 11.1161C22.8042 11.4942 22.9647 11.8177 25.0425 12.5439C27.0161 13.2268 29.2866 14.344 29.2866 16.9614H29.2861C29.282 17.8825 28.9202 18.7771 28.2574 19.5073C27.5946 20.2374 26.6671 20.7626 25.6173 21.0021V21.7434C25.6143 22.5654 24.8288 23.2309 23.8589 23.2335H23.8354C22.8654 23.2309 22.08 22.5653 22.0774 21.7434V21.1775C21.2331 21.0826 20.4124 20.8752 19.6458 20.5621C18.8527 20.223 18.4827 19.4358 18.7832 18.7277L18.8563 18.5606H18.8568C19.1087 17.9729 19.7659 17.5806 20.5034 17.5767C20.765 17.5763 21.0236 17.6261 21.2597 17.7218C21.947 17.9976 22.6972 18.1431 23.4577 18.1483C24.2534 18.1483 25.1825 17.8738 25.1825 17.1004C25.1835 16.6877 25.0312 16.1979 23.2078 15.5713L23.2111 15.5713ZM35.1341 48.3866H12.8781C12.2674 48.3957 11.6777 48.197 11.2417 47.8341C10.8063 47.4716 10.561 46.9758 10.561 46.4583C10.561 45.9404 10.8063 45.4445 11.2417 45.0821C11.6776 44.7192 12.2674 44.5204 12.8781 44.5295H35.1341C35.7448 44.5204 36.3346 44.7192 36.7705 45.0821C37.2059 45.4445 37.4512 45.9404 37.4512 46.4583C37.4512 46.9758 37.2059 47.4716 36.7705 47.8341C36.3346 48.1969 35.7449 48.3957 35.1341 48.3866ZM35.1341 39.1572H12.8781C12.2674 39.1663 11.6777 38.9671 11.2417 38.6046C10.8063 38.2417 10.561 37.7459 10.561 37.2284C10.561 36.7109 10.8063 36.2151 11.2417 35.8522C11.6776 35.4898 12.2674 35.2906 12.8781 35.3001H35.1341C35.7448 35.2905 36.3346 35.4897 36.7705 35.8522C37.2059 36.2151 37.4512 36.7109 37.4512 37.2284C37.4512 37.7459 37.2059 38.2417 36.7705 38.6046C36.3346 38.9671 35.7449 39.1663 35.1341 39.1572ZM35.1341 29.9277L12.8781 29.9273C12.2674 29.9368 11.6777 29.7376 11.2417 29.3752C10.8063 29.0123 10.561 28.5164 10.561 27.999C10.561 27.4815 10.8063 26.9856 11.2417 26.6228C11.6776 26.2603 12.2674 26.0611 12.8781 26.0702H35.1341C35.7448 26.0611 36.3346 26.2603 36.7705 26.6228C37.2059 26.9856 37.4512 27.4815 37.4512 27.999C37.4512 28.5165 37.2059 29.0123 36.7705 29.3752C36.3346 29.7376 35.7449 29.9368 35.1341 29.9273V29.9277Z" fill="#0155B3"/>
</svg>
