<svg width="700" height="700" viewBox="0 0 700 700" fill="none" xmlns="http://www.w3.org/2000/svg">
<path d="M372.58 72.4299C372.58 58.0899 360.928 46.4849 346.635 46.4849C332.319 46.4849 320.69 58.0899 320.69 72.4299V98.3749H372.581L372.58 72.4299ZM300.346 98.3749H248.455C248.455 84.0349 260.084 72.3589 274.4 72.3589C288.689 72.3589 300.345 84.0349 300.345 98.3749H300.346ZM243.717 461.625H450.827V513.516H243.717V461.625ZM295.381 357.835H451.051L451.012 383.632C450.934 397.566 442.824 419.257 435.125 435.675H260.495C253.604 418.292 243.491 387.636 243.491 357.835V254.045C243.491 239.705 255.124 228.1 269.436 228.1C283.725 228.1 295.385 239.705 295.385 254.045L295.381 357.835ZM176.821 123.795V331.605H219.18V254.054C219.18 251.21 219.43 248.425 219.887 245.706C217.141 245.261 214.328 245.015 211.453 245.015V210.382C240.152 210.382 263.406 187.128 263.406 158.425H436.586C436.586 187.128 459.84 210.382 488.539 210.382V245.015C459.84 245.015 436.586 268.269 436.586 296.968H319.686V331.601H523.176L523.172 123.801L176.821 123.795ZM220.114 175.748C215.325 175.748 211.454 171.873 211.454 167.088C211.454 162.302 215.325 158.427 220.114 158.427C224.899 158.427 228.77 162.302 228.77 167.088C228.774 171.869 224.903 175.748 220.114 175.748ZM479.884 296.968C475.099 296.968 471.228 293.093 471.228 288.308C471.228 283.522 475.099 279.651 479.884 279.651C484.673 279.651 488.544 283.523 488.544 288.308C488.544 293.093 484.669 296.968 479.884 296.968ZM479.884 175.748C475.099 175.748 471.228 171.873 471.228 167.088C471.228 162.302 475.099 158.427 479.884 158.427C484.673 158.427 488.544 162.302 488.544 167.088C488.544 171.869 484.669 175.748 479.884 175.748ZM402.493 227.697C402.493 201.244 382.934 179.381 357.489 175.748H421.469C427.742 200.064 446.922 219.244 471.223 225.498V229.896C446.922 236.154 427.743 255.334 421.469 279.65H357.489C382.934 276.017 402.493 254.15 402.493 227.697V227.697ZM342.513 175.748C321.72 178.717 304.865 193.861 299.392 213.732C291.021 207.497 280.654 203.802 269.439 203.802C267.408 203.802 265.408 203.939 263.439 204.173C270.525 196.13 275.775 186.439 278.533 175.751L342.513 175.748ZM319.689 279.658V270.548C326.322 275.248 334.091 278.455 342.509 279.658H319.689ZM434.869 98.3779H392.931C397.65 91.874 405.279 87.6199 413.904 87.6199C422.513 87.6199 430.142 91.8738 434.869 98.3779Z" fill="#0155B3"/>
</svg>
