<svg width="395" height="551" viewBox="0 0 395 551" fill="none" xmlns="http://www.w3.org/2000/svg">
<path fill-rule="evenodd" clip-rule="evenodd" d="M99.6899 112.36C99.6899 102.555 107.635 94.6142 117.428 94.6142C127.233 94.6142 135.174 102.559 135.174 112.36C135.174 122.165 127.229 130.098 117.428 130.106C107.631 130.106 99.6899 122.161 99.6899 112.36ZM389.43 491.87L376.25 494.179L240.39 517.984L230.355 519.742L235.722 550.394L240.109 549.628L381.309 524.886L394.809 522.527L389.434 491.875L389.43 491.87ZM236.77 458.647L236.469 493.35L371.399 469.702C367.384 444.554 364.645 424.729 365.297 419.604L384.656 299.724C390.203 265.314 386.406 252.521 365.625 234.119C353.555 223.443 337.496 184.185 328.398 166.162C319.715 148.967 312.003 142.83 296.203 134.103L265.845 119.603C260.493 117.052 256.333 120.705 256.333 126.634V160.915C256.333 163.939 257.919 166.54 260.614 167.927C268.805 172.15 274.501 174.802 274.501 174.802L294.325 270.345C292.196 276.783 288.399 282.536 283.54 287.31C274.493 296.185 265.438 301.482 252.966 301.447C240.13 301.412 228.146 303.654 225.587 294.935L207.22 237.083C198.181 206.938 146.204 207.688 153.521 244.603L177.419 354.753C179.161 362.792 181.286 376.706 186.567 382.995L229.223 433.827C237.915 444.19 237.134 451.143 236.778 458.647L236.77 458.647ZM99.6899 334.857C99.6899 325.06 107.635 317.119 117.428 317.119C127.233 317.119 135.174 325.064 135.174 334.857C135.174 344.662 127.229 352.603 117.428 352.603C107.631 352.603 99.6899 344.658 99.6899 334.857V334.857ZM46.8419 223.607C46.8497 184.623 78.4439 153.021 117.428 153.021C142.561 153.021 164.631 166.158 177.123 185.939C178.658 188.361 178.803 191.177 177.517 193.736C176.244 196.295 173.908 197.873 171.049 198.111C165.818 198.533 160.666 199.775 155.885 201.884C153.318 203.029 150.56 202.791 148.217 201.205C144.392 198.631 139.783 197.146 134.631 197.146C119.51 197.146 114.791 207.951 110.319 220.185C108.448 225.33 105.932 234.056 99.1776 234.056C86.8146 234.056 87.8726 215.267 97.9354 212.216C99.3924 211.786 100.357 210.486 100.357 208.97V201.001C100.357 199.978 99.9354 199.064 99.1503 198.4C98.3769 197.743 97.3925 197.47 96.3769 197.65C88.6738 198.966 81.9979 203.032 78.1469 209.955C77.0961 211.849 76.3735 213.822 75.8461 215.923L67.2641 215.865C65.3774 215.865 63.8618 217.4 63.8618 219.259V227.951C63.8618 229.822 65.3774 231.353 67.2641 231.353L76.2329 231.302C79.479 242.322 88.4239 250.075 100.225 250.075C114.545 250.075 119.651 240.29 123.952 228.571C125.78 223.591 128.139 214.606 134.151 213.305C135.409 213.04 136.639 213.505 137.397 214.563C138.147 215.606 138.217 216.915 137.561 218.028C132.045 227.419 130.831 238.747 133.065 249.993L140.163 282.766C141.085 286.969 138.475 291.149 134.295 292.172C128.893 293.489 123.24 294.196 117.416 294.196C78.4325 294.196 46.8305 262.594 46.8305 223.61L46.8419 223.607ZM234.292 43.1172V14.0152C234.292 10.2066 232.757 6.76128 230.276 4.28858H230.225C227.725 1.78858 224.28 0.22998 220.499 0.22998H14.3589C10.5698 0.22998 7.1206 1.78858 4.6245 4.28858H4.57372C2.10102 6.76128 0.565918 10.2066 0.565918 14.0152V43.1172V433.207C0.565918 437.016 2.10112 440.461 4.57372 442.934H4.6245C7.1245 445.442 10.5698 446.992 14.3589 446.992H203.109C204.695 446.992 206.039 446.141 206.711 444.711C207.375 443.274 207.168 441.68 206.152 440.473L189.828 421.02C186.699 417.297 182.512 415.344 177.644 415.344L49.7839 415.379C49.7839 403.637 39.823 394.125 27.5379 394.125C27.5379 280.455 27.5457 166.785 27.5457 53.1252C39.8227 53.1252 49.7797 43.6057 49.7797 31.8632C72.3267 31.8632 94.8737 31.8906 117.421 31.8789C139.968 31.8867 162.523 31.8632 185.069 31.8632C185.069 43.6052 195.03 53.1252 207.303 53.1252V201.525C207.303 205.935 208.897 209.744 212.041 212.845C217.615 218.341 221.846 225.165 224.17 232.927L230.096 251.595C230.854 254.419 234.276 254.224 234.276 251.638C234.276 182.13 234.283 112.618 234.283 43.1282L234.292 43.1172Z" fill="#0155B3"/>
</svg>
