<svg width="41" height="49" viewBox="0 0 41 49" fill="none" xmlns="http://www.w3.org/2000/svg">
<path d="M2.25164 0C1.46022 0.0829515 0.794697 0.826117 0.798847 1.62171V39.4594C0.798847 40.3086 1.57142 41.0812 2.42056 41.0812H16.0354C18.0895 45.5454 22.604 48.6485 27.8259 48.6485C34.9713 48.6485 40.7988 42.8212 40.7988 35.6756C40.7988 29.6465 36.6577 24.5685 31.0691 23.1254V10.2702C31.0703 9.84531 30.8961 9.42264 30.5963 9.12179L21.9475 0.472972C21.6466 0.173214 21.2239 -0.000984528 20.799 0.000154465H2.2518L2.25164 0ZM4.04227 3.24343H19.1774V10.2705C19.1774 11.1196 19.9499 11.8922 20.7991 11.8922H27.8262V22.703C26.5167 22.703 25.2524 22.9138 24.0595 23.2773C23.9705 23.2584 23.88 23.2475 23.7891 23.2437H7.11642C6.26542 23.2852 5.52974 24.0992 5.57424 24.9499C5.61873 25.8005 6.43467 26.5339 7.28533 26.4867H18.6868C18.1808 26.9894 17.7201 27.5289 17.3015 28.1085H7.11622C6.26522 28.1499 5.52955 28.964 5.57405 29.8146C5.61854 30.6653 6.43448 31.3986 7.28514 31.3515H15.6126C15.4249 31.8786 15.2586 32.4174 15.1398 32.9732H7.11618C6.26518 33.0147 5.52951 33.8287 5.57401 34.6794C5.6185 35.53 6.43444 36.2634 7.2851 36.2163H14.8694C14.8921 36.7667 14.949 37.3067 15.0384 37.838H4.04129L4.04227 3.24343ZM22.4206 5.52383L25.5456 8.64882H22.4206V5.52383ZM7.11659 18.378C6.26747 18.4221 5.53522 19.2351 5.57934 20.0842C5.62345 20.9333 6.43637 21.6656 7.28551 21.6215H24.5828C25.4394 21.6335 26.2274 20.8568 26.2274 19.9997C26.2274 19.1431 25.4394 18.366 24.5828 18.378H7.11659ZM27.826 25.9454C33.2189 25.9454 37.5557 30.2822 37.5557 35.6751C37.5557 41.0679 33.2188 45.4048 27.826 45.4048C22.4331 45.4048 18.0963 41.0679 18.0963 35.6751C18.0963 30.2822 22.4331 25.9454 27.826 25.9454ZM32.5387 30.2528C32.1225 30.295 31.7258 30.5058 31.4577 30.8271L26.0019 37.1785L23.9918 35.5063C23.3584 34.8615 22.1642 34.9113 21.587 35.607C21.0097 36.3026 21.1806 37.4854 21.9309 37.9892L25.1743 40.6919C25.8191 41.2281 26.8892 41.1402 27.4377 40.506L33.9241 32.9386C34.3528 32.4526 34.4463 31.6985 34.1492 31.1224C33.8521 30.5464 33.1835 30.1855 32.5388 30.253L32.5387 30.2528Z" fill="#0155B3"/>
</svg>
