<svg width="40" height="40" viewBox="0 0 40 40" fill="none" xmlns="http://www.w3.org/2000/svg">
<path d="M33.0647 17.7026H30.7441C30.4696 16.4111 29.9576 15.1669 29.2421 14.0541L30.8893 12.3939C31.1387 12.1422 31.1387 11.7364 30.8893 11.4853L28.5897 9.16727C28.3475 8.92303 27.9158 8.92303 27.6736 9.16727L26.0321 10.8214C24.9299 10.1028 23.6984 9.58805 22.419 9.31156V6.96681C22.419 6.61082 22.1298 6.32166 21.7738 6.32166L18.521 6.32194C18.165 6.32194 17.8758 6.61111 17.8758 6.9671V9.31185C16.5964 9.58834 15.3646 10.1028 14.2627 10.8217L12.6212 9.16755C12.379 8.92332 11.9473 8.92332 11.7051 9.16755L9.4055 11.4855C9.15608 11.7373 9.15608 12.1431 9.4055 12.3942L11.0527 14.0544C10.3372 15.1673 9.82489 16.4112 9.55068 17.7029H7.23012C6.87413 17.7029 6.58496 17.9921 6.58496 18.3481V21.6266C6.58496 21.9825 6.87413 22.2717 7.23012 22.2717H9.55068C9.82516 23.5637 10.3373 24.8074 11.0527 25.9203L9.4055 27.5804C9.15608 27.8321 9.15608 28.238 9.4055 28.4891L11.7051 30.8071C11.826 30.9289 11.9911 30.9977 12.163 30.9977C12.3349 30.9977 12.4997 30.9289 12.6209 30.8071L14.2624 29.153C15.3646 29.8716 16.5961 30.3863 17.8755 30.6628V33.0075C17.8755 33.3635 18.1647 33.6527 18.5207 33.6527H21.7732C22.1292 33.6527 22.4184 33.3635 22.4184 33.0075V30.6628C23.6978 30.3863 24.9296 29.8719 26.0315 29.153L27.673 30.8071C27.9152 31.0513 28.3469 31.0513 28.5891 30.8071L30.8887 28.4891C31.1381 28.2374 31.1381 27.8315 30.8887 27.5804L29.2415 25.9203C29.957 24.8076 30.4693 23.5634 30.7435 22.2717H33.0641C33.4201 22.2717 33.7092 21.9825 33.7092 21.6266L33.7095 18.3478C33.7098 17.9918 33.4206 17.7026 33.0647 17.7026L33.0647 17.7026ZM20.1476 25.4504C17.156 25.4504 14.7222 22.9994 14.7222 19.9873C14.7222 16.9747 17.156 14.5239 20.1476 14.5239C23.1392 14.5239 25.5729 16.9749 25.5729 19.9873C25.5729 22.9994 23.1392 25.4504 20.1476 25.4504Z" fill="#0155B3"/>
<path d="M20.1472 15.8143C17.867 15.8143 16.0122 17.6862 16.0122 19.9874C16.0122 22.2884 17.867 24.1602 20.1472 24.1602C22.4275 24.1602 24.2823 22.2884 24.2823 19.9874C24.2823 17.6865 22.4272 15.8143 20.1472 15.8143V15.8143Z" fill="#0155B3"/>
<path d="M36.9272 10.353C36.7179 10.353 36.5125 10.2514 36.3881 10.0633C32.9227 4.81593 26.4321 1.29066 20.2371 1.29066C14.484 1.29066 9.15961 3.91072 5.62932 8.47893C5.4113 8.7609 5.00606 8.81216 4.72441 8.59471C4.44216 8.37698 4.3906 7.97174 4.60834 7.68951C8.38452 2.80307 14.0807 0 20.2366 0C26.8471 0 33.7708 3.75834 37.4648 9.35216C37.6612 9.64939 37.5794 10.0494 37.2819 10.2462C37.1721 10.3182 37.0489 10.3527 36.927 10.3527L36.9272 10.353Z" fill="#0155B3"/>
<path d="M36.9264 10.3531H33.8893C33.5333 10.3531 33.2441 10.0639 33.2441 9.7079C33.2441 9.35191 33.5333 9.06274 33.8893 9.06274H36.2758L36.2579 6.86435C36.255 6.50836 36.5413 6.21689 36.8979 6.21401C37.2395 6.21113 37.5453 6.49742 37.5482 6.85398L37.5713 9.70306C37.5724 9.875 37.505 10.0406 37.3841 10.1627C37.2631 10.2846 37.0983 10.3531 36.9264 10.3531L36.9264 10.3531Z" fill="#0155B3"/>
<path d="M25.1613 38.8372C24.8866 38.8372 24.632 38.6603 24.5455 38.3844C24.4396 38.0445 24.6288 37.6825 24.9692 37.5762C32.9308 35.0887 38.7099 27.6239 38.7099 19.8253C38.7099 17.5329 38.298 15.2959 37.4861 13.1758C37.3588 12.8432 37.5253 12.4699 37.8576 12.3426C38.19 12.2147 38.5636 12.3817 38.6909 12.7141C39.5595 14.982 40.0002 17.3742 40.0002 19.8247C40.0002 28.1726 33.8407 36.1556 25.3541 38.807C25.2899 38.8274 25.2251 38.8369 25.1614 38.8369L25.1613 38.8372Z" fill="#0155B3"/>
<path d="M27.7536 39.9999C27.6652 39.9999 27.5756 39.9814 27.4901 39.9431L24.898 38.7807C24.7263 38.7038 24.597 38.556 24.5434 38.3757C24.4899 38.1957 24.5172 38.0013 24.6189 37.8432L26.1575 35.4489C26.3504 35.1493 26.749 35.0624 27.0492 35.2547C27.3487 35.4474 27.436 35.8463 27.2433 36.1465L26.1097 37.91L28.0181 38.7656C28.3432 38.9114 28.4884 39.293 28.3427 39.6181C28.2352 39.858 27.9999 39.9998 27.7537 39.9998L27.7536 39.9999Z" fill="#0155B3"/>
<path d="M20.2367 39.6512C9.3399 39.6512 0.473633 30.7577 0.473633 19.8262C0.473633 17.3918 1.62193 14.4031 2.46034 12.2207L2.57411 11.9243C2.70199 11.5917 3.0741 11.4246 3.40735 11.5528C3.74001 11.6807 3.90648 12.0534 3.7789 12.386L3.66484 12.6836C2.86271 14.7717 1.76396 17.6314 1.76396 19.8261C1.76396 30.046 10.0507 38.3608 20.2368 38.3608C20.4928 38.3608 20.7477 38.3556 21.0017 38.3452C21.3623 38.3314 21.6581 38.6076 21.6728 38.9636C21.6872 39.3196 21.4104 39.62 21.0544 39.6347C20.7831 39.6456 20.5104 39.6511 20.2368 39.6511L20.2367 39.6512Z" fill="#0155B3"/>
<path d="M4.3805 15.5062C4.13338 15.5062 3.89749 15.3633 3.79064 15.1228L2.86383 13.0379L0.938171 14.0189C0.621065 14.1799 0.232247 14.0543 0.0703466 13.7366C-0.0912296 13.4193 0.0349202 13.0307 0.352599 12.8688L2.88456 11.5791C3.04267 11.4987 3.22614 11.4866 3.3929 11.546C3.55966 11.605 3.69503 11.7303 3.76674 11.8919L4.96946 14.5984C5.11433 14.9241 4.96744 15.3052 4.64199 15.45C4.55702 15.4886 4.46831 15.5062 4.38047 15.5062L4.3805 15.5062Z" fill="#0155B3"/>
</svg>
