<svg width="20" height="24" viewBox="0 0 20 24" fill="none" xmlns="http://www.w3.org/2000/svg">
<path d="M1.52702 0C0.689135 0.0953657 0.0163152 0.904239 0 1.88635C0.183108 8.5425 1.92065 13.9022 5.07801 17.5721C8.23558 21.2416 12.7681 23.1656 18.3948 23.1538C19.3181 23.1588 19.9545 22.2126 19.9716 21.2587C19.981 19.686 19.991 18.1094 20 16.5386C20 15.4411 19.1799 14.7289 18.4232 14.721C17.2578 14.7266 15.6328 14.2129 14.318 13.8166C14.0935 13.7508 13.8432 13.835 13.6788 14.0319L11.5126 16.5816C8.90289 14.681 7.70769 13.2808 6.10052 10.2164L8.25247 7.69265C8.4267 7.48866 8.5001 7.16658 8.43716 6.88302C8.08283 5.27428 7.49863 3.17815 7.59202 1.70595C7.49975 0.556739 6.60052 -0.00561112 5.88744 0.000541509H1.52657L1.52702 0ZM1.53415 1.65392H5.91653C6.13674 1.65892 6.13674 1.65892 6.24328 1.90368C6.20285 3.67795 6.68289 5.47028 7.01025 6.84793L4.75177 9.51817C4.53172 9.77735 4.48512 10.2259 4.64524 10.5431C6.58792 14.3622 8.0287 16.0569 11.2647 18.3471C11.5193 18.5265 11.8698 18.4748 12.0814 18.2266L14.3614 15.5306C15.5979 15.9096 17.0815 16.3812 18.4308 16.3746C18.5287 16.3969 18.625 16.565 18.6368 16.5813L18.6084 21.25C18.561 21.3846 18.6368 21.505 18.3527 21.4998C13.0031 21.4998 8.87523 19.6892 6.02291 16.3749C3.16291 13.0514 1.53825 8.16682 1.36373 1.82666C1.36373 1.65939 1.36373 1.65939 1.53416 1.65439L1.53415 1.65392Z" fill="white"/>
</svg>
