<svg width="20" height="26" viewBox="0 0 20 26" fill="none" xmlns="http://www.w3.org/2000/svg">
<path d="M10.0442 6.47803C9.06337 6.47803 8.12288 6.87828 7.42937 7.59109C6.7359 8.3037 6.34619 9.27019 6.34619 10.2781C6.34619 11.286 6.73589 12.2524 7.42937 12.9651C8.12283 13.6777 9.06337 14.0781 10.0442 14.0781C11.025 14.0781 11.9655 13.6777 12.659 12.9651C13.3525 12.2525 13.7422 11.286 13.7422 10.2781C13.7422 9.27019 13.3525 8.30375 12.659 7.59109C11.9655 6.87828 11.025 6.47803 10.0442 6.47803ZM10.0442 12.3242C9.51617 12.3242 9.00963 12.1087 8.63618 11.7249C8.26274 11.3412 8.05304 10.8207 8.05304 10.2781C8.05304 9.73532 8.26277 9.21496 8.63618 8.83121C9.00961 8.44747 9.51617 8.23198 10.0442 8.23198C10.5724 8.23198 11.0788 8.4475 11.4522 8.83121C11.8256 9.21494 12.0353 9.73527 12.0353 10.2781C12.0353 10.8207 11.8256 11.3412 11.4522 11.7249C11.0788 12.1087 10.5724 12.3242 10.0442 12.3242Z" fill="white"/>
<path d="M10.0757 0.00306282H9.92488C7.41785 0.0322197 5.01196 1.02456 3.18072 2.78461C1.34948 4.54465 0.226026 6.94531 0.0305636 9.51389C-0.164883 12.0826 0.582155 14.6333 2.12487 16.6644L2.15325 16.6995L9.31596 25.1763C9.47947 25.3643 9.7136 25.4708 9.95884 25.4687C10.2031 25.4699 10.436 25.3635 10.599 25.1763L17.844 16.6995L17.8753 16.6616H17.8751C19.4178 14.6303 20.1649 12.0796 19.9694 9.51104C19.774 6.94235 18.6503 4.5419 16.8193 2.78175C14.9882 1.0215 12.5824 0.0293871 10.0751 0L10.0757 0.00306282ZM16.544 15.5626L9.96443 23.2648L3.45902 15.5657C2.17642 13.8774 1.55875 11.7553 1.72881 9.62095C1.89886 7.48634 2.84413 5.49574 4.37674 4.04418C5.90956 2.59284 7.91736 1.78706 10.0014 1.78706C12.0854 1.78706 14.0934 2.59289 15.626 4.04418C17.1586 5.49553 18.1039 7.48613 18.2739 9.62095C18.444 11.7556 17.8263 13.8777 16.5437 15.5657L16.544 15.5626Z" fill="white"/>
</svg>
