<svg width="20" height="29" viewBox="0 0 20 29" fill="none" xmlns="http://www.w3.org/2000/svg">
<path d="M10 14.041C8.625 14.041 7.5 12.7844 7.5 11.2486C7.5 9.71279 8.625 8.45623 10 8.45623C11.375 8.45623 12.5 9.71279 12.5 11.2486C12.5 12.7844 11.375 14.041 10 14.041ZM17.5 11.5278C17.5 6.45968 14.1875 2.87148 10 2.87148C5.8125 2.87148 2.5 6.45968 2.5 11.5278C2.5 14.7949 4.9375 19.1231 10 24.289C15.0625 19.1231 17.5 14.7949 17.5 11.5278ZM10 0.0791016C15.25 0.0791016 20 4.57482 20 11.5278C20 16.1632 16.6625 21.6502 10 28.0028C3.3375 21.6502 0 16.1632 0 11.5278C0 4.57482 4.75 0.0791016 10 0.0791016Z" fill="white"/>
</svg>
