<svg width="24" height="24" viewBox="0 0 24 24" fill="none" xmlns="http://www.w3.org/2000/svg">
<path d="M12 0.592651C13.5127 0.592651 14.9635 1.19358 16.0331 2.26323C17.1028 3.33288 17.7037 4.78364 17.7037 6.29636C17.7037 7.80907 17.1028 9.25983 16.0331 10.3295C14.9635 11.3991 13.5127 12.0001 12 12.0001C10.4873 12.0001 9.03652 11.3991 7.96687 10.3295C6.89722 9.25983 6.29629 7.80907 6.29629 6.29636C6.29629 4.78364 6.89722 3.33288 7.96687 2.26323C9.03652 1.19358 10.4873 0.592651 12 0.592651ZM12 14.8519C18.3026 14.8519 23.4074 17.4043 23.4074 20.5556V23.4075H0.59259V20.5556C0.59259 17.4043 5.6974 14.8519 12 14.8519Z" fill="white"/>
</svg>
