<svg width="70" height="70" viewBox="0 0 70 70" fill="none" xmlns="http://www.w3.org/2000/svg">
<path fill-rule="evenodd" clip-rule="evenodd" d="M69.7037 30.5304C69.3323 27.6259 65.7731 26.4181 63.7085 28.4938C62.9242 29.281 62.6027 30.3905 62.7352 31.4965C63.439 37.211 62.2247 41.8381 61.5913 43.7804C57.3217 56.5893 44.0923 65.3035 29.391 62.4335C18.5066 60.3339 9.69211 51.5499 7.55293 40.6311C4.05374 22.7476 17.7055 6.99842 34.9911 6.99842C39.5368 6.99842 43.8278 8.09404 47.6213 10.0259L47.5093 10.138C46.7322 10.9179 46.5645 12.1257 47.1072 13.0843L48.8568 16.1924L47.1416 17.9105C43.0895 15.0236 37.9902 13.5076 32.471 14.1411C23.3232 15.195 15.722 22.4534 14.269 31.5486C12.2221 44.3647 21.8394 55.4939 34.1591 55.9777C44.2414 56.3731 53.5149 49.2686 55.5416 39.3816C55.6332 38.951 55.7064 38.5174 55.7694 38.0868C56.252 34.7238 52.2064 32.6586 49.8022 35.0593C49.2565 35.6093 48.9453 36.3337 48.8296 37.1033C47.8248 43.8403 42.0048 48.9954 34.9916 48.9954C27.296 48.9954 20.9926 42.7308 20.9926 34.9964C20.9926 27.2627 27.296 20.9981 34.9916 20.9981C37.5887 20.9981 40.0272 21.7048 42.1138 22.9402L32.5317 32.5223C31.1629 33.8874 31.1629 36.1029 32.5317 37.4709C33.2135 38.1535 34.1099 38.4963 35.0055 38.4963C35.9011 38.4963 36.7976 38.1535 37.4801 37.4709L47.0476 27.9027C47.0549 27.9101 47.0622 27.9166 47.0651 27.9276L52.1396 22.8532C52.133 22.8422 52.1293 22.8356 52.1227 22.8283L53.8057 21.1417L56.9138 22.8913C57.8761 23.434 59.0801 23.2692 59.8601 22.4892L69.5931 12.7562C70.2434 12.1051 70.0933 11.0132 69.2921 10.5583L62.9887 7.00929L59.4368 0.706661C58.9857 -0.0945305 57.8967 -0.241742 57.2427 0.405656L52.7527 4.89945C45.6306 0.682569 36.9162 -1.13077 27.6768 0.734503C14.0659 3.46464 3.25145 14.5233 0.658554 28.1371C-3.60744 50.4645 13.4324 69.9927 34.9905 69.9927C54.3444 69.9927 69.988 54.3144 69.988 34.9952C69.988 33.4836 69.8936 31.9925 69.7046 30.5301" fill="#002248"/>
</svg>
