<svg width="70" height="46" viewBox="0 0 70 46" fill="none" xmlns="http://www.w3.org/2000/svg">
<path d="M13.9425 0.0105883C13.4239 0.02578 12.9209 0.318755 12.6535 0.762547L0.203328 21.7223C-0.192727 22.3858 0.00910693 23.338 0.641149 23.7845L6.08823 27.6663C6.78376 28.1622 7.88351 27.9354 8.32559 27.2051L9.63852 25.022C10.3541 25.7745 11.0871 26.5058 11.8271 27.2296C10.5999 28.7835 10.3813 30.8157 11.1218 32.5182C11.7251 33.9055 13.0191 35.047 14.6966 35.5021C14.9272 37.7303 16.82 39.5678 19.0738 39.6992C19.4465 40.8862 20.0655 41.9285 21.092 42.4406C22.176 42.9809 23.3923 43.007 24.6423 42.8529C24.9889 43.8154 26.01 44.6373 26.8064 44.939C28.8518 45.5315 30.9953 44.5196 32.278 43.0222C33.9511 44.2765 36.437 44.8191 38.2112 44.7447C40.0921 44.6405 42.0799 43.7459 43.5123 41.955C44.7498 42.0624 45.9938 41.86 46.9655 41.1059C47.8639 40.4088 48.3825 39.3351 48.6918 38.122C49.9885 38.1757 51.2411 37.982 52.2178 37.2241C53.1314 36.515 53.5063 35.3768 53.6284 34.143C55.1128 33.8875 56.4207 32.9619 57.1055 31.6929C57.705 30.5818 57.9111 29.2145 57.616 27.8598L60.1692 25.7494L60.8501 27.1079C61.2423 27.8718 62.3345 28.1707 63.0631 27.7145L69.2881 23.8332C69.9516 23.4165 70.2007 22.4568 69.8231 21.771L58.151 0.811269C57.8553 0.267644 57.2102 -0.0643842 56.5944 0.0104908C54.3435 0.936602 52.0979 2.18063 49.8828 3.28577C49.1493 3.64602 48.8124 4.6421 49.1775 5.3723L49.9555 6.94896C47.2395 7.24248 44.2995 6.48727 41.9065 6.05162C37.5656 5.26439 32.4327 4.54662 27.9731 7.21589C27.8044 7.31626 27.6552 7.44864 27.5353 7.60381C27.117 8.16045 26.6569 8.77244 26.198 9.37464C24.9512 9.02525 23.6942 8.77352 22.4289 8.6471L20.7753 7.41013L21.5289 6.29413C21.9743 5.60402 21.7416 4.56885 21.0428 4.13482C19.1482 3.20709 16.0325 0.866629 13.9421 0.0105184L13.9425 0.0105883ZM41.3481 9.10781C44.7704 9.61725 48.2729 10.742 51.4397 9.78706L58.7109 22.936L55.9385 25.2162C49.6332 21.0257 44.2789 16.4065 37.7246 13.4258C36.0189 12.6592 34.6577 12.0863 33.08 12.4796C32.748 12.5578 32.4436 12.7487 32.2288 13.0135C30.783 14.8163 28.9649 16.4368 27.3167 17.2588C26.2143 17.8089 25.3598 17.8859 24.5932 17.7438C25.6387 15.4157 27.8728 12.3803 29.8217 9.78644C33.5532 7.92282 37.6732 8.44692 41.3478 9.10719L41.3481 9.10781ZM19.0981 10.0296L20.8488 11.3398C21.0864 11.521 21.3772 11.6322 21.6756 11.655C22.5127 11.7147 23.365 11.8454 24.2288 12.0429C22.8302 14.0514 21.5802 16.1765 21.043 18.2533C20.8943 18.8452 21.1352 19.5158 21.6267 19.8788C23.7476 21.4657 26.4607 21.1429 28.703 20.0242C30.7087 19.0237 32.5142 17.3767 34.0767 15.5601C34.2492 15.5845 35.1173 15.6605 36.4595 16.2638C42.7806 19.4159 48.8749 23.9331 54.2345 27.8112C54.7233 28.7313 54.6919 29.6156 54.356 30.2374C53.9936 30.9091 53.4809 31.2454 52.7269 31.1353L42.0757 24.3184C41.0156 23.7145 39.9485 24.3726 39.6945 25.1891C39.5138 25.8396 39.8166 26.5926 40.3982 26.9383L50.7084 33.5611C50.7839 34.2479 50.5923 34.5436 50.295 34.7742C49.9413 35.0487 49.1465 35.2608 48.0093 35.0167L39.6445 30.48C38.7623 30.085 37.7434 30.5158 37.3582 31.4409C37.1906 32.1147 37.5411 32.8813 38.1606 33.1971L45.7963 37.3453C45.6569 37.9844 45.3731 38.3989 45.0427 38.6555C44.6 38.999 44.0515 39.1286 43.3647 38.9225L37.3827 35.1866C36.3248 34.5828 35.3222 35.2772 35.0222 36.0693C34.8475 36.7171 35.1513 37.4636 35.7291 37.8065L40.4709 40.7661C39.758 41.3526 38.9334 41.5897 38.0392 41.6396C36.69 41.7145 35.1871 41.2224 34.3185 40.6451C35.2099 38.9563 35.2002 36.9256 34.0266 35.5264C33.221 34.6052 32.2644 34.1478 31.2787 33.8039C31.3574 32.7953 31.2782 31.777 30.6706 30.8682C29.9842 29.8417 28.7153 29.3122 27.2661 29.0247C27.2623 26.6951 25.8229 25.1808 23.935 24.8765C22.4707 24.6677 21.0454 25.2867 19.8253 26.4532C19.2127 25.5575 18.4185 24.869 17.3936 24.6097C16.2033 24.3357 15.07 24.7182 14.1107 25.2163C13.145 24.2804 12.2081 23.3114 11.29 22.3295L19.0981 10.0296ZM16.642 27.6171C17.2577 27.6947 17.4482 28.0636 17.7851 29.1699L15.5477 32.5417C14.6694 32.3632 14.2158 31.8765 13.9673 31.3047C13.6532 30.5826 13.7519 29.6864 14.3807 29C15.0697 28.3256 15.8581 27.699 16.642 27.617L16.642 27.6171ZM23.9857 28.2963C24.5641 28.8448 24.5711 29.7254 24.1317 30.504L19.7789 36.1805C19.3763 36.4577 18.4481 36.4512 18.1469 36.123C17.8334 35.7807 17.6234 35.0319 17.931 34.5556C19.3345 32.4842 20.5721 30.4237 22.1188 28.6338C22.6179 28.0886 23.3932 27.8531 23.9856 28.2969L23.9857 28.2963ZM26.5634 32.4445C26.9583 32.1722 27.6891 32.2004 28.071 32.5899C28.3396 32.8639 28.4871 33.6538 28.1437 34.2881L24.7148 39.7466C24.028 40.1942 22.9098 40.0347 22.4774 39.6733C22.1026 39.4862 21.9159 38.7212 22.1612 38.0967C23.7117 35.9249 25.1891 34.3033 26.5627 32.444L26.5634 32.4445ZM29.9986 37.239C30.3556 36.8798 30.9535 36.9845 31.2253 37.1451C31.7152 37.4245 31.9919 38.0235 31.7998 38.4456C31.1162 39.8936 30.5227 40.7856 28.9125 41.8028C28.5213 42.0328 28.0455 42.1299 27.8524 42.0269C27.535 41.8294 27.4107 41.3785 27.548 41.0156L29.9986 37.239Z" fill="#14213D"/>
</svg>
