<svg width="70" height="64" viewBox="0 0 70 64" fill="none" xmlns="http://www.w3.org/2000/svg">
<path d="M20.5496 0.000471423C19.7301 0.078154 19.1047 0.767852 19.1086 1.59069V30.3651C18.3284 30.2525 17.5333 30.1909 16.7232 30.1909C7.51954 30.1909 0 37.7106 0 46.9141C0 56.1171 7.5201 63.6372 16.7232 63.6372C25.6637 63.6372 33.0103 56.5509 33.4222 47.7095H68.4098H68.4092C69.2876 47.7095 69.9994 46.9976 70 46.1193V1.59188C69.9994 0.714073 69.2875 0.0022328 68.4092 0.00166461H20.6985H20.6991C20.6491 -0.000554871 20.5997 -0.000554871 20.5498 0.00166461L20.5496 0.000471423ZM22.2891 3.18104H35.0117V36.5763H29.8182C27.8795 34.1292 25.2838 32.2228 22.2886 31.1596V3.18062L22.2891 3.18104ZM38.1927 3.18104H50.9153V36.5763H38.1927V3.18104ZM54.0963 3.18104H66.8188V36.5763H54.0963V3.18104ZM28.65 4.77126C26.0338 4.77126 23.8786 6.92583 23.8786 9.54204C23.8786 12.1583 26.0338 14.3128 28.65 14.3128C31.2662 14.3128 33.4214 12.1583 33.4214 9.54204C33.4214 6.92583 31.2662 4.77126 28.65 4.77126ZM44.5536 4.77126C41.9373 4.77126 39.7822 6.92583 39.7822 9.54204C39.7822 12.1583 41.9373 14.3128 44.5536 14.3128C47.1698 14.3128 49.3249 12.1583 49.3249 9.54204C49.3249 6.92583 47.1698 4.77126 44.5536 4.77126ZM60.4571 4.77126C57.8409 4.77126 55.6858 6.92583 55.6858 9.54204C55.6858 12.1583 57.8409 14.3128 60.4571 14.3128C63.0734 14.3128 65.2285 12.1583 65.2285 9.54204C65.2285 6.92583 63.0734 4.77126 60.4571 4.77126ZM28.65 7.95183C29.5472 7.95183 30.2402 8.64486 30.2402 9.54204C30.2402 10.4392 29.5472 11.1323 28.65 11.1323C27.7528 11.1323 27.0598 10.4392 27.0598 9.54204C27.0598 8.64486 27.7528 7.95183 28.65 7.95183ZM44.5536 7.95183C45.4508 7.95183 46.1438 8.64486 46.1438 9.54204C46.1438 10.4392 45.4507 11.1323 44.5536 11.1323C43.6564 11.1323 42.9634 10.4392 42.9634 9.54204C42.9634 8.64486 43.6564 7.95183 44.5536 7.95183ZM60.4571 7.95183C61.3544 7.95183 62.0474 8.64486 62.0474 9.54204C62.0474 10.4392 61.3543 11.1323 60.4571 11.1323C59.5599 11.1323 58.8669 10.4392 58.8669 9.54204C58.8669 8.64486 59.56 7.95183 60.4571 7.95183ZM25.3204 15.9032C24.4421 15.9448 23.7634 16.69 23.8045 17.5684C23.8456 18.4468 24.5913 19.1254 25.4691 19.0838H31.8307C32.2563 19.0899 32.6669 18.9251 32.9699 18.626C33.2734 18.3275 33.4437 17.9196 33.4437 17.4935C33.4437 17.0679 33.2734 16.6601 32.9699 16.361C32.6669 16.0625 32.2563 15.8977 31.8307 15.9032H25.4691C25.4198 15.901 25.3698 15.901 25.3204 15.9032L25.3204 15.9032ZM41.224 15.9032C40.8017 15.9232 40.4056 16.1096 40.1209 16.422C39.8368 16.7338 39.6881 17.1467 39.7081 17.5683C39.7492 18.4467 40.4944 19.1253 41.3727 19.0837H47.7343C48.1599 19.0898 48.5705 18.925 48.8735 18.6259C49.1764 18.3274 49.3473 17.9196 49.3473 17.4934C49.3473 17.0678 49.1764 16.66 48.8735 16.3609C48.5705 16.0624 48.1599 15.8976 47.7343 15.9032H41.3727C41.3234 15.9009 41.2734 15.9009 41.224 15.9032L41.224 15.9032ZM57.1276 15.9032H57.127C56.7053 15.9232 56.3086 16.1096 56.0245 16.422C55.7404 16.7338 55.5917 17.1467 55.6117 17.5683C55.6527 18.4467 56.3979 19.1253 57.2763 19.0837H63.6379C64.0635 19.0898 64.4741 18.925 64.777 18.6259C65.08 18.3274 65.2509 17.9196 65.2509 17.4934C65.2509 17.0678 65.08 16.66 64.777 16.3609C64.4741 16.0624 64.0635 15.8976 63.6379 15.9032H57.2763C57.2269 15.9009 57.177 15.9009 57.127 15.9032L57.1276 15.9032ZM16.7223 33.4204C24.2069 33.4204 30.2156 39.4286 30.2156 46.9126C30.2156 54.3966 24.2069 60.4048 16.7223 60.4048C9.23773 60.4048 3.22901 54.3966 3.22901 46.9126C3.22901 39.4286 9.23773 33.4204 16.7223 33.4204ZM17.3438 34.9858H17.3432C17.1141 35.013 16.8938 35.089 16.6974 35.2094L12.7217 37.5948H12.7212C12.3522 37.82 12.0909 38.1857 11.9976 38.6074C11.9039 39.0291 11.9854 39.4713 12.2246 39.8315L13.0941 41.1237L12.4232 41.7946C11.8839 42.3312 11.8007 43.1751 12.2246 43.8071L13.5418 45.7702V46.5653C12.9731 46.7706 12.3544 47.052 11.7279 47.6091C8.91637 50.1082 8.91637 54.4773 11.7279 56.9769C14.5394 59.4761 18.9057 59.4761 21.7172 56.9769C24.5287 54.4777 24.5287 50.1087 21.7172 47.6091C21.3748 47.3044 21.043 47.0725 20.6985 46.8389V38.962L20.6979 38.9614C20.6985 38.6429 20.603 38.3311 20.4243 38.067L18.8341 35.6816C18.5051 35.1911 17.9308 34.9231 17.3432 34.9858H17.3438ZM17.0458 38.6878L17.518 39.4086V47.7078H17.5174C17.5219 48.2399 17.7927 48.7343 18.2377 49.025C18.2377 49.025 18.5317 49.2254 18.8591 49.4473C19.1865 49.6698 19.6054 49.9694 19.6049 49.9689C21.1341 51.3283 21.1341 53.256 19.6049 54.6154C18.0756 55.9748 15.369 55.9748 13.8398 54.6154C12.3105 53.256 12.3105 51.3283 13.8398 49.9689C13.8592 49.9511 14.955 49.4595 15.6785 49.1987C16.3044 48.9696 16.7211 48.3747 16.7217 47.7078V45.3224C16.7228 45.0039 16.6274 44.6921 16.4487 44.428L15.5792 43.1357L16.2501 42.4648V42.4654C16.7889 41.9283 16.8726 41.0843 16.4487 40.4523L15.7779 39.4585L17.0452 38.6883L17.0458 38.6878ZM31.8059 39.7565H35.0113V44.5272H33.2718C33.0288 42.8399 32.5166 41.2436 31.8059 39.7565ZM38.1925 39.7565H50.915V44.5272H38.1925V39.7565ZM54.096 39.7565H66.8186V44.5272H54.096V39.7565Z" fill="#002248"/>
</svg>
