<svg width="70" height="71" viewBox="0 0 70 71" fill="none" xmlns="http://www.w3.org/2000/svg">
<path d="M65.8312 53.6731C64.324 52.3489 50.8942 47.3693 45.2685 45.1107C47.711 42.0784 49.3577 38.535 50.0123 35.9942C50.9708 35.0511 51.6717 33.2979 51.7326 31.5996C51.7798 30.2666 51.4261 29.0966 50.723 28.2239L51.3464 26.0741C51.3464 26.0741 53.0893 25.9269 53.315 25.6704C53.5407 25.4139 53.6451 25.0717 53.6017 24.7328L53.0112 20.1653C52.9459 19.6638 52.574 19.2705 52.0995 19.1607H48.1909C47.5588 19.1607 47.6159 18.8168 47.6159 18.3961C47.6159 17.9754 47.5582 17.6315 48.1909 17.6315H51.9061C51.0619 10.9641 49.4345 5.70719 43.1725 3.06865C41.5714 0.533331 39.4227 0 36.7143 0H33.0403C29.3542 0 26.8316 1.20232 25.5325 3.57513C20.0922 6.35216 18.7212 11.0187 17.9456 17.6306H22.5599C23.1921 17.6306 23.1349 17.9744 23.1349 18.3951C23.1349 18.8159 23.1926 19.1597 22.5599 19.1597H17.8226C17.8067 19.1597 17.7929 19.1575 17.7776 19.1564V19.1597C17.3068 19.2723 16.9389 19.665 16.8746 20.1643L16.2847 24.7318C16.2407 25.0713 16.3451 25.4129 16.5714 25.6694C16.7971 25.927 18.7739 26.0731 18.7739 26.0731L19.5764 28.3888C18.8491 29.1819 18.4603 30.2332 18.463 31.4306C18.468 33.1179 19.2798 35.0299 20.3711 36.0378C20.8099 37.7153 22.0485 41.6748 24.6689 45.1681C15.408 48.7619 4.9471 52.9241 4.17796 53.6722C2.68947 55.1217 0.774237 64.8171 0.0195876 68.9184C-0.0441253 69.2655 0.0492473 69.6231 0.275538 69.895C0.501286 70.1669 0.836878 70.3234 1.1895 70.3234H68.7944C68.7999 70.3229 68.8054 70.3234 68.8103 70.3234C69.4672 70.3234 70 69.7912 70 69.1337C69.9989 69.0096 67.4042 55.0545 65.8312 53.6723L65.8312 53.6731ZM29.5582 12.2609C29.5582 9.40585 31.8821 7.08201 34.7371 7.08201H34.864C37.7191 7.08201 40.0418 9.40487 40.0418 12.2609V12.3878C40.0418 15.2429 37.7189 17.5667 34.864 17.5667H34.7371C31.8821 17.5667 29.5582 15.2439 29.5582 12.3878V12.2609ZM25.2895 60.2537L27.9423 55.9386C28.017 55.7244 27.9786 55.4877 27.8407 55.307C27.7028 55.1268 27.4777 55.0285 27.2574 55.045L20.7779 55.4251L21.3991 49.0015C23.2094 48.2902 24.967 47.6047 26.544 46.9929L32.8648 69.0826L25.2895 60.2537ZM28.0973 47.4242C29.1947 48.2882 30.3531 48.9265 31.5664 49.3417C31.5938 50.6418 31.9113 51.7545 32.4957 52.5708L31.2204 57.2048L28.0973 47.4242ZM22.5855 35.088C22.5163 34.8013 22.3439 34.5508 22.1005 34.3838C21.6024 34.0427 20.846 32.6878 20.8422 31.4233C20.84 30.7241 21.0674 30.21 21.5123 29.8403H22.4707C22.7597 29.8403 23.8889 27.0655 23.8889 27.0655C23.8889 27.0655 25.2291 28.4167 25.2725 28.4167H44.8973C44.9446 28.4167 46.399 26.9634 46.399 26.9634C46.399 26.9634 47.4547 29.8404 47.7535 29.8404H48.9574C49.3046 30.3539 49.3732 31.0059 49.3551 31.5129C49.3073 32.8333 48.6828 34.0698 48.255 34.3746C48.0171 34.5438 47.8502 34.7953 47.7859 35.0804C47.2152 37.5976 42.4636 48.5679 35.0339 48.5679C25.986 48.5679 22.9168 36.4684 22.5851 35.0881L22.5855 35.088ZM41.8391 47.2688L38.71 57.2664L37.3858 52.5681C37.9273 51.814 38.2937 50.7353 38.3234 49.3044C39.518 48.8606 40.6967 48.1779 41.8391 47.2688ZM37.0887 69.2559L43.3634 46.9103C45.2792 47.6754 46.6507 48.2208 48.5627 49.0007L49.1861 55.1809L43.2837 55.043C43.0492 55.0255 42.8383 55.126 42.7004 55.305C42.5625 55.4852 42.5241 55.7225 42.5988 55.9367L45.2479 60.2385L37.0887 69.2559ZM57.2113 64.9552H47.5049C47.1325 64.9552 46.8309 64.6526 46.8309 64.2813C46.8309 63.9094 47.1336 63.6073 47.5049 63.6073H57.2113C57.5836 63.6073 57.8852 63.91 57.8852 64.2813C57.8852 64.6531 57.5831 64.9552 57.2113 64.9552Z" fill="#002248"/>
</svg>
