<svg width="81" height="81" viewBox="0 0 81 81" fill="none" xmlns="http://www.w3.org/2000/svg">
<path d="M65.6101 40.6687C64.7162 46.9859 62.2092 52.9662 58.3312 58.0325C54.4531 63.0988 49.3348 67.0801 43.4701 69.5925L40.5001 70.875L37.5301 69.5925C31.6654 67.0801 26.5472 63.0988 22.6691 58.0325C18.7911 52.9662 16.2841 46.9859 15.3901 40.6687C20.061 49.4072 27.8046 56.1047 37.1251 59.4675L40.5001 60.75L43.8751 59.4675C53.1956 56.1047 60.9392 49.4072 65.6101 40.6687Z" fill="#E5E5E5"/>
<path d="M64.7326 16.2L40.5001 10.125L16.2676 16.2C15.5188 16.3848 14.8558 16.8205 14.3891 17.4346C13.9224 18.0486 13.6801 18.804 13.7026 19.575L15.1539 38.205C15.6767 44.9602 18.0382 51.4436 21.9825 56.9525C25.9269 62.4615 31.3036 66.786 37.5301 69.4575L40.5001 70.875L43.4701 69.5925C49.6966 66.921 55.0733 62.5965 59.0177 57.0875C62.962 51.5786 65.3235 45.0952 65.8463 38.34L67.2976 19.71C67.3522 18.9165 67.1248 18.1292 66.6555 17.487C66.1862 16.8448 65.5052 16.389 64.7326 16.2V16.2Z" stroke="#14213D" stroke-width="4" stroke-linecap="round" stroke-linejoin="round"/>
<path d="M30.375 37.125L37.125 43.875L50.625 30.375" stroke="#FCA311" stroke-width="4" stroke-linecap="round" stroke-linejoin="round"/>
</svg>
