<svg width="71" height="71" viewBox="0 0 71 71" fill="none" xmlns="http://www.w3.org/2000/svg">
<path d="M60.2316 33.1027C59.4872 33.9955 58.6685 34.8141 57.9247 35.6327V49.9211H5.23656V20.4514H31.2086V19.856V15.3906H2.92959C1.36654 15.3906 0.101562 16.6557 0.101562 18.2187V56.9906C0.101562 58.5536 1.36661 59.8186 2.92959 59.8186H25.9249V64.9536H20.8647C20.1203 64.9536 19.4506 65.6233 19.4506 66.3677V69.0468C19.4506 69.7912 20.046 70.4608 20.8647 70.4608H42.2971C43.0415 70.4608 43.7112 69.8654 43.7112 69.0468V66.3677C43.7112 65.6233 43.0416 64.9536 42.2971 64.9536H37.237V59.8186H60.2322C61.7953 59.8186 63.0603 58.5536 63.0603 56.9906L63.0597 33.0279C62.6133 33.1021 62.1669 33.1021 61.7205 33.1021L60.2316 33.1027ZM31.5805 56.7677C30.4644 56.7677 29.6458 55.8748 29.6458 54.8329C29.6458 53.7169 30.5386 52.8982 31.5805 52.8982C32.6224 52.8982 33.5153 53.791 33.5153 54.8329C33.5158 55.8748 32.6224 56.7677 31.5805 56.7677Z" fill="#323232"/>
<path d="M61.6454 0.433105H44.3804C39.3202 0.433105 35.2271 4.52625 35.2271 9.58642V19.8563C35.2271 24.9165 39.3202 29.0096 44.3804 29.0096H45.4964C45.4222 30.0514 45.1242 31.2423 44.6778 32.5073C44.1566 33.9213 44.5288 35.4837 45.6454 36.4514C46.315 37.0469 47.1336 37.3443 47.9522 37.3443C48.5476 37.3443 49.143 37.1953 49.6637 36.8979C53.1614 34.8884 56.2127 31.6887 58.2216 29.0097H61.5703C66.6304 29.0097 70.7236 24.9165 70.7236 19.8563L70.7246 9.58648C70.7988 4.5263 66.7058 0.433158 61.6456 0.433158L61.6454 0.433105ZM55.3939 25.5121C54.2031 27.0751 52.0452 29.7542 49.4403 31.7631C49.8867 29.7537 49.9615 27.9679 49.8867 26.7029C49.8125 25.5121 48.8449 24.6192 47.7288 24.6192H44.3802C41.7752 24.6192 39.6174 22.4613 39.6174 19.8564V9.58656C39.6174 6.98165 41.7752 4.82379 44.3802 4.82379H61.6452C64.2501 4.82379 66.408 6.98165 66.408 9.58656V19.8564C66.408 22.4613 64.2501 24.6192 61.6452 24.6192H57.1798C56.5102 24.6192 55.8406 24.9914 55.3937 25.5121L55.3939 25.5121Z" fill="#323232"/>
<path d="M46.0925 13.2329H59.9343C61.0504 13.2329 62.018 12.34 62.018 11.1491C62.018 9.95833 61.1252 9.06543 59.9343 9.06543H46.0925C44.9764 9.06543 44.0088 9.95829 44.0088 11.1491C44.0088 12.3394 44.9764 13.2329 46.0925 13.2329Z" fill="#323232"/>
<path d="M59.9343 15.9866H46.0925C44.9764 15.9866 44.0088 16.8794 44.0088 18.0703C44.0088 19.1863 44.9016 20.154 46.0925 20.154H59.9343C61.0504 20.154 62.018 19.2611 62.018 18.0703C62.0185 16.9542 61.0509 15.9866 59.9343 15.9866Z" fill="#323232"/>
</svg>
