<svg width="66" height="66" viewBox="0 0 66 66" fill="none" xmlns="http://www.w3.org/2000/svg">
<path d="M37.8085 45.3499H36.2929V41.3084C36.2929 40.7726 36.08 40.2583 35.7011 39.8795C35.3222 39.5006 34.808 39.2877 34.2722 39.2877H32.7566V35.2462C32.7566 34.7103 32.5437 34.1961 32.1648 33.8172C31.7859 33.4384 31.2717 33.2255 30.7359 33.2255H26.6944C26.3381 33.2268 25.9889 33.3247 25.684 33.5083C25.3791 33.3247 25.03 33.2268 24.6737 33.2255H23.6633V29.184H24.6737C25.2095 29.184 25.7237 28.9711 26.1026 28.5922C26.4815 28.2133 26.6944 27.6991 26.6944 27.1632V23.1218C26.6944 22.5859 26.4815 22.0717 26.1026 21.6928C25.7237 21.3139 25.2095 21.101 24.6737 21.101H23.6633V17.0596C23.6633 16.5237 23.4504 16.0095 23.0715 15.6306C22.6926 15.2517 22.1784 15.0388 21.6426 15.0388H17.6011C17.2447 15.0402 16.8956 15.1381 16.5907 15.3216C16.2858 15.1381 15.9367 15.0402 15.5803 15.0388H8.50776C8.15143 15.0402 7.8023 15.1381 7.49739 15.3216C7.19248 15.1381 6.84335 15.0402 6.48702 15.0388H2.44554C1.90969 15.0388 1.39547 15.2517 1.01659 15.6306C0.63771 16.0095 0.424805 16.5237 0.424805 17.0596V21.101C0.426158 21.4574 0.524038 21.8065 0.707616 22.1114C0.524041 22.4163 0.426156 22.7654 0.424805 23.1218V27.1632C0.426158 27.5196 0.524038 27.8687 0.707616 28.1736C0.524041 28.4785 0.426156 28.8277 0.424805 29.184V33.2255C0.426158 33.5818 0.524038 33.9309 0.707616 34.2358C0.524041 34.5407 0.426156 34.8899 0.424805 35.2462V39.2877C0.426158 39.644 0.524038 39.9931 0.707616 40.298C0.524041 40.6029 0.426156 40.9521 0.424805 41.3084V45.3499C0.426158 45.7062 0.524038 46.0553 0.707616 46.3603C0.524041 46.6652 0.426156 47.0143 0.424805 47.3706V51.4121C0.426158 51.7684 0.524038 52.1175 0.707616 52.4225C0.524041 52.7274 0.426156 53.0765 0.424805 53.4328V57.4743C0.426158 57.8306 0.524038 58.1798 0.707616 58.4847C0.524041 58.7896 0.426156 59.1387 0.424805 59.495V63.5365C0.424805 64.0724 0.63771 64.5866 1.01659 64.9655C1.39547 65.3444 1.90969 65.5573 2.44554 65.5573H9.51813C9.87446 65.5559 10.2236 65.458 10.5285 65.2744C10.8334 65.458 11.1825 65.5559 11.5389 65.5573H37.3027C37.8386 65.5573 38.3528 65.3444 38.7316 64.9655C39.1105 64.5866 39.3234 64.0724 39.3234 63.5365V59.495C39.3234 58.9592 39.1105 58.445 38.7316 58.0661C38.3528 57.6872 37.8386 57.4743 37.3027 57.4743H36.2923V53.4328H37.8079C38.3437 53.4328 38.858 53.2199 39.2368 52.841C39.6157 52.4622 39.8286 51.9479 39.8286 51.4121V47.3706C39.8286 46.8348 39.6157 46.3206 39.2368 45.9417C38.858 45.5628 38.3437 45.3499 37.8079 45.3499H37.8085ZM26.6944 35.2462H30.7359V39.2877H26.6944V35.2462ZM30.2307 41.3084V45.3499H28.21V41.3084H30.2307ZM26.6944 47.3706V51.4121H24.1685V47.3706H26.6944ZM24.6737 35.2462V39.2877H15.0752V35.2462H24.6737ZM15.5803 33.2255V29.184H17.6011V33.2255H15.5803ZM20.6322 23.1218H24.6737V27.1632H20.6322V23.1218ZM15.5803 17.0596H17.6011V21.101H15.5803V17.0596ZM11.5389 23.1218H18.6114V27.1632H11.5389V23.1218ZM6.48702 17.0596H8.50776V21.101H6.48702V17.0596ZM2.44554 23.1218H9.51813V27.1632H2.44554V23.1218ZM8.50776 29.184V33.2255H6.48702V29.184H8.50776ZM6.48702 41.3084H8.50776V45.3499H6.48702V41.3084ZM2.44554 35.2462H4.46628V39.2877H2.44554V35.2462ZM9.51813 63.5365H2.44554V59.495H9.51813V63.5365ZM6.48702 57.4743V53.4328H8.50776V57.4743H6.48702ZM9.51813 51.4121H2.44554V47.3706H9.51813V51.4121ZM6.48702 39.2877V35.2462H13.0544V39.2877H6.48702ZM15.5803 63.5365H11.5389V59.495H15.5803V63.5365ZM13.0544 57.4743V53.4328H15.0752V57.4743H13.0544ZM15.5803 51.4121H11.5389V47.3706H15.5803V51.4121ZM15.5803 41.3084H17.6011V45.3499H15.5803V41.3084ZM22.1477 63.5365H17.6011V59.495H22.1477V63.5365ZM19.1166 57.4743V53.4328H21.1374V57.4743H19.1166ZM22.1477 51.4121H17.6011V47.3706H22.1477V51.4121ZM23.6633 45.3499H21.6426V41.3084H23.6633V45.3499ZM28.21 63.5365H24.1685V59.495H28.21V63.5365ZM28.21 53.4328H30.2307V57.4743H28.21V53.4328ZM37.3033 59.495V63.5365H30.2307V59.495H37.3033ZM37.8085 51.4121H28.7151V47.3706H37.8085V51.4121Z" fill="#0155B3"/>
<path d="M64.5827 8.09757L51.9987 1.02499C51.7953 0.903202 51.5558 0.856748 51.3217 0.893733L29.4423 4.93521C29.2343 4.97355 29.0431 5.07594 28.8965 5.2284L25.9664 8.25951C25.6737 8.54953 25.5866 8.98887 25.7468 9.36911C25.9069 9.74891 26.2817 9.99383 26.694 9.98706H32.7968V21.2982L29.0233 24.9202H29.0228C28.726 25.2062 28.6326 25.6441 28.7873 26.0262C28.9416 26.4087 29.3128 26.6586 29.7251 26.6581H37.808C38.219 26.6586 38.5893 26.41 38.7444 26.0294C38.8996 25.6491 38.8089 25.2125 38.5153 24.9252L34.8176 21.3032V9.98706H48.457L48.4164 10.836L47.5021 20.9396L44.0921 58.485H42.3542C41.7962 58.485 41.3438 58.9374 41.3438 59.4953V64.5472C41.3438 64.8151 41.4503 65.0722 41.6397 65.2616C41.8291 65.4511 42.0863 65.5575 42.3542 65.5575H62.5616C62.8295 65.5575 63.0866 65.4511 63.276 65.2616C63.4655 65.0722 63.5719 64.8151 63.5719 64.5472V59.4953C63.5719 59.2274 63.4655 58.9703 63.276 58.7808C63.0866 58.5914 62.8295 58.485 62.5616 58.485H60.7682L56.6811 22.4246L55.3523 10.6743H55.3527L55.2715 9.98734H64.0771C64.5372 9.9905 64.9413 9.68243 65.0604 9.23813C65.179 8.79339 64.9828 8.32474 64.5823 8.09786L64.5827 8.09757ZM48.4168 32.8372L50.8318 35.4037L47.922 38.3135L48.4168 32.8372ZM54.1002 17.565L54.3275 19.5858H49.9324C49.8328 19.5844 49.734 19.5677 49.6393 19.5352L49.8161 17.5651L54.1002 17.565ZM49.9983 15.5443L50.1801 13.5235H53.6406L53.8729 15.5443H49.9983ZM52.3122 43.6071L48.9879 40.1263L52.2414 36.8777L55.3078 40.1412L52.3122 43.6071ZM52.383 46.608L56.7781 51.2051L52.6306 53.8979L48.4168 51.1748L52.383 46.608ZM49.9626 31.5079L52.2662 29.0324L54.7465 31.5127L52.281 33.9728L49.9626 31.5079ZM52.2157 26.1227L51.1246 25.0365H53.2261L52.2157 26.1227ZM50.8364 27.603L48.7047 29.8912L49.0683 25.8497L50.8364 27.603ZM47.6439 41.6465L50.9831 45.1422L46.9014 49.8503L47.6439 41.6465ZM46.6691 52.4218L50.771 55.0894L46.1585 58.0853L46.6691 52.4218ZM49.2758 58.484L52.6303 56.3068L55.9948 58.484H49.2758ZM58.6569 57.812L54.4791 55.1043L58.0812 52.7651L58.6569 57.812ZM56.8079 41.4948L57.687 49.234L53.7114 45.0711L56.8079 41.4948ZM56.4593 38.4131L53.6709 35.4478L55.8734 33.225L56.4593 38.4131ZM55.4489 29.3198L53.6605 27.5314L55.075 26.0158L55.4489 29.3198ZM29.0685 7.96578L30.1293 6.85934L51.3471 2.96452L60.2383 7.96578H29.0685Z" fill="#0155B3"/>
</svg>
