<svg width="58" height="62" viewBox="0 0 58 62" fill="none" xmlns="http://www.w3.org/2000/svg">
<path d="M27.2256 30.9918C27.2256 33.0728 25.5389 34.76 23.4574 34.76C21.3764 34.76 19.6892 33.0728 19.6892 30.9918C19.6892 28.9104 21.3764 27.2236 23.4574 27.2236C25.5389 27.2236 27.2256 28.9104 27.2256 30.9918Z" fill="#323232"/>
<path d="M49.835 25.3384H57.3714V53.5999H49.835V25.3384Z" fill="#323232"/>
<path d="M49.835 59.3947C49.835 60.3556 50.6169 61.1376 51.5779 61.1376H55.6284C56.5894 61.1376 57.3714 60.3556 57.3714 59.3947V55.4834H49.835V59.3947Z" fill="#323232"/>
<path d="M57.2394 12.603L54.4132 7.89274C54.0742 7.32742 53.1321 7.32742 52.7931 7.89274L49.967 12.603C49.8823 12.7539 49.835 12.9231 49.835 13.0929V23.4535H57.3714V13.0929C57.3714 12.9231 57.3244 12.7534 57.2393 12.603H57.2394Z" fill="#323232"/>
<path d="M45.1247 0.847521H11.9892C12.0918 1.14375 12.153 1.4593 12.153 1.78865V9.32505C12.153 10.8834 10.8852 12.1512 9.32683 12.1512H1.79044C1.46109 12.1512 1.14508 12.09 0.848389 11.9856V16.8597H10.2689C10.7891 16.8597 11.2109 17.281 11.2109 17.8017C11.2109 18.3224 10.7891 18.7438 10.2689 18.7438H0.848389V23.454H7.44274C7.96298 23.454 8.38479 23.8753 8.38479 24.3961C8.38479 24.9168 7.96298 25.3381 7.44274 25.3381H0.848389V30.0484H6.50069C7.02093 30.0484 7.44274 30.4697 7.44274 30.9904C7.44274 31.5111 7.02093 31.9324 6.50069 31.9324H0.848389V36.6427H7.44274C7.96298 36.6427 8.38479 37.064 8.38479 37.5847C8.38479 38.1055 7.96298 38.5268 7.44274 38.5268H0.848389V43.237H10.2689C10.7891 43.237 11.2109 43.6584 11.2109 44.1791C11.2109 44.6998 10.7891 45.1211 10.2689 45.1211H0.848389V49.8314H10.2689C10.7891 49.8314 11.2109 50.2527 11.2109 50.7734C11.2109 51.2941 10.7891 51.7155 10.2689 51.7155H0.848389V60.1966C0.848389 60.7174 1.27019 61.1387 1.79044 61.1387H45.1247C45.645 61.1387 46.0668 60.7174 46.0668 60.1966V51.7155H36.6463C36.126 51.7155 35.7042 51.2941 35.7042 50.7734C35.7042 50.2527 36.126 49.8314 36.6463 49.8314H46.0668V45.1211H36.6463C36.126 45.1211 35.7042 44.6998 35.7042 44.1791C35.7042 43.6584 36.126 43.237 36.6463 43.237H46.0668V38.5268H39.4724C38.9522 38.5268 38.5304 38.1055 38.5304 37.5847C38.5304 37.064 38.9522 36.6427 39.4724 36.6427H46.0668V31.9324H40.4145C39.8942 31.9324 39.4724 31.5111 39.4724 30.9904C39.4724 30.4697 39.8942 30.0484 40.4145 30.0484H46.0668V25.3381H39.4724C38.9522 25.3381 38.5304 24.9168 38.5304 24.3961C38.5304 23.8753 38.9522 23.454 39.4724 23.454H46.0668V18.7438H36.6463C36.126 18.7438 35.7042 18.3224 35.7042 17.8017C35.7042 17.281 36.126 16.8597 36.6463 16.8597H46.0668V1.78922C46.0668 1.26851 45.645 0.847168 45.1247 0.847168L45.1247 0.847521ZM35.7042 29.1078V32.876C35.7042 33.394 35.28 33.8181 34.7621 33.8181H31.6908C31.5776 34.1571 31.4364 34.4869 31.2763 34.8167L33.4525 36.9832C33.82 37.3507 33.82 37.9538 33.4525 38.3208L30.7864 40.9772C30.4188 41.354 29.8158 41.354 29.4488 40.9772L27.2823 38.8108C26.9621 38.9708 26.6227 39.1121 26.2837 39.2252V42.2965C26.2837 42.8145 25.8595 43.2386 25.3416 43.2386H21.5734C21.0555 43.2386 20.6314 42.8145 20.6314 42.2965V39.2252C20.2924 39.112 19.9533 38.9708 19.6327 38.8108L17.4663 40.9772C17.0987 41.354 16.4957 41.354 16.1287 40.9772L13.4625 38.3208C13.2928 38.1419 13.1893 37.9063 13.1893 37.652C13.1893 37.3976 13.2928 37.1621 13.4625 36.9831L15.6387 34.8167C15.4786 34.4869 15.3374 34.157 15.2242 33.818H12.1529C11.635 33.818 11.2109 33.3939 11.2109 32.876V29.1078C11.2109 28.5898 11.635 28.1657 12.1529 28.1657H15.2242C15.3374 27.8267 15.4786 27.4873 15.6387 27.1671L13.4625 24.991C13.095 24.6234 13.095 24.0301 13.4625 23.6626L16.1287 20.9964C16.4865 20.6478 17.1084 20.6478 17.4663 20.9964L19.6327 23.1726C19.9529 23.0125 20.2924 22.8713 20.6314 22.7581V19.6868C20.6314 19.1689 21.0555 18.7448 21.5734 18.7448H25.3416C25.8595 18.7448 26.2837 19.1689 26.2837 19.6868V22.7581C26.6227 22.8713 26.9621 23.0125 27.2823 23.1726L29.4488 20.9964C29.6277 20.8175 29.8729 20.7232 30.1176 20.7232C30.372 20.7232 30.6075 20.8175 30.7864 20.9964L33.4525 23.6626C33.8201 24.0301 33.8201 24.6235 33.4525 24.991L31.2764 27.1671C31.4365 27.4873 31.5777 27.8267 31.6908 28.1657H34.7622C35.2806 28.1657 35.7042 28.5894 35.7042 29.1078L35.7042 29.1078Z" fill="#323232"/>
<path d="M1.79032 10.2668H9.32672C9.84466 10.2668 10.2688 9.84271 10.2688 9.32477V1.78837C10.2688 1.41165 10.0429 1.06297 9.6846 0.921757C9.33593 0.770887 8.93114 0.855979 8.6579 1.11955L1.1215 8.65595C0.857931 8.92918 0.772841 9.33442 0.92371 9.68264C1.06492 10.0405 1.4136 10.2668 1.79032 10.2668Z" fill="#323232"/>
</svg>
