<svg width="70" height="62" viewBox="0 0 70 62" fill="none" xmlns="http://www.w3.org/2000/svg">
<path d="M6.02146 0.324952H14.9827C16.8298 0.324952 18.5042 1.16844 19.6182 2.51164C20.7321 1.16839 22.406 0.324952 24.2531 0.324952H33.2149C35.6073 0.324952 37.7223 1.74297 38.6892 3.84488C39.3691 3.23672 40.1956 2.77459 41.1333 2.52372L49.7895 0.203947C52.9843 -0.65259 56.3052 1.26922 57.1612 4.46159L69.7959 51.6148C70.6524 54.8122 68.7331 58.13 65.5382 58.9865L56.8821 61.3063C53.6872 62.1618 50.3655 60.2415 49.5099 57.0486L39.2361 18.7061V55.1642C39.2361 58.4785 36.529 61.1855 33.2147 61.1855H24.2529C22.4059 61.1855 20.732 60.3425 19.618 58.9992C18.5041 60.3425 16.8297 61.1855 14.9826 61.1855H6.02133C2.70706 61.1855 0 58.4785 0 55.1642V6.34744C0 3.03317 2.70706 0.325081 6.02133 0.325081L6.02146 0.324952ZM56.4991 42.5571C59.8305 41.6649 63.2641 43.65 64.1557 46.9788C65.0488 50.311 63.0658 53.7437 59.734 54.6364C56.4018 55.5295 52.9685 53.543 52.0764 50.2142C51.1843 46.8833 53.1698 43.4487 56.4986 42.5576L56.4991 42.5571ZM57.2137 45.2315C55.3495 45.7313 54.2526 47.6371 54.7514 49.4992C55.2467 51.3473 57.1679 52.4662 59.0191 51.9604C60.8646 51.4666 61.9851 49.5413 61.4803 47.6938C60.986 45.8457 59.0638 44.7267 57.2137 45.2315ZM28.7339 45.7438C26.8105 45.7438 25.2521 47.3019 25.2521 49.2256C25.2521 51.149 26.8102 52.7074 28.7339 52.7074C30.6573 52.7074 32.2157 51.1494 32.2157 49.2256C32.2157 47.3023 30.6576 45.7438 28.7339 45.7438ZM28.7339 42.9715C32.1877 42.9715 34.9881 45.772 34.9881 49.2257C34.9881 52.6795 32.1877 55.48 28.7339 55.48C25.2801 55.48 22.4797 52.6795 22.4797 49.2257C22.4797 45.772 25.2801 42.9715 28.7339 42.9715ZM10.5023 42.9715C13.955 42.9715 16.7565 45.772 16.7565 49.2257C16.7565 52.6795 13.9561 55.48 10.5023 55.48C7.04749 55.48 4.24717 52.6795 4.24717 49.2257C4.24717 45.7756 7.05263 42.9715 10.5023 42.9715ZM10.5023 45.7438C8.57546 45.7438 7.01949 47.2993 7.01949 49.2256C7.01949 51.149 8.57854 52.7074 10.5023 52.7074C12.4256 52.7074 13.9832 51.1494 13.9832 49.2256C13.9832 47.3028 12.4251 45.7438 10.5023 45.7438ZM46.3464 20.9071C44.5861 21.3767 43.8716 18.7033 45.6318 18.2326L53.7486 16.0574C55.5084 15.5867 56.2244 18.2606 54.4632 18.7318L46.3464 20.9071ZM45.0693 16.1397C43.3091 16.6104 42.5945 13.9365 44.3548 13.4653L52.4716 11.2911C54.2313 10.8204 54.9473 13.4943 53.1862 13.9655L45.0693 16.1397ZM43.7923 11.3734C42.0321 11.8441 41.3166 9.17014 43.0778 8.69897L51.1936 6.52474C52.9538 6.05407 53.6703 8.72852 51.9091 9.19917L43.7923 11.3734ZM50.5046 2.87778L41.8484 5.19755C40.1188 5.66069 39.0882 7.45154 39.5507 9.17965L52.1849 56.3329C52.6506 58.0671 54.4389 59.0931 56.167 58.6306L64.8232 56.3108C66.5529 55.8467 67.5835 54.0568 67.1214 52.3287L54.4867 5.17545C54.0221 3.44131 52.2337 2.41521 50.5046 2.87778ZM32.9358 16.6636C34.7608 16.6636 34.7608 19.4359 32.9358 19.4359H24.5331C22.7081 19.4359 22.7081 16.6636 24.5331 16.6636H32.9358ZM32.9358 11.7281C34.7608 11.7281 34.7608 14.5014 32.9358 14.5014H24.5331C22.7081 14.5014 22.7081 11.7281 24.5331 11.7281H32.9358ZM32.9358 6.79411C34.7608 6.79411 34.7608 9.56643 32.9358 9.56643H24.5331C22.7081 9.56643 22.7081 6.79411 24.5331 6.79411H32.9358ZM21.0045 6.34652V55.1633C21.0045 56.9476 22.4692 58.4123 24.2535 58.4123H33.2153C34.9997 58.4123 36.4644 56.9476 36.4644 55.1633V6.34652C36.4644 4.56126 34.9997 3.09648 33.2153 3.09648H24.2535C22.4692 3.09648 21.0045 4.56216 21.0045 6.34652ZM6.30158 19.4361C4.47662 19.4361 4.47662 16.6638 6.30158 16.6638H14.7033C16.5283 16.6638 16.5283 19.4361 14.7033 19.4361H6.30158ZM6.30158 14.5016C4.47662 14.5016 4.47662 11.7283 6.30158 11.7283H14.7033C16.5283 11.7283 16.5283 14.5016 14.7033 14.5016H6.30158ZM6.30158 9.56715C4.47662 9.56715 4.47662 6.79483 6.30158 6.79483H14.7033C16.5283 6.79483 16.5283 9.56715 14.7033 9.56715H6.30158ZM14.9833 3.09725H6.02206C4.23769 3.09725 2.77305 4.56293 2.77305 6.34729V55.164C2.77305 56.9484 4.23679 58.4131 6.02206 58.4131H14.9833C16.7677 58.4131 18.2323 56.9484 18.2323 55.164V6.34729C18.2323 4.56203 16.7677 3.09725 14.9833 3.09725Z" fill="#0155B3"/>
</svg>
