<svg width="72" height="72" viewBox="0 0 72 72" fill="none" xmlns="http://www.w3.org/2000/svg">
<path d="M44.0591 0.641602V11.2482H55.0179L44.0591 0.641602Z" fill="#323232"/>
<path d="M45.1896 39.1408C48.2585 37.0399 51.9231 35.9087 55.682 35.9027V13.4908H42.9006C42.2608 13.4908 41.7421 12.9888 41.7421 12.3696V0H1.1957C0.535265 0 0 0.518074 0 1.15727V70.6738C0 71.313 0.535278 71.831 1.1957 71.831H54.4852C54.6445 71.831 54.8018 71.8 54.9486 71.7399C49.7713 71.4982 44.9346 69.1686 41.6137 65.3169C38.2918 61.4656 36.7885 56.4436 37.4675 51.4699C38.1471 46.496 40.9471 42.0251 45.1889 39.1409L45.1896 39.1408ZM9.30484 6.76341H24.3649C25.0047 6.76341 25.5234 7.26547 25.5234 7.88464C25.5234 8.50382 25.0047 9.00588 24.3649 9.00588H9.30484C8.66511 9.00588 8.14638 8.50382 8.14638 7.88464C8.14638 7.26547 8.66511 6.76341 9.30484 6.76341ZM20.8895 12.3696C20.8895 12.6669 20.7675 12.9522 20.5503 13.1625C20.3331 13.3727 20.0383 13.4908 19.7311 13.4908H18.5726C17.9329 13.4908 17.4141 12.9888 17.4141 12.3696C17.4141 11.7504 17.9329 11.2483 18.5726 11.2483H19.7311C20.0383 11.2483 20.3331 11.3665 20.5503 11.5767C20.7675 11.7869 20.8895 12.0723 20.8895 12.3696ZM16.2557 12.3696C16.2557 12.6669 16.1336 12.9522 15.9164 13.1625C15.6992 13.3727 15.4044 13.4908 15.0972 13.4908H13.9387C13.299 13.4908 12.7803 12.9888 12.7803 12.3696C12.7803 11.7504 13.299 11.2483 13.9387 11.2483H15.0972C15.4044 11.2483 15.6992 11.3665 15.9164 11.5767C16.1336 11.7869 16.2557 12.0723 16.2557 12.3696ZM9.30484 11.2483H10.4633C11.1031 11.2483 11.6218 11.7504 11.6218 12.3696C11.6218 12.9888 11.1031 13.4908 10.4633 13.4908H9.30484C8.66511 13.4908 8.14638 12.9888 8.14638 12.3696C8.14638 11.7504 8.66511 11.2483 9.30484 11.2483ZM9.30484 19.097H46.3758C47.0156 19.097 47.5343 19.599 47.5343 20.2182C47.5343 20.8374 47.0156 21.3394 46.3758 21.3394H9.30484C8.66511 21.3394 8.14638 20.8374 8.14638 20.2182C8.14638 19.599 8.66511 19.097 9.30484 19.097ZM9.30484 23.5819H46.3758C47.0156 23.5819 47.5343 24.084 47.5343 24.7032C47.5343 25.3223 47.0156 25.8244 46.3758 25.8244H9.30484C8.66511 25.8244 8.14638 25.3223 8.14638 24.7032C8.14638 24.084 8.66511 23.5819 9.30484 23.5819ZM9.30484 28.0669H46.3758C47.0156 28.0669 47.5343 28.5689 47.5343 29.1881C47.5343 29.8073 47.0156 30.3093 46.3758 30.3093H9.30484C8.66511 30.3093 8.14638 29.8073 8.14638 29.1881C8.14638 28.5689 8.66511 28.0669 9.30484 28.0669ZM9.30484 32.5518H46.3758C47.0156 32.5518 47.5343 33.0538 47.5343 33.673C47.5343 34.2922 47.0156 34.7943 46.3758 34.7943H9.30484C8.66511 34.7943 8.14638 34.2922 8.14638 33.673C8.14638 33.0538 8.66511 32.5518 9.30484 32.5518ZM9.30484 37.0367H41.742C42.3817 37.0367 42.9004 37.5388 42.9004 38.158C42.9004 38.7771 42.3817 39.2792 41.742 39.2792H9.30484C8.66511 39.2792 8.14638 38.7771 8.14638 38.158C8.14638 37.5388 8.66511 37.0367 9.30484 37.0367ZM31.3157 65.0676H9.30484C8.66511 65.0676 8.14638 64.5655 8.14638 63.9463C8.14638 63.3272 8.66511 62.8251 9.30484 62.8251H31.3157C31.9555 62.8251 32.4742 63.3272 32.4742 63.9463C32.4742 64.5655 31.9555 65.0676 31.3157 65.0676ZM33.6327 57.2189H9.30484C8.66511 57.2189 8.14638 56.7169 8.14638 56.0977C8.14638 55.4785 8.66511 54.9765 9.30484 54.9765H33.6327C34.2724 54.9765 34.7912 55.4785 34.7912 56.0977C34.7912 56.7169 34.2724 57.2189 33.6327 57.2189ZM33.6327 52.734H9.30484C8.66511 52.734 8.14638 52.2319 8.14638 51.6128C8.14638 50.9936 8.66511 50.4915 9.30484 50.4915H33.6327C34.2724 50.4915 34.7912 50.9936 34.7912 51.6128C34.7912 52.2319 34.2724 52.734 33.6327 52.734ZM8.14638 47.1278C8.14638 46.5086 8.66511 46.0066 9.30484 46.0066H24.3649C25.0047 46.0066 25.5234 46.5086 25.5234 47.1278C25.5234 47.747 25.0047 48.2491 24.3649 48.2491H9.30484C8.66511 48.2491 8.14638 47.747 8.14638 47.1278ZM26.6819 47.1278C26.6819 46.5086 27.2006 46.0066 27.8403 46.0066H28.9988C29.6385 46.0066 30.1573 46.5086 30.1573 47.1278C30.1573 47.747 29.6385 48.2491 28.9988 48.2491H27.8403C27.2006 48.2491 26.6819 47.747 26.6819 47.1278ZM33.6327 48.2491H32.4742C31.8345 48.2491 31.3157 47.747 31.3157 47.1278C31.3157 46.5086 31.8345 46.0066 32.4742 46.0066H33.6327C34.2724 46.0066 34.7912 46.5086 34.7912 47.1278C34.7912 47.747 34.2724 48.2491 33.6327 48.2491ZM37.1081 43.7641H9.30484C8.66511 43.7641 8.14638 43.2621 8.14638 42.6429C8.14638 42.0237 8.66511 41.5217 9.30484 41.5217H37.1081C37.7478 41.5217 38.2666 42.0237 38.2666 42.6429C38.2666 43.2621 37.7478 43.7641 37.1081 43.7641Z" fill="#323232"/>
<path d="M57.9605 60.5826C57.9605 61.8209 56.9231 62.825 55.6436 62.825C54.3641 62.825 53.3267 61.8209 53.3267 60.5826C53.3267 59.3442 54.3641 58.3401 55.6436 58.3401C56.9231 58.3401 57.9605 59.3442 57.9605 60.5826Z" fill="#323232"/>
<path d="M58.5562 38.377C57.6232 38.2164 56.6774 38.1353 55.7298 38.1348C52.4313 38.1368 49.215 39.1294 46.5247 40.9759C43.0208 43.3646 40.6346 46.9965 39.8848 51.0801C39.1354 55.1641 40.0828 59.3693 42.5218 62.78C44.9608 66.1902 48.6932 68.5303 52.9067 69.2897C57.116 70.0215 61.4525 69.085 64.9409 66.6904C68.4442 64.3017 70.831 60.6698 71.5803 56.5858C72.3302 52.5018 71.3817 48.2966 68.9427 44.8864C66.5037 41.4757 62.7708 39.1361 58.5578 38.3772L58.5562 38.377ZM61.4364 44.8857H56.8025V47.1282H60.2779C60.9176 47.1282 61.4364 47.6302 61.4364 48.2494C61.4364 48.8686 60.9176 49.3706 60.2779 49.3706H56.8025V56.2572C58.2713 56.6241 59.4613 57.6638 59.9887 59.0403C60.5163 60.4168 60.314 61.956 59.4478 63.1608C58.5815 64.3661 57.1609 65.0849 55.644 65.0849C54.1272 65.0849 52.7064 64.3662 51.8403 63.1608C50.974 61.956 50.7718 60.4168 51.2993 59.0403C51.8269 57.6638 53.0169 56.6242 54.4856 56.2572V42.6435H61.4364C62.0761 42.6435 62.5949 43.1455 62.5949 43.7647C62.5949 44.3839 62.0761 44.886 61.4364 44.886L61.4364 44.8857Z" fill="#323232"/>
</svg>
