<svg width="20" height="21" viewBox="0 0 20 21" fill="none" xmlns="http://www.w3.org/2000/svg">
<path d="M18.5727 0.241397C18.2402 0.202016 17.8789 0.260006 17.5158 0.420326C17.0657 0.618072 10.0128 3.93189 3.4383 7.02321L1.26592 8.04441C0.424724 8.42538 0 9.04496 0 9.87952C0 10.4638 0.221395 11.2564 1.27764 11.7233L4.94451 13.3643C5.26159 14.4267 5.99804 16.8936 6.18308 17.5494C6.29311 17.9382 6.57102 18.9177 7.27318 19.1467C7.41721 19.2014 7.56751 19.2296 7.72055 19.2296C8.16365 19.2296 8.4827 18.9993 8.63873 18.8652L10.9694 16.6635L13.8001 19.5875C13.9091 19.7115 14.4862 20.3381 15.2614 20.3381C16.2286 20.3381 16.9623 19.4388 17.1153 18.5684C17.1983 18.0914 19.9285 2.78343 19.9285 2.78567C20.1735 1.55785 19.7329 0.920923 19.4498 0.649441C19.2073 0.41762 18.9051 0.280779 18.5727 0.241397ZM17.9104 2.65475C17.5333 4.76627 15.4777 16.2918 15.1656 17.9531L11.028 13.6785L8.22066 16.334L8.99819 12.9366C8.99819 12.9366 14.362 6.8722 14.6851 6.51916C14.9451 6.2365 14.9996 6.13742 14.9996 6.03911C14.9996 5.90839 14.9394 5.81436 14.8003 5.81436C14.6753 5.81436 14.5055 5.94818 14.4155 6.01074C13.2719 6.80711 8.40215 9.90585 6.00531 11.4288L2.52793 9.87734L4.21583 9.08525C8.51583 7.0631 16.174 3.46137 17.9104 2.65475Z" fill="white"/>
</svg>
