<svg width="20" height="16" viewBox="0 0 20 16" fill="none" xmlns="http://www.w3.org/2000/svg">
<path d="M18.5398 0.168617L0.778348 6.28029C0.778348 6.28029 -0.0613318 6.53259 0.00357834 6.99812C0.0703679 7.46439 0.755536 7.67775 0.755536 7.67775L5.22469 8.99679C5.22469 8.99679 6.57374 12.8766 6.83914 13.6148C7.10455 14.3509 7.31766 14.3684 7.31766 14.3684C7.56494 14.4627 7.78971 14.3126 7.78971 14.3126L10.6772 12.0041L15.1776 15.0303C16.3948 15.4959 16.8379 14.5258 16.8379 14.5258L20 0.537491C20 -0.394152 18.5401 0.168259 18.5401 0.168259L18.5398 0.168617ZM15.3953 13.401L10.581 10.1642L9.08707 11.3583L9.41561 8.81793L15.833 3.78952L7.08527 8.08308L3.20504 6.93807L18.0089 1.8436L15.3953 13.401Z" fill="white"/>
</svg>
