<svg width="40" height="43" viewBox="0 0 40 43" fill="none" xmlns="http://www.w3.org/2000/svg">
<path d="M20.9965 14.6559L21.009 14.6403V14.6387C21.0121 14.6372 21.0137 14.6341 21.0152 14.6309C21.0262 14.6153 21.0343 14.5978 21.0405 14.5791C21.0421 14.576 21.0436 14.5713 21.0436 14.5666C21.0483 14.5491 21.0515 14.5319 21.053 14.5147C21.053 14.5101 21.0546 14.5069 21.0546 14.5022C21.0546 14.4832 21.0515 14.4629 21.0468 14.4457C21.0455 14.4392 21.0436 14.4332 21.0405 14.4282C21.0343 14.406 21.0249 14.3857 21.0105 14.367C21.009 14.3639 21.0059 14.3608 21.0043 14.3576C21.0027 14.3561 20.9996 14.3545 20.998 14.3511C20.9887 14.3401 20.9777 14.3289 20.9634 14.318C20.9618 14.3167 20.9603 14.3133 20.9571 14.3117C20.9556 14.3105 20.954 14.3086 20.9506 14.3086C20.949 14.307 20.949 14.3055 20.9474 14.3055L20.1313 13.5643C20.0526 13.5124 19.952 13.5124 19.8733 13.5643L19.0555 14.3052C19.054 14.3052 19.0524 14.3067 19.0509 14.3083C19.0493 14.3098 19.0477 14.3098 19.0462 14.3114C19.043 14.313 19.0415 14.3161 19.0399 14.3176C19.0274 14.3286 19.0146 14.3398 19.0037 14.3523C19.0021 14.3539 19.0006 14.3554 18.999 14.357C18.9974 14.3601 18.9959 14.3633 18.9924 14.3648C18.9893 14.3695 18.9878 14.3726 18.9846 14.3773C18.9815 14.3836 18.9768 14.3898 18.9737 14.396C18.9721 14.3976 18.9721 14.4007 18.9721 14.4023C18.9643 14.4198 18.9578 14.437 18.9534 14.4557C18.9503 14.4744 18.9487 14.4951 18.9503 14.5138V14.5232C18.9534 14.5419 18.9565 14.5622 18.9628 14.5797V14.5813C18.969 14.5988 18.9771 14.6144 18.9881 14.63C18.9896 14.6331 18.9912 14.6347 18.9928 14.6378C18.9943 14.6378 18.9943 14.6394 18.9943 14.6394L19.0068 14.6569L19.4834 15.7501L18.7207 18.4931L19.0209 19.1097L20.002 21.1196L20.9802 19.1081L21.2804 18.4916L20.5192 15.7505L20.9965 14.6559Z" fill="#0155B3"/>
<path d="M25.1948 21.8931L25.1951 21.8641C25.2316 19.995 26.1193 18.1247 27.4558 17.099C27.7313 16.8884 28.0555 16.756 28.394 16.7107C28.5349 16.6254 28.6742 16.5495 28.8126 16.478C28.7014 14.9772 27.6216 13.6976 26.1511 13.3717L23.7639 12.6246L23.2351 11.2869C23.6324 10.8558 23.6437 10.6125 23.7948 10.0388C23.8286 9.91289 24.1362 9.24103 24.1615 9.14609C24.6597 8.96712 25.32 7.27111 25.32 7.27111C25.39 6.80665 25.2556 6.33629 24.9505 5.98079C24.9336 5.96111 24.9167 5.94175 24.8974 5.92207C24.9645 5.61973 24.9983 5.31206 25.0011 4.99845V4.97315C24.9758 3.66069 24.4301 2.44034 23.4815 1.55894C23.434 1.33499 23.3079 1.13353 23.1205 0.990784C22.2893 0.352664 21.2539 0 20.2044 0H19.7958C18.9535 0 18.195 0.35264 17.526 0.789293C17.2993 0.778049 17.0672 0.845203 16.8767 0.990753C15.7825 1.83033 15.0294 3.42825 14.9989 4.99843C15.0017 5.30921 15.0379 5.61968 15.1051 5.91925C15.0854 5.93893 15.0688 5.9611 15.0492 5.98078C14.744 6.33623 14.6097 6.80629 14.6825 7.27389C14.6825 7.27389 15.3459 8.96713 15.8381 9.14608C15.8634 9.24134 16.1739 9.91288 16.2076 10.0388C16.3588 10.6125 16.3672 10.8559 16.7674 11.2868L16.2386 12.6246L13.8514 13.3717C12.413 13.6906 11.346 14.9193 11.1958 16.3792C11.6743 16.5732 12.1288 16.8271 12.5404 17.1432C12.8168 17.3538 13.0314 17.6355 13.1617 17.9553C14.1939 19.0057 14.7753 20.3903 14.8036 21.8837L14.804 21.9277C14.8021 22.157 14.7865 22.3812 14.7583 22.6008C14.9333 22.8847 15.0485 23.2008 15.1035 23.5294L19.6725 25.1561C19.7787 25.1951 19.8908 25.2148 19.9998 25.2148C20.1116 25.2148 20.2238 25.1951 20.33 25.1561L24.8893 23.5328C24.9402 23.1871 25.0583 22.8541 25.2426 22.5549C25.2132 22.336 25.1973 22.1142 25.1948 21.8931L25.1948 21.8931ZM22.096 18.4986L19.9999 22.8168L17.9065 18.4986V13.6654L18.4019 12.6746C18.9057 12.9236 19.4542 13.0469 19.9998 13.0469C20.5455 13.0469 21.094 12.9239 21.5977 12.6746L22.0959 13.671L22.096 18.4986ZM22.4177 8.61714C22.398 8.7124 22.2918 9.11813 22.1797 9.53796C22.0623 9.98867 21.7571 10.3719 21.3457 10.593L20.7944 10.8898C20.2962 11.1556 19.7031 11.1556 19.2077 10.8898L18.6536 10.593C18.2423 10.3719 17.9399 9.98864 17.8196 9.53796C17.621 8.77958 17.5873 8.63969 17.5873 8.63969C17.5089 8.2199 17.1703 7.9038 16.7561 7.84758L16.6692 7.2963C16.8317 7.22352 16.9772 7.10889 17.0806 6.96053C17.2652 6.69754 17.3102 6.36458 17.2008 6.06226L17.1056 5.80489C17.1 5.79083 17.0971 5.77959 17.0943 5.76584C17.0047 5.5141 16.96 5.25079 16.9572 5.00747C16.96 4.89284 16.9685 4.7779 16.9853 4.66046L17.0022 4.62423C17.0609 4.49835 17.198 4.43401 17.3323 4.47024C17.7912 4.59893 18.2894 4.47024 18.6279 4.13728L18.8435 3.92738C18.9387 3.83212 19.0871 3.81837 19.1989 3.89646L19.9657 4.42245C20.7325 4.94843 21.6839 5.0968 22.5741 4.8338C22.6943 4.79757 22.823 4.84505 22.8902 4.95125L23.0329 5.1752C23.0132 5.41321 22.9601 5.64528 22.8733 5.86923L22.848 5.93076L22.8061 6.04539C22.6915 6.34774 22.7306 6.68632 22.9123 6.95214C23.0185 7.10612 23.1641 7.22356 23.3293 7.29634L23.2425 7.84482C22.8318 7.90073 22.496 8.19746 22.4176 8.61725L22.4177 8.61714Z" fill="#0155B3"/>
<path d="M9.82021 31.585L9.8327 31.5694V31.5679C9.83583 31.5663 9.83739 31.5632 9.83895 31.5601C9.84988 31.5444 9.858 31.527 9.86425 31.5082C9.86581 31.5051 9.86738 31.5004 9.86738 31.4957C9.87206 31.4782 9.87518 31.461 9.87675 31.4439C9.87675 31.4392 9.87831 31.4361 9.87831 31.4314C9.87831 31.4123 9.87518 31.392 9.8705 31.3748C9.86925 31.3683 9.86738 31.3623 9.86425 31.3573C9.858 31.3352 9.84863 31.3149 9.83427 31.2961C9.8327 31.293 9.82958 31.2899 9.82802 31.2868C9.82646 31.2852 9.82333 31.2836 9.82177 31.2802C9.8124 31.2693 9.80147 31.258 9.7871 31.2471C9.78554 31.2458 9.78398 31.2424 9.78086 31.2408C9.77929 31.2396 9.77773 31.2377 9.7743 31.2377C9.77273 31.2362 9.77274 31.2346 9.77117 31.2346L8.95502 30.4937C8.87631 30.4419 8.77574 30.4419 8.69702 30.4937L7.87927 31.2346C7.87771 31.2346 7.87615 31.2362 7.87459 31.2377C7.87302 31.2393 7.87146 31.2393 7.8699 31.2408C7.86678 31.2424 7.86522 31.2455 7.86365 31.2471C7.85116 31.258 7.83835 31.2693 7.82742 31.2818L7.82274 31.2864C7.82118 31.2896 7.81961 31.2927 7.81618 31.2943C7.81306 31.2989 7.81149 31.3021 7.80837 31.3067C7.80525 31.313 7.80056 31.3192 7.79744 31.3255C7.79588 31.3271 7.79588 31.3302 7.79588 31.3317C7.78807 31.3492 7.78151 31.3664 7.77713 31.3851C7.77401 31.4039 7.77245 31.4245 7.77401 31.4432V31.4526C7.77713 31.4714 7.78026 31.4917 7.7865 31.5091V31.5107C7.79275 31.5282 7.80087 31.5438 7.81181 31.5594C7.81337 31.5626 7.81493 31.5641 7.81649 31.5672C7.81805 31.5672 7.81805 31.5688 7.81805 31.5688L7.83055 31.5863L8.30718 32.6795L7.54443 35.4225L7.84459 36.0391L8.8257 38.0491L9.80394 36.0376L10.1041 35.421L9.34292 32.6799L9.82021 31.585Z" fill="#0155B3"/>
<path d="M14.9753 30.3018L12.5881 29.5546L12.0593 28.2169C12.4566 27.7859 12.4679 27.5426 12.619 26.9688C12.6528 26.8429 12.9604 26.1711 12.9857 26.0761C13.4839 25.8972 14.1442 24.2012 14.1442 24.2012C14.2141 23.7367 14.0798 23.2664 13.7747 22.9108C13.7578 22.8912 13.7409 22.8718 13.7216 22.8521C13.7887 22.5498 13.8225 22.2421 13.8253 21.9285V21.9032C13.8 20.5907 13.2543 19.3704 12.3057 18.489C12.2582 18.265 12.132 18.0636 11.9446 17.9208C11.1135 17.2827 10.0781 16.9301 9.02858 16.9301H8.62004C7.77766 16.9301 7.01924 17.2827 6.35021 17.7193C6.12345 17.7081 5.89138 17.7753 5.70085 17.9208C4.60667 18.7604 3.85361 20.3583 3.82307 21.9285C3.82588 22.2393 3.86211 22.5497 3.92926 22.8493C3.90958 22.869 3.89303 22.8912 3.87335 22.9108C3.56819 23.2663 3.43388 23.7363 3.50666 24.2039C3.50666 24.2039 4.17008 25.8972 4.66233 26.0761C4.68763 26.1714 4.99809 26.8429 5.03183 26.9688C5.183 27.5426 5.19144 27.7859 5.59155 28.2169L5.06275 29.5546L2.67554 30.3018C1.12224 30.646 0 32.0509 0 33.6629V38.3702C0 38.7844 0.260182 39.1567 0.65217 39.2938L8.49665 42.0868C8.60284 42.1259 8.71498 42.1456 8.82399 42.1456C8.93581 42.1456 9.04794 42.1259 9.15414 42.0868L16.9986 39.2938C17.3875 39.1567 17.648 38.7844 17.648 38.3702V33.6629C17.6477 32.0537 16.5282 30.646 14.9752 30.3018L14.9753 30.3018ZM6.73063 35.4289V30.5957L7.22601 29.6049C7.72982 29.8539 8.27828 29.9772 8.82393 29.9772C9.36959 29.9772 9.9181 29.8542 10.4219 29.6049L10.92 30.6013V35.4289L8.82389 39.7471L6.73063 35.4289ZM5.58057 24.7774L5.49374 24.2261C5.65615 24.1534 5.80171 24.0387 5.90509 23.8904C6.08969 23.6274 6.13467 23.2944 6.02535 22.9921L5.93008 22.7347C5.92446 22.7207 5.92165 22.7094 5.91884 22.6957C5.82919 22.4439 5.78453 22.1806 5.78172 21.9373C5.78453 21.8227 5.79297 21.7077 5.80983 21.5903L5.8267 21.5541C5.88323 21.4329 6.01254 21.3685 6.14185 21.3966C6.61411 21.4978 7.10665 21.4044 7.4528 21.0671L7.66832 20.8572C7.76358 20.762 7.91195 20.7482 8.02376 20.8263L8.9549 21.4654C9.67547 21.9598 10.5641 21.9807 11.4099 21.7611C11.527 21.7305 11.6501 21.7786 11.7154 21.8817L11.8581 22.1057C11.8384 22.3437 11.7853 22.5757 11.6985 22.7997L11.6732 22.8612L11.627 22.9874C11.5723 23.1364 11.5439 23.2972 11.5686 23.4537C11.6264 23.8232 11.8591 24.0968 12.1545 24.2271L12.0677 24.7756C11.6564 24.8315 11.3206 25.1282 11.2422 25.548C11.2225 25.6433 11.1163 26.049 11.0042 26.4688C10.8867 26.9195 10.5816 27.3028 10.1702 27.5239L9.61892 27.8206C9.12073 28.0864 8.52763 28.0864 8.0322 27.8206L7.4781 27.5239C7.06674 27.3028 6.76439 26.9195 6.64412 26.4688C6.44546 25.7104 6.41174 25.5706 6.41174 25.5706C6.33334 25.1498 5.99476 24.8337 5.58055 24.7775L5.58057 24.7774Z" fill="#0155B3"/>
<path d="M32.1723 31.5411L32.1848 31.5255V31.5239C32.1879 31.5224 32.1894 31.5192 32.191 31.5161C32.2019 31.5005 32.2101 31.483 32.2163 31.4643C32.2179 31.4611 32.2194 31.4565 32.2194 31.4518C32.2241 31.4343 32.2272 31.4171 32.2288 31.3999C32.2288 31.3952 32.2304 31.3921 32.2304 31.3874C32.2304 31.3684 32.2272 31.3481 32.2226 31.3309C32.2213 31.3243 32.2194 31.3184 32.2163 31.3134C32.2101 31.2912 32.2007 31.2709 32.1863 31.2522C32.1848 31.2491 32.1816 31.2459 32.1801 31.2428C32.1785 31.2413 32.1754 31.2397 32.1738 31.2363C32.1645 31.2253 32.1535 31.2141 32.1392 31.2031C32.1376 31.2019 32.136 31.1985 32.1329 31.1969C32.1313 31.1957 32.1298 31.1938 32.1263 31.1938C32.1248 31.1922 32.1248 31.1907 32.1232 31.1907L31.3071 30.4498C31.2284 30.3979 31.1278 30.3979 31.0491 30.4498L30.2313 31.1907C30.2298 31.1907 30.2282 31.1922 30.2266 31.1938C30.2251 31.1953 30.2235 31.1953 30.222 31.1969C30.2188 31.1985 30.2173 31.2016 30.2157 31.2031C30.2032 31.2141 30.1904 31.2253 30.1795 31.2378C30.1779 31.2394 30.1764 31.2409 30.1748 31.2425C30.1732 31.2456 30.1717 31.2487 30.1682 31.2503C30.1651 31.255 30.1635 31.2581 30.1604 31.2628C30.1573 31.2691 30.1526 31.2753 30.1495 31.2815C30.1479 31.2831 30.1479 31.2862 30.1479 31.2878C30.1401 31.3053 30.1336 31.3225 30.1292 31.3412C30.1261 31.3599 30.1245 31.3806 30.1261 31.3993V31.4087C30.1292 31.4274 30.1323 31.4477 30.1386 31.4652V31.4668C30.1448 31.4843 30.1529 31.4999 30.1639 31.5155C30.1654 31.5186 30.167 31.5202 30.1685 31.5233C30.1701 31.5233 30.1701 31.5249 30.1701 31.5249L30.1826 31.5424L30.6592 32.6356L29.8965 35.3786L30.1966 35.9952L31.1778 38.0051L32.156 35.9936L32.4561 35.3771L31.695 32.636L32.1723 31.5411Z" fill="#0155B3"/>
<path d="M37.3274 30.257L34.9402 29.5098L34.4114 28.1721C34.8087 27.7411 34.8199 27.4978 34.9711 26.924C35.0048 26.7981 35.3125 26.1263 35.3378 26.0313C35.836 25.8524 36.4962 24.1564 36.4962 24.1564C36.5662 23.6919 36.4319 23.2215 36.1267 22.866C36.1099 22.8464 36.093 22.827 36.0736 22.8073C36.1408 22.505 36.1745 22.1973 36.1773 21.8837V21.8584C36.152 20.5459 35.6064 19.3256 34.6578 18.4442C34.6103 18.2202 34.4841 18.0188 34.2967 17.876C33.4655 17.2379 32.4301 16.8853 31.3806 16.8853H30.9721C30.1297 16.8853 29.3713 17.2379 28.7023 17.6745C28.4755 17.6633 28.2434 17.7305 28.0529 17.876C26.9587 18.7156 26.2057 20.3135 26.1751 21.8837C26.1779 22.1945 26.2142 22.5049 26.2813 22.8045C26.2616 22.8242 26.2451 22.8464 26.2254 22.866C25.9202 23.2215 25.7859 23.6915 25.8587 24.1591C25.8587 24.1591 26.5221 25.8524 27.0144 26.0313C27.0397 26.1266 27.3501 26.7981 27.3839 26.924C27.5351 27.4978 27.5435 27.7411 27.9436 28.1721L27.4148 29.5098L25.0276 30.257C23.4743 30.6012 22.3521 32.0061 22.3521 33.6181V38.3254C22.3521 38.7396 22.6122 39.1119 23.0042 39.249L30.8487 42.042C30.9549 42.0811 31.067 42.1008 31.176 42.1008C31.2879 42.1008 31.4 42.0811 31.5062 42.042L39.3507 39.249C39.7395 39.1119 40 38.7396 40 38.3254V33.6181C39.9997 32.0089 38.8803 30.6012 37.3273 30.257L37.3274 30.257ZM29.0827 35.3841V30.5509L29.5781 29.5601C30.0819 29.8091 30.6303 29.9324 31.176 29.9324C31.7216 29.9324 32.2702 29.8094 32.7739 29.5601L33.2721 30.5565V35.3841L31.1759 39.7023L29.0827 35.3841ZM27.9323 24.7326L27.8455 24.1813C28.0079 24.1086 28.1534 23.9939 28.2568 23.8456C28.4414 23.5826 28.4864 23.2496 28.3771 22.9473L28.2818 22.6899C28.2762 22.6759 28.2734 22.6646 28.2706 22.6509C28.1809 22.3991 28.1363 22.1358 28.1335 21.8925C28.1363 21.7779 28.1447 21.6629 28.1616 21.5455L28.1784 21.5093C28.2372 21.3834 28.3743 21.319 28.5086 21.3553C28.9674 21.484 29.4656 21.3553 29.8042 21.0223L30.0197 20.8124C30.115 20.7172 30.2633 20.7034 30.3751 20.7815L31.1419 21.3075C31.9087 21.8335 32.8601 21.9818 33.7503 21.7188C33.8706 21.6826 33.9993 21.7301 34.0664 21.8363L34.2091 22.0602C34.1895 22.2982 34.1364 22.5303 34.0495 22.7543L34.0242 22.8158L33.9824 22.9304C33.8678 23.2328 33.9068 23.5713 34.0886 23.8372C34.1948 23.9912 34.3403 24.1086 34.5056 24.1814L34.4187 24.7299C34.0074 24.7858 33.6716 25.0825 33.5932 25.5023C33.5735 25.5975 33.4673 26.0033 33.3552 26.4231C33.2378 26.8738 32.9326 27.2571 32.5212 27.4782L31.9699 27.7749C31.4717 28.0407 30.8786 28.0407 30.3832 27.7749L29.8291 27.4782C29.4178 27.257 29.1154 26.8738 28.9951 26.4231C28.7965 25.6647 28.7628 25.5248 28.7628 25.5248C28.685 25.105 28.3464 24.7886 27.9322 24.7327L27.9323 24.7326Z" fill="#0155B3"/>
</svg>
