<svg width="20" height="21" viewBox="0 0 20 21" fill="none" xmlns="http://www.w3.org/2000/svg">
<path d="M13.1644 15.7508H13.1637C11.2753 15.7495 9.10966 14.6956 7.2219 12.8592C7.21873 12.856 7.21556 12.8528 7.21239 12.8497C5.37593 10.9622 4.32202 8.7965 4.3208 6.90784C4.3208 6.21249 4.67691 5.48129 5.32369 4.84842C5.76864 4.41296 6.42544 3.97363 6.89008 3.97363C7.60601 3.97363 7.79635 4.31214 8.08471 4.82468C8.15491 4.9496 8.23461 5.09106 8.33754 5.26225C8.39454 5.35673 8.47319 5.47637 8.55641 5.60322C9.08528 6.40887 9.41818 6.97225 9.23662 7.44338C9.0941 7.81004 8.71725 8.11089 8.35287 8.4019C8.21792 8.50957 8.02456 8.66405 7.93888 8.7573C8.00503 9.1252 8.48694 9.90391 9.3274 10.7442C10.1667 11.5834 10.9445 12.0652 11.3133 12.1324C11.4062 12.0467 11.5594 11.8547 11.6664 11.7207C11.9584 11.3547 12.2605 10.9763 12.6284 10.8346C12.7132 10.8019 12.8063 10.7852 12.9045 10.7852C13.3243 10.7852 13.8174 11.0876 14.4682 11.5148C14.5949 11.598 14.7147 11.6767 14.8099 11.734C14.9804 11.8366 15.122 11.9163 15.2468 11.9865C15.7591 12.2749 16.0977 12.4654 16.0977 13.1811C16.0977 13.6456 15.658 14.3024 15.2223 14.7472C14.5896 15.3936 13.8588 15.7501 13.1644 15.7506L13.1644 15.7508ZM7.91398 12.1577C9.59298 13.7894 11.5553 14.7643 13.1635 14.7655C14.1361 14.7642 15.0614 13.5026 15.1125 13.1727C15.1121 13.1053 15.1082 13.0699 15.1052 13.0531C15.0549 13.0094 14.9008 12.9227 14.7636 12.8454C14.6393 12.7754 14.4847 12.6885 14.3012 12.578C14.1894 12.5106 14.0622 12.427 13.9275 12.3386C13.6722 12.1711 13.1591 11.8343 12.9406 11.7778C12.8058 11.8721 12.5696 12.1683 12.4362 12.3352C12.0982 12.7585 11.8063 13.1242 11.3948 13.1257C10.3919 13.1247 9.02542 11.8357 8.63041 11.4407C8.23542 11.0458 6.94645 9.67923 6.94542 8.67865C6.94542 8.2643 7.31261 7.97119 7.73787 7.6318C7.90396 7.49932 8.19833 7.26426 8.29314 7.13C8.23649 6.91113 7.90008 6.39862 7.7326 6.14369C7.64411 6.00892 7.56071 5.88171 7.49367 5.77069C7.38283 5.58648 7.29574 5.43183 7.22589 5.30763C7.14865 5.17039 7.06191 5.01609 7.01828 4.96595C7.00156 4.96313 6.96602 4.95909 6.89864 4.95873C6.5684 5.00941 5.30603 5.93451 5.30603 6.9073C5.30709 8.51613 6.28198 10.4786 7.91382 12.1577L7.91398 12.1577Z" fill="white"/>
<path d="M0.492839 20.2509C0.368624 20.2509 0.246166 20.2039 0.152566 20.1147C0.0104076 19.9791 -0.0376288 19.7718 0.0306401 19.5874L1.65545 15.1954C0.465558 13.3328 -0.0916467 11.1178 0.0839237 8.92927C0.269016 6.62213 1.26468 4.45803 2.88719 2.83565C4.71577 1.00707 7.16417 0 9.78119 0C12.4923 0 15.0542 1.06883 16.995 3.00983C20.9326 6.94741 21.0107 13.276 17.1692 17.1181C15.3408 18.9463 12.8926 19.9533 10.2761 19.9533H10.2759C8.37907 19.9533 6.53203 19.4232 4.91645 18.4177L0.684696 20.2127C0.622765 20.2387 0.557315 20.2514 0.492569 20.2514L0.492839 20.2509ZM4.96353 17.3693C5.05854 17.3693 5.15285 17.3968 5.23466 17.4504C6.74106 18.4427 8.48429 18.9672 10.2761 18.9672C12.6297 18.9672 14.8302 18.0629 16.4729 16.4205C19.9303 12.963 19.8522 7.25911 16.2987 3.70581C14.5438 1.95097 12.2293 0.984698 9.78124 0.984698C7.4273 0.984698 5.22623 1.88921 3.58403 3.53182C0.603203 6.51264 0.1945 11.2757 2.61213 14.8574C2.70098 14.989 2.72086 15.1551 2.66579 15.3039L1.35045 18.8594L4.7711 17.4086C4.83286 17.3824 4.89831 17.3693 4.96341 17.3693L4.96353 17.3693Z" fill="white"/>
</svg>
