<svg width="64" height="64" viewBox="0 0 64 64" fill="none" xmlns="http://www.w3.org/2000/svg">
<path d="M51.8399 32.1333C51.1336 37.1247 49.1528 41.8498 46.0886 45.8528C43.0245 49.8558 38.9804 53.0016 34.3466 54.9866L31.9999 56L29.6532 54.9866C25.0194 53.0016 20.9753 49.8558 17.9112 45.8528C14.8471 41.8498 12.8663 37.1247 12.1599 32.1333C15.8505 39.0378 21.9689 44.3297 29.3332 46.9866L31.9999 48L34.6666 46.9866C42.0309 44.3297 48.1493 39.0378 51.8399 32.1333Z" fill="#E5E5E5"/>
<path d="M51.1466 12.8L31.9999 8L12.8532 12.8C12.2616 12.946 11.7378 13.2903 11.369 13.7755C11.0003 14.2606 10.8088 14.8575 10.8266 15.4667L11.9732 30.1867C12.3863 35.5241 14.2522 40.6468 17.3687 44.9995C20.4852 49.3523 24.7335 52.7692 29.6532 54.88L31.9999 56L34.3466 54.9867C39.2663 52.8759 43.5146 49.459 46.6311 45.1062C49.7476 40.7534 51.6135 35.6308 52.0266 30.2933L53.1732 15.5733C53.2164 14.9464 53.0367 14.3243 52.6659 13.8169C52.2951 13.3095 51.757 12.9493 51.1466 12.8V12.8Z" stroke="#14213D" stroke-width="4" stroke-linecap="round" stroke-linejoin="round"/>
<path d="M24 29.3333L29.3333 34.6667L40 24" stroke="#FCA311" stroke-width="4" stroke-linecap="round" stroke-linejoin="round"/>
</svg>
